<?xml version="1.0" encoding="utf-8" standalone="no"?>
<!DOCTYPE svg PUBLIC "-//W3C//DTD SVG 1.1//EN"
  "http://www.w3.org/Graphics/SVG/1.1/DTD/svg11.dtd">
<!-- Created with matplotlib (https://matplotlib.org/) -->
<svg height="279.593906pt" version="1.1" viewBox="0 0 382.603125 279.593906" width="382.603125pt" xmlns="http://www.w3.org/2000/svg" xmlns:xlink="http://www.w3.org/1999/xlink">
 <defs>
  <style type="text/css">
*{stroke-linecap:butt;stroke-linejoin:round;}
  </style>
 </defs>
 <g id="figure_1">
  <g id="patch_1">
   <path d="M 0 279.593906 
L 382.603125 279.593906 
L 382.603125 0 
L 0 0 
z
" style="fill:none;"/>
  </g>
  <g id="axes_1">
   <g id="patch_2">
    <path d="M 40.603125 242.037656 
L 375.403125 242.037656 
L 375.403125 24.597656 
L 40.603125 24.597656 
z
" style="fill:#ffffff;"/>
   </g>
   <g id="matplotlib.axis_1">
    <g id="xtick_1">
     <g id="line2d_1">
      <defs>
       <path d="M 0 0 
L 0 3.5 
" id="me68ad0d821" style="stroke:#000000;stroke-width:0.8;"/>
      </defs>
      <g>
       <use style="stroke:#000000;stroke-width:0.8;" x="55.821307" xlink:href="#me68ad0d821" y="242.037656"/>
      </g>
     </g>
     <g id="text_1">
      <!-- 0 -->
      <defs>
       <path d="M 31.78125 66.40625 
Q 24.171875 66.40625 20.328125 58.90625 
Q 16.5 51.421875 16.5 36.375 
Q 16.5 21.390625 20.328125 13.890625 
Q 24.171875 6.390625 31.78125 6.390625 
Q 39.453125 6.390625 43.28125 13.890625 
Q 47.125 21.390625 47.125 36.375 
Q 47.125 51.421875 43.28125 58.90625 
Q 39.453125 66.40625 31.78125 66.40625 
z
M 31.78125 74.21875 
Q 44.046875 74.21875 50.515625 64.515625 
Q 56.984375 54.828125 56.984375 36.375 
Q 56.984375 17.96875 50.515625 8.265625 
Q 44.046875 -1.421875 31.78125 -1.421875 
Q 19.53125 -1.421875 13.0625 8.265625 
Q 6.59375 17.96875 6.59375 36.375 
Q 6.59375 54.828125 13.0625 64.515625 
Q 19.53125 74.21875 31.78125 74.21875 
z
" id="DejaVuSans-48"/>
      </defs>
      <g transform="translate(52.640057 256.636094)scale(0.1 -0.1)">
       <use xlink:href="#DejaVuSans-48"/>
      </g>
     </g>
    </g>
    <g id="xtick_2">
     <g id="line2d_2">
      <g>
       <use style="stroke:#000000;stroke-width:0.8;" x="99.301826" xlink:href="#me68ad0d821" y="242.037656"/>
      </g>
     </g>
     <g id="text_2">
      <!-- 1 -->
      <defs>
       <path d="M 12.40625 8.296875 
L 28.515625 8.296875 
L 28.515625 63.921875 
L 10.984375 60.40625 
L 10.984375 69.390625 
L 28.421875 72.90625 
L 38.28125 72.90625 
L 38.28125 8.296875 
L 54.390625 8.296875 
L 54.390625 0 
L 12.40625 0 
z
" id="DejaVuSans-49"/>
      </defs>
      <g transform="translate(96.120576 256.636094)scale(0.1 -0.1)">
       <use xlink:href="#DejaVuSans-49"/>
      </g>
     </g>
    </g>
    <g id="xtick_3">
     <g id="line2d_3">
      <g>
       <use style="stroke:#000000;stroke-width:0.8;" x="142.782346" xlink:href="#me68ad0d821" y="242.037656"/>
      </g>
     </g>
     <g id="text_3">
      <!-- 2 -->
      <defs>
       <path d="M 19.1875 8.296875 
L 53.609375 8.296875 
L 53.609375 0 
L 7.328125 0 
L 7.328125 8.296875 
Q 12.9375 14.109375 22.625 23.890625 
Q 32.328125 33.6875 34.8125 36.53125 
Q 39.546875 41.84375 41.421875 45.53125 
Q 43.3125 49.21875 43.3125 52.78125 
Q 43.3125 58.59375 39.234375 62.25 
Q 35.15625 65.921875 28.609375 65.921875 
Q 23.96875 65.921875 18.8125 64.3125 
Q 13.671875 62.703125 7.8125 59.421875 
L 7.8125 69.390625 
Q 13.765625 71.78125 18.9375 73 
Q 24.125 74.21875 28.421875 74.21875 
Q 39.75 74.21875 46.484375 68.546875 
Q 53.21875 62.890625 53.21875 53.421875 
Q 53.21875 48.921875 51.53125 44.890625 
Q 49.859375 40.875 45.40625 35.40625 
Q 44.1875 33.984375 37.640625 27.21875 
Q 31.109375 20.453125 19.1875 8.296875 
z
" id="DejaVuSans-50"/>
      </defs>
      <g transform="translate(139.601096 256.636094)scale(0.1 -0.1)">
       <use xlink:href="#DejaVuSans-50"/>
      </g>
     </g>
    </g>
    <g id="xtick_4">
     <g id="line2d_4">
      <g>
       <use style="stroke:#000000;stroke-width:0.8;" x="186.262865" xlink:href="#me68ad0d821" y="242.037656"/>
      </g>
     </g>
     <g id="text_4">
      <!-- 3 -->
      <defs>
       <path d="M 40.578125 39.3125 
Q 47.65625 37.796875 51.625 33 
Q 55.609375 28.21875 55.609375 21.1875 
Q 55.609375 10.40625 48.1875 4.484375 
Q 40.765625 -1.421875 27.09375 -1.421875 
Q 22.515625 -1.421875 17.65625 -0.515625 
Q 12.796875 0.390625 7.625 2.203125 
L 7.625 11.71875 
Q 11.71875 9.328125 16.59375 8.109375 
Q 21.484375 6.890625 26.8125 6.890625 
Q 36.078125 6.890625 40.9375 10.546875 
Q 45.796875 14.203125 45.796875 21.1875 
Q 45.796875 27.640625 41.28125 31.265625 
Q 36.765625 34.90625 28.71875 34.90625 
L 20.21875 34.90625 
L 20.21875 43.015625 
L 29.109375 43.015625 
Q 36.375 43.015625 40.234375 45.921875 
Q 44.09375 48.828125 44.09375 54.296875 
Q 44.09375 59.90625 40.109375 62.90625 
Q 36.140625 65.921875 28.71875 65.921875 
Q 24.65625 65.921875 20.015625 65.03125 
Q 15.375 64.15625 9.8125 62.3125 
L 9.8125 71.09375 
Q 15.4375 72.65625 20.34375 73.4375 
Q 25.25 74.21875 29.59375 74.21875 
Q 40.828125 74.21875 47.359375 69.109375 
Q 53.90625 64.015625 53.90625 55.328125 
Q 53.90625 49.265625 50.4375 45.09375 
Q 46.96875 40.921875 40.578125 39.3125 
z
" id="DejaVuSans-51"/>
      </defs>
      <g transform="translate(183.081615 256.636094)scale(0.1 -0.1)">
       <use xlink:href="#DejaVuSans-51"/>
      </g>
     </g>
    </g>
    <g id="xtick_5">
     <g id="line2d_5">
      <g>
       <use style="stroke:#000000;stroke-width:0.8;" x="229.743385" xlink:href="#me68ad0d821" y="242.037656"/>
      </g>
     </g>
     <g id="text_5">
      <!-- 4 -->
      <defs>
       <path d="M 37.796875 64.3125 
L 12.890625 25.390625 
L 37.796875 25.390625 
z
M 35.203125 72.90625 
L 47.609375 72.90625 
L 47.609375 25.390625 
L 58.015625 25.390625 
L 58.015625 17.1875 
L 47.609375 17.1875 
L 47.609375 0 
L 37.796875 0 
L 37.796875 17.1875 
L 4.890625 17.1875 
L 4.890625 26.703125 
z
" id="DejaVuSans-52"/>
      </defs>
      <g transform="translate(226.562135 256.636094)scale(0.1 -0.1)">
       <use xlink:href="#DejaVuSans-52"/>
      </g>
     </g>
    </g>
    <g id="xtick_6">
     <g id="line2d_6">
      <g>
       <use style="stroke:#000000;stroke-width:0.8;" x="273.223904" xlink:href="#me68ad0d821" y="242.037656"/>
      </g>
     </g>
     <g id="text_6">
      <!-- 5 -->
      <defs>
       <path d="M 10.796875 72.90625 
L 49.515625 72.90625 
L 49.515625 64.59375 
L 19.828125 64.59375 
L 19.828125 46.734375 
Q 21.96875 47.46875 24.109375 47.828125 
Q 26.265625 48.1875 28.421875 48.1875 
Q 40.625 48.1875 47.75 41.5 
Q 54.890625 34.8125 54.890625 23.390625 
Q 54.890625 11.625 47.5625 5.09375 
Q 40.234375 -1.421875 26.90625 -1.421875 
Q 22.3125 -1.421875 17.546875 -0.640625 
Q 12.796875 0.140625 7.71875 1.703125 
L 7.71875 11.625 
Q 12.109375 9.234375 16.796875 8.0625 
Q 21.484375 6.890625 26.703125 6.890625 
Q 35.15625 6.890625 40.078125 11.328125 
Q 45.015625 15.765625 45.015625 23.390625 
Q 45.015625 31 40.078125 35.4375 
Q 35.15625 39.890625 26.703125 39.890625 
Q 22.75 39.890625 18.8125 39.015625 
Q 14.890625 38.140625 10.796875 36.28125 
z
" id="DejaVuSans-53"/>
      </defs>
      <g transform="translate(270.042654 256.636094)scale(0.1 -0.1)">
       <use xlink:href="#DejaVuSans-53"/>
      </g>
     </g>
    </g>
    <g id="xtick_7">
     <g id="line2d_7">
      <g>
       <use style="stroke:#000000;stroke-width:0.8;" x="316.704424" xlink:href="#me68ad0d821" y="242.037656"/>
      </g>
     </g>
     <g id="text_7">
      <!-- 6 -->
      <defs>
       <path d="M 33.015625 40.375 
Q 26.375 40.375 22.484375 35.828125 
Q 18.609375 31.296875 18.609375 23.390625 
Q 18.609375 15.53125 22.484375 10.953125 
Q 26.375 6.390625 33.015625 6.390625 
Q 39.65625 6.390625 43.53125 10.953125 
Q 47.40625 15.53125 47.40625 23.390625 
Q 47.40625 31.296875 43.53125 35.828125 
Q 39.65625 40.375 33.015625 40.375 
z
M 52.59375 71.296875 
L 52.59375 62.3125 
Q 48.875 64.0625 45.09375 64.984375 
Q 41.3125 65.921875 37.59375 65.921875 
Q 27.828125 65.921875 22.671875 59.328125 
Q 17.53125 52.734375 16.796875 39.40625 
Q 19.671875 43.65625 24.015625 45.921875 
Q 28.375 48.1875 33.59375 48.1875 
Q 44.578125 48.1875 50.953125 41.515625 
Q 57.328125 34.859375 57.328125 23.390625 
Q 57.328125 12.15625 50.6875 5.359375 
Q 44.046875 -1.421875 33.015625 -1.421875 
Q 20.359375 -1.421875 13.671875 8.265625 
Q 6.984375 17.96875 6.984375 36.375 
Q 6.984375 53.65625 15.1875 63.9375 
Q 23.390625 74.21875 37.203125 74.21875 
Q 40.921875 74.21875 44.703125 73.484375 
Q 48.484375 72.75 52.59375 71.296875 
z
" id="DejaVuSans-54"/>
      </defs>
      <g transform="translate(313.523174 256.636094)scale(0.1 -0.1)">
       <use xlink:href="#DejaVuSans-54"/>
      </g>
     </g>
    </g>
    <g id="xtick_8">
     <g id="line2d_8">
      <g>
       <use style="stroke:#000000;stroke-width:0.8;" x="360.184943" xlink:href="#me68ad0d821" y="242.037656"/>
      </g>
     </g>
     <g id="text_8">
      <!-- 7 -->
      <defs>
       <path d="M 8.203125 72.90625 
L 55.078125 72.90625 
L 55.078125 68.703125 
L 28.609375 0 
L 18.3125 0 
L 43.21875 64.59375 
L 8.203125 64.59375 
z
" id="DejaVuSans-55"/>
      </defs>
      <g transform="translate(357.003693 256.636094)scale(0.1 -0.1)">
       <use xlink:href="#DejaVuSans-55"/>
      </g>
     </g>
    </g>
    <g id="text_9">
     <!-- X axis -->
     <defs>
      <path d="M 33.109375 31.203125 
L 15.28125 5.171875 
L 24.703125 5.171875 
L 24.703125 0 
L 0.59375 0 
L 0.59375 5.171875 
L 8.984375 5.171875 
L 29.984375 35.796875 
L 8.6875 67.671875 
L 0.875 67.671875 
L 0.875 72.90625 
L 29.78125 72.90625 
L 29.78125 67.671875 
L 21.1875 67.671875 
L 36.8125 44.1875 
L 52.875 67.671875 
L 43.5 67.671875 
L 43.5 72.90625 
L 67.390625 72.90625 
L 67.390625 67.671875 
L 59.1875 67.671875 
L 39.890625 39.59375 
L 62.890625 5.171875 
L 70.703125 5.171875 
L 70.703125 0 
L 41.796875 0 
L 41.796875 5.171875 
L 50.484375 5.171875 
z
" id="DejaVuSerif-88"/>
      <path id="DejaVuSerif-32"/>
      <path d="M 39.796875 16.3125 
L 39.796875 27.296875 
L 28.21875 27.296875 
Q 21.53125 27.296875 18.25 24.40625 
Q 14.984375 21.53125 14.984375 15.578125 
Q 14.984375 10.15625 18.296875 6.984375 
Q 21.625 3.8125 27.296875 3.8125 
Q 32.90625 3.8125 36.34375 7.28125 
Q 39.796875 10.75 39.796875 16.3125 
z
M 48.78125 32.421875 
L 48.78125 5.171875 
L 56.78125 5.171875 
L 56.78125 0 
L 39.796875 0 
L 39.796875 5.609375 
Q 36.8125 2 32.90625 0.28125 
Q 29 -1.421875 23.78125 -1.421875 
Q 15.140625 -1.421875 10.0625 3.171875 
Q 4.984375 7.765625 4.984375 15.578125 
Q 4.984375 23.640625 10.796875 28.078125 
Q 16.609375 32.515625 27.203125 32.515625 
L 39.796875 32.515625 
L 39.796875 36.078125 
Q 39.796875 42 36.203125 45.234375 
Q 32.625 48.484375 26.125 48.484375 
Q 20.75 48.484375 17.578125 46.046875 
Q 14.40625 43.609375 13.625 38.8125 
L 8.984375 38.8125 
L 8.984375 49.3125 
Q 13.671875 51.3125 18.09375 52.3125 
Q 22.515625 53.328125 26.703125 53.328125 
Q 37.5 53.328125 43.140625 47.96875 
Q 48.78125 42.625 48.78125 32.421875 
z
" id="DejaVuSerif-97"/>
      <path d="M 29.109375 31.6875 
L 39.984375 46.6875 
L 33.015625 46.6875 
L 33.015625 51.90625 
L 52.984375 51.90625 
L 52.984375 46.6875 
L 46.09375 46.6875 
L 32.171875 27.484375 
L 48.390625 5.171875 
L 55.171875 5.171875 
L 55.171875 0 
L 31.203125 0 
L 31.203125 5.171875 
L 37.796875 5.171875 
L 26.515625 20.703125 
L 15.1875 5.171875 
L 21.921875 5.171875 
L 21.921875 0 
L 2.203125 0 
L 2.203125 5.171875 
L 9.078125 5.171875 
L 23.390625 24.90625 
L 7.625 46.6875 
L 1.21875 46.6875 
L 1.21875 51.90625 
L 24.421875 51.90625 
L 24.421875 46.6875 
L 18.21875 46.6875 
z
" id="DejaVuSerif-120"/>
      <path d="M 9.71875 68.015625 
Q 9.71875 70.265625 11.34375 71.921875 
Q 12.984375 73.578125 15.28125 73.578125 
Q 17.53125 73.578125 19.15625 71.921875 
Q 20.796875 70.265625 20.796875 68.015625 
Q 20.796875 65.71875 19.1875 64.109375 
Q 17.578125 62.5 15.28125 62.5 
Q 12.984375 62.5 11.34375 64.109375 
Q 9.71875 65.71875 9.71875 68.015625 
z
M 21.1875 5.171875 
L 29.6875 5.171875 
L 29.6875 0 
L 3.609375 0 
L 3.609375 5.171875 
L 12.203125 5.171875 
L 12.203125 46.6875 
L 3.609375 46.6875 
L 3.609375 51.90625 
L 21.1875 51.90625 
z
" id="DejaVuSerif-105"/>
      <path d="M 5.609375 2.875 
L 5.609375 14.984375 
L 10.796875 14.984375 
Q 10.984375 9.1875 14.421875 6.296875 
Q 17.875 3.421875 24.609375 3.421875 
Q 30.671875 3.421875 33.84375 5.6875 
Q 37.015625 7.953125 37.015625 12.3125 
Q 37.015625 15.71875 34.6875 17.8125 
Q 32.375 19.921875 24.90625 22.3125 
L 18.40625 24.515625 
Q 11.71875 26.65625 8.71875 29.875 
Q 5.71875 33.109375 5.71875 38.09375 
Q 5.71875 45.21875 10.9375 49.265625 
Q 16.15625 53.328125 25.390625 53.328125 
Q 29.5 53.328125 34.03125 52.25 
Q 38.578125 51.171875 43.40625 49.125 
L 43.40625 37.796875 
L 38.234375 37.796875 
Q 38.03125 42.828125 34.703125 45.65625 
Q 31.390625 48.484375 25.6875 48.484375 
Q 20.015625 48.484375 17.109375 46.484375 
Q 14.203125 44.484375 14.203125 40.484375 
Q 14.203125 37.203125 16.40625 35.21875 
Q 18.609375 33.25 25.203125 31.203125 
L 32.328125 29 
Q 39.703125 26.703125 42.9375 23.265625 
Q 46.1875 19.828125 46.1875 14.40625 
Q 46.1875 7.03125 40.546875 2.796875 
Q 34.90625 -1.421875 25 -1.421875 
Q 19.96875 -1.421875 15.1875 -0.34375 
Q 10.40625 0.734375 5.609375 2.875 
z
" id="DejaVuSerif-115"/>
     </defs>
     <g style="fill:#ff0000;" transform="translate(192.889062 270.314219)scale(0.1 -0.1)">
      <use xlink:href="#DejaVuSerif-88"/>
      <use x="71.191406" xlink:href="#DejaVuSerif-32"/>
      <use x="102.978516" xlink:href="#DejaVuSerif-97"/>
      <use x="162.597656" xlink:href="#DejaVuSerif-120"/>
      <use x="218.994141" xlink:href="#DejaVuSerif-105"/>
      <use x="250.976562" xlink:href="#DejaVuSerif-115"/>
     </g>
    </g>
   </g>
   <g id="matplotlib.axis_2">
    <g id="ytick_1">
     <g id="line2d_9">
      <defs>
       <path d="M 0 0 
L -3.5 0 
" id="me8c1927b83" style="stroke:#000000;stroke-width:0.8;"/>
      </defs>
      <g>
       <use style="stroke:#000000;stroke-width:0.8;" x="40.603125" xlink:href="#me8c1927b83" y="205.198648"/>
      </g>
     </g>
     <g id="text_10">
      <!-- 5 -->
      <g transform="translate(27.240625 208.997867)scale(0.1 -0.1)">
       <use xlink:href="#DejaVuSans-53"/>
      </g>
     </g>
    </g>
    <g id="ytick_2">
     <g id="line2d_10">
      <g>
       <use style="stroke:#000000;stroke-width:0.8;" x="40.603125" xlink:href="#me8c1927b83" y="160.273028"/>
      </g>
     </g>
     <g id="text_11">
      <!-- 10 -->
      <g transform="translate(20.878125 164.072247)scale(0.1 -0.1)">
       <use xlink:href="#DejaVuSans-49"/>
       <use x="63.623047" xlink:href="#DejaVuSans-48"/>
      </g>
     </g>
    </g>
    <g id="ytick_3">
     <g id="line2d_11">
      <g>
       <use style="stroke:#000000;stroke-width:0.8;" x="40.603125" xlink:href="#me8c1927b83" y="115.347408"/>
      </g>
     </g>
     <g id="text_12">
      <!-- 15 -->
      <g transform="translate(20.878125 119.146627)scale(0.1 -0.1)">
       <use xlink:href="#DejaVuSans-49"/>
       <use x="63.623047" xlink:href="#DejaVuSans-53"/>
      </g>
     </g>
    </g>
    <g id="ytick_4">
     <g id="line2d_12">
      <g>
       <use style="stroke:#000000;stroke-width:0.8;" x="40.603125" xlink:href="#me8c1927b83" y="70.421788"/>
      </g>
     </g>
     <g id="text_13">
      <!-- 20 -->
      <g transform="translate(20.878125 74.221007)scale(0.1 -0.1)">
       <use xlink:href="#DejaVuSans-50"/>
       <use x="63.623047" xlink:href="#DejaVuSans-48"/>
      </g>
     </g>
    </g>
    <g id="ytick_5">
     <g id="line2d_13">
      <g>
       <use style="stroke:#000000;stroke-width:0.8;" x="40.603125" xlink:href="#me8c1927b83" y="25.496169"/>
      </g>
     </g>
     <g id="text_14">
      <!-- 25 -->
      <g transform="translate(20.878125 29.295387)scale(0.1 -0.1)">
       <use xlink:href="#DejaVuSans-50"/>
       <use x="63.623047" xlink:href="#DejaVuSans-53"/>
      </g>
     </g>
    </g>
    <g id="text_15">
     <!-- Y axis -->
     <defs>
      <path d="M 18.890625 0 
L 18.890625 5.171875 
L 28.21875 5.171875 
L 28.21875 31.390625 
L 5.71875 67.671875 
L -1.125 67.671875 
L -1.125 72.90625 
L 25.984375 72.90625 
L 25.984375 67.671875 
L 17.484375 67.671875 
L 35.6875 38.1875 
L 53.90625 67.671875 
L 45.703125 67.671875 
L 45.703125 72.90625 
L 66.890625 72.90625 
L 66.890625 67.671875 
L 60.015625 67.671875 
L 38.09375 32.328125 
L 38.09375 5.171875 
L 47.40625 5.171875 
L 47.40625 0 
z
" id="DejaVuSerif-89"/>
     </defs>
     <g style="fill:#ff0000;" transform="translate(14.798438 148.173125)rotate(-90)scale(0.1 -0.1)">
      <use xlink:href="#DejaVuSerif-89"/>
      <use x="66.015625" xlink:href="#DejaVuSerif-32"/>
      <use x="97.802734" xlink:href="#DejaVuSerif-97"/>
      <use x="157.421875" xlink:href="#DejaVuSerif-120"/>
      <use x="213.818359" xlink:href="#DejaVuSerif-105"/>
      <use x="245.800781" xlink:href="#DejaVuSerif-115"/>
     </g>
    </g>
   </g>
   <g id="line2d_14">
    <path clip-path="url(#pa55f70c68f)" d="M 55.821307 232.15402 
L 99.301826 223.168896 
L 142.782346 223.168896 
L 186.262865 133.317656 
L 229.743385 79.406912 
L 273.223904 115.347408 
L 316.704424 52.451541 
L 360.184943 34.481293 
" style="fill:none;stroke:#ff0000;stroke-dasharray:5.55,2.4;stroke-dashoffset:0;stroke-width:1.5;"/>
   </g>
   <g id="patch_3">
    <path d="M 40.603125 242.037656 
L 40.603125 24.597656 
" style="fill:none;stroke:#000000;stroke-linecap:square;stroke-linejoin:miter;stroke-width:0.8;"/>
   </g>
   <g id="patch_4">
    <path d="M 375.403125 242.037656 
L 375.403125 24.597656 
" style="fill:none;stroke:#000000;stroke-linecap:square;stroke-linejoin:miter;stroke-width:0.8;"/>
   </g>
   <g id="patch_5">
    <path d="M 40.603125 242.037656 
L 375.403125 242.037656 
" style="fill:none;stroke:#000000;stroke-linecap:square;stroke-linejoin:miter;stroke-width:0.8;"/>
   </g>
   <g id="patch_6">
    <path d="M 40.603125 24.597656 
L 375.403125 24.597656 
" style="fill:none;stroke:#000000;stroke-linecap:square;stroke-linejoin:miter;stroke-width:0.8;"/>
   </g>
   <g id="text_16">
    <!-- This is the title of plot -->
    <defs>
     <path d="M 19.09375 0 
L 19.09375 5.171875 
L 28.421875 5.171875 
L 28.421875 67.09375 
L 6.984375 67.09375 
L 6.984375 55.71875 
L 0.984375 55.71875 
L 0.984375 72.90625 
L 65.71875 72.90625 
L 65.71875 55.71875 
L 59.71875 55.71875 
L 59.71875 67.09375 
L 38.28125 67.09375 
L 38.28125 5.171875 
L 47.609375 5.171875 
L 47.609375 0 
z
" id="DejaVuSerif-84"/>
     <path d="M 4.109375 0 
L 4.109375 5.171875 
L 12.203125 5.171875 
L 12.203125 70.796875 
L 3.609375 70.796875 
L 3.609375 75.984375 
L 21.1875 75.984375 
L 21.1875 42.671875 
Q 23.6875 47.953125 27.65625 50.640625 
Q 31.640625 53.328125 36.921875 53.328125 
Q 45.515625 53.328125 49.5625 48.390625 
Q 53.609375 43.453125 53.609375 33.015625 
L 53.609375 5.171875 
L 61.625 5.171875 
L 61.625 0 
L 36.8125 0 
L 36.8125 5.171875 
L 44.578125 5.171875 
L 44.578125 30.171875 
Q 44.578125 39.703125 42.25 43.1875 
Q 39.9375 46.6875 33.984375 46.6875 
Q 27.734375 46.6875 24.453125 42.140625 
Q 21.1875 37.59375 21.1875 28.90625 
L 21.1875 5.171875 
L 29 5.171875 
L 29 0 
z
" id="DejaVuSerif-104"/>
     <path d="M 10.796875 46.6875 
L 2.875 46.6875 
L 2.875 51.90625 
L 10.796875 51.90625 
L 10.796875 68.015625 
L 19.828125 68.015625 
L 19.828125 51.90625 
L 36.71875 51.90625 
L 36.71875 46.6875 
L 19.828125 46.6875 
L 19.828125 13.71875 
Q 19.828125 7.125 21.09375 5.265625 
Q 22.359375 3.421875 25.78125 3.421875 
Q 29.296875 3.421875 30.90625 5.484375 
Q 32.515625 7.5625 32.625 12.203125 
L 39.40625 12.203125 
Q 39.015625 5.125 35.546875 1.84375 
Q 32.078125 -1.421875 25 -1.421875 
Q 17.234375 -1.421875 14.015625 2.015625 
Q 10.796875 5.46875 10.796875 13.71875 
z
" id="DejaVuSerif-116"/>
     <path d="M 54.203125 25 
L 15.484375 25 
L 15.484375 24.609375 
Q 15.484375 14.109375 19.4375 8.765625 
Q 23.390625 3.421875 31.109375 3.421875 
Q 37.015625 3.421875 40.796875 6.515625 
Q 44.578125 9.625 46.09375 15.71875 
L 53.328125 15.71875 
Q 51.171875 7.171875 45.375 2.875 
Q 39.59375 -1.421875 30.171875 -1.421875 
Q 18.796875 -1.421875 11.890625 6.078125 
Q 4.984375 13.578125 4.984375 25.984375 
Q 4.984375 38.28125 11.765625 45.796875 
Q 18.5625 53.328125 29.59375 53.328125 
Q 41.359375 53.328125 47.65625 46.0625 
Q 53.953125 38.8125 54.203125 25 
z
M 43.609375 30.171875 
Q 43.3125 39.265625 39.765625 43.875 
Q 36.234375 48.484375 29.59375 48.484375 
Q 23.390625 48.484375 19.828125 43.84375 
Q 16.265625 39.203125 15.484375 30.171875 
z
" id="DejaVuSerif-101"/>
     <path d="M 20.515625 5.171875 
L 29 5.171875 
L 29 0 
L 2.875 0 
L 2.875 5.171875 
L 11.53125 5.171875 
L 11.53125 70.796875 
L 2.875 70.796875 
L 2.875 75.984375 
L 20.515625 75.984375 
z
" id="DejaVuSerif-108"/>
     <path d="M 30.078125 3.421875 
Q 37.3125 3.421875 40.984375 9.125 
Q 44.671875 14.84375 44.671875 25.984375 
Q 44.671875 37.109375 40.984375 42.796875 
Q 37.3125 48.484375 30.078125 48.484375 
Q 22.859375 48.484375 19.171875 42.796875 
Q 15.484375 37.109375 15.484375 25.984375 
Q 15.484375 14.84375 19.1875 9.125 
Q 22.90625 3.421875 30.078125 3.421875 
z
M 30.078125 -1.421875 
Q 18.75 -1.421875 11.859375 6.078125 
Q 4.984375 13.578125 4.984375 25.984375 
Q 4.984375 38.375 11.84375 45.84375 
Q 18.703125 53.328125 30.078125 53.328125 
Q 41.453125 53.328125 48.3125 45.84375 
Q 55.171875 38.375 55.171875 25.984375 
Q 55.171875 13.578125 48.3125 6.078125 
Q 41.453125 -1.421875 30.078125 -1.421875 
z
" id="DejaVuSerif-111"/>
     <path d="M 43.015625 63.71875 
L 38.28125 63.71875 
Q 38.234375 67.390625 36.203125 69.28125 
Q 34.1875 71.1875 30.328125 71.1875 
Q 25.296875 71.1875 23.234375 68.421875 
Q 21.1875 65.671875 21.1875 58.59375 
L 21.1875 51.90625 
L 35.6875 51.90625 
L 35.6875 46.6875 
L 21.1875 46.6875 
L 21.1875 5.171875 
L 32.71875 5.171875 
L 32.71875 0 
L 3.609375 0 
L 3.609375 5.171875 
L 12.203125 5.171875 
L 12.203125 46.6875 
L 3.609375 46.6875 
L 3.609375 51.90625 
L 12.203125 51.90625 
L 12.203125 58.40625 
Q 12.203125 67.09375 16.71875 71.53125 
Q 21.234375 75.984375 29.984375 75.984375 
Q 33.25 75.984375 36.515625 75.390625 
Q 39.796875 74.8125 43.015625 73.578125 
z
" id="DejaVuSerif-102"/>
     <path d="M 20.515625 28.515625 
L 20.515625 23.390625 
Q 20.515625 14.015625 24.09375 9.109375 
Q 27.6875 4.203125 34.515625 4.203125 
Q 41.40625 4.203125 44.9375 9.71875 
Q 48.484375 15.234375 48.484375 25.984375 
Q 48.484375 36.765625 44.9375 42.234375 
Q 41.40625 47.703125 34.515625 47.703125 
Q 27.6875 47.703125 24.09375 42.765625 
Q 20.515625 37.84375 20.515625 28.515625 
z
M 11.53125 46.6875 
L 2.875 46.6875 
L 2.875 51.90625 
L 20.515625 51.90625 
L 20.515625 43.796875 
Q 23.140625 48.6875 27.21875 51 
Q 31.296875 53.328125 37.3125 53.328125 
Q 46.875 53.328125 52.921875 45.75 
Q 58.984375 38.1875 58.984375 25.984375 
Q 58.984375 13.765625 52.921875 6.171875 
Q 46.875 -1.421875 37.3125 -1.421875 
Q 31.296875 -1.421875 27.21875 0.890625 
Q 23.140625 3.21875 20.515625 8.109375 
L 20.515625 -15.578125 
L 29 -15.578125 
L 29 -20.796875 
L 2.875 -20.796875 
L 2.875 -15.578125 
L 11.53125 -15.578125 
z
" id="DejaVuSerif-112"/>
    </defs>
    <g style="fill:#0000ff;" transform="translate(124.188281 18.597656)scale(0.15 -0.15)">
     <use xlink:href="#DejaVuSerif-84"/>
     <use x="66.699219" xlink:href="#DejaVuSerif-104"/>
     <use x="131.103516" xlink:href="#DejaVuSerif-105"/>
     <use x="163.085938" xlink:href="#DejaVuSerif-115"/>
     <use x="214.404297" xlink:href="#DejaVuSerif-32"/>
     <use x="246.191406" xlink:href="#DejaVuSerif-105"/>
     <use x="278.173828" xlink:href="#DejaVuSerif-115"/>
     <use x="329.492188" xlink:href="#DejaVuSerif-32"/>
     <use x="361.279297" xlink:href="#DejaVuSerif-116"/>
     <use x="401.464844" xlink:href="#DejaVuSerif-104"/>
     <use x="465.869141" xlink:href="#DejaVuSerif-101"/>
     <use x="525.048828" xlink:href="#DejaVuSerif-32"/>
     <use x="556.835938" xlink:href="#DejaVuSerif-116"/>
     <use x="597.021484" xlink:href="#DejaVuSerif-105"/>
     <use x="629.003906" xlink:href="#DejaVuSerif-116"/>
     <use x="669.189453" xlink:href="#DejaVuSerif-108"/>
     <use x="701.171875" xlink:href="#DejaVuSerif-101"/>
     <use x="760.351562" xlink:href="#DejaVuSerif-32"/>
     <use x="792.138672" xlink:href="#DejaVuSerif-111"/>
     <use x="852.34375" xlink:href="#DejaVuSerif-102"/>
     <use x="889.355469" xlink:href="#DejaVuSerif-32"/>
     <use x="921.142578" xlink:href="#DejaVuSerif-112"/>
     <use x="985.15625" xlink:href="#DejaVuSerif-108"/>
     <use x="1017.138672" xlink:href="#DejaVuSerif-111"/>
     <use x="1077.34375" xlink:href="#DejaVuSerif-116"/>
    </g>
   </g>
  </g>
 </g>
 <defs>
  <clipPath id="pa55f70c68f">
   <rect height="217.44" width="334.8" x="40.603125" y="24.597656"/>
  </clipPath>
 </defs>
</svg>
