<?xml version="1.0" encoding="utf-8" standalone="no"?>
<!DOCTYPE svg PUBLIC "-//W3C//DTD SVG 1.1//EN"
  "http://www.w3.org/Graphics/SVG/1.1/DTD/svg11.dtd">
<!-- Created with matplotlib (https://matplotlib.org/) -->
<svg height="366.434375pt" version="1.1" viewBox="0 0 366.453125 366.434375" width="366.453125pt" xmlns="http://www.w3.org/2000/svg" xmlns:xlink="http://www.w3.org/1999/xlink">
 <defs>
  <style type="text/css">
*{stroke-linecap:butt;stroke-linejoin:round;}
  </style>
 </defs>
 <g id="figure_1">
  <g id="patch_1">
   <path d="M 0 366.434375 
L 366.453125 366.434375 
L 366.453125 0 
L 0 0 
z
" style="fill:none;"/>
  </g>
  <g id="axes_1">
   <g id="patch_2">
    <path d="M 40.603125 328.6 
L 359.253125 328.6 
L 359.253125 7.2 
L 40.603125 7.2 
z
" style="fill:#ffffff;"/>
   </g>
   <g id="PathCollection_1">
    <defs>
     <path d="M 0 3 
C 0.795609 3 1.55874 2.683901 2.12132 2.12132 
C 2.683901 1.55874 3 0.795609 3 0 
C 3 -0.795609 2.683901 -1.55874 2.12132 -2.12132 
C 1.55874 -2.683901 0.795609 -3 0 -3 
C -0.795609 -3 -1.55874 -2.683901 -2.12132 -2.12132 
C -2.683901 -1.55874 -3 -0.795609 -3 0 
C -3 0.795609 -2.683901 1.55874 -2.12132 2.12132 
C -1.55874 2.683901 -0.795609 3 0 3 
z
" id="m36c668923f" style="stroke:#ffffff;stroke-width:0.48;"/>
    </defs>
    <g clip-path="url(#p37db8192f5)">
     <use style="fill:#1f77b4;stroke:#ffffff;stroke-width:0.48;" x="139.552463" xlink:href="#m36c668923f" y="313.666263"/>
     <use style="fill:#1f77b4;stroke:#ffffff;stroke-width:0.48;" x="99.20089" xlink:href="#m36c668923f" y="292.564242"/>
     <use style="fill:#1f77b4;stroke:#ffffff;stroke-width:0.48;" x="163.945444" xlink:href="#m36c668923f" y="232.829293"/>
     <use style="fill:#1f77b4;stroke:#ffffff;stroke-width:0.48;" x="180.146752" xlink:href="#m36c668923f" y="238.997576"/>
     <use style="fill:#1f77b4;stroke:#ffffff;stroke-width:0.48;" x="185.668547" xlink:href="#m36c668923f" y="229.258182"/>
     <use style="fill:#1f77b4;stroke:#ffffff;stroke-width:0.48;" x="189.916081" xlink:href="#m36c668923f" y="193.547071"/>
     <use style="fill:#1f77b4;stroke:#ffffff;stroke-width:0.48;" x="89.674278" xlink:href="#m36c668923f" y="281.526263"/>
     <use style="fill:#1f77b4;stroke:#ffffff;stroke-width:0.48;" x="199.564051" xlink:href="#m36c668923f" y="245.165859"/>
     <use style="fill:#1f77b4;stroke:#ffffff;stroke-width:0.48;" x="127.720047" xlink:href="#m36c668923f" y="282.824848"/>
     <use style="fill:#1f77b4;stroke:#ffffff;stroke-width:0.48;" x="126.142392" xlink:href="#m36c668923f" y="241.594747"/>
     <use style="fill:#1f77b4;stroke:#ffffff;stroke-width:0.48;" x="98.776137" xlink:href="#m36c668923f" y="290.94101"/>
     <use style="fill:#1f77b4;stroke:#ffffff;stroke-width:0.48;" x="250.4131" xlink:href="#m36c668923f" y="184.132323"/>
     <use style="fill:#1f77b4;stroke:#ffffff;stroke-width:0.48;" x="130.025851" xlink:href="#m36c668923f" y="295.486061"/>
     <use style="fill:#1f77b4;stroke:#ffffff;stroke-width:0.48;" x="148.290247" xlink:href="#m36c668923f" y="249.061616"/>
     <use style="fill:#1f77b4;stroke:#ffffff;stroke-width:0.48;" x="126.445787" xlink:href="#m36c668923f" y="248.412323"/>
     <use style="fill:#1f77b4;stroke:#ffffff;stroke-width:0.48;" x="167.40415" xlink:href="#m36c668923f" y="219.194141"/>
     <use style="fill:#1f77b4;stroke:#ffffff;stroke-width:0.48;" x="99.140211" xlink:href="#m36c668923f" y="292.239596"/>
     <use style="fill:#1f77b4;stroke:#ffffff;stroke-width:0.48;" x="135.304929" xlink:href="#m36c668923f" y="226.011717"/>
     <use style="fill:#1f77b4;stroke:#ffffff;stroke-width:0.48;" x="139.431105" xlink:href="#m36c668923f" y="232.829293"/>
     <use style="fill:#1f77b4;stroke:#ffffff;stroke-width:0.48;" x="161.760998" xlink:href="#m36c668923f" y="237.69899"/>
     <use style="fill:#1f77b4;stroke:#ffffff;stroke-width:0.48;" x="145.195616" xlink:href="#m36c668923f" y="213.999798"/>
     <use style="fill:#1f77b4;stroke:#ffffff;stroke-width:0.48;" x="159.576552" xlink:href="#m36c668923f" y="257.177778"/>
     <use style="fill:#1f77b4;stroke:#ffffff;stroke-width:0.48;" x="132.149618" xlink:href="#m36c668923f" y="274.059394"/>
     <use style="fill:#1f77b4;stroke:#ffffff;stroke-width:0.48;" x="275.655588" xlink:href="#m36c668923f" y="100.373535"/>
     <use style="fill:#1f77b4;stroke:#ffffff;stroke-width:0.48;" x="156.724636" xlink:href="#m36c668923f" y="243.21798"/>
     <use style="fill:#1f77b4;stroke:#ffffff;stroke-width:0.48;" x="144.528146" xlink:href="#m36c668923f" y="270.488283"/>
     <use style="fill:#1f77b4;stroke:#ffffff;stroke-width:0.48;" x="117.586645" xlink:href="#m36c668923f" y="281.526263"/>
     <use style="fill:#1f77b4;stroke:#ffffff;stroke-width:0.48;" x="113.460469" xlink:href="#m36c668923f" y="281.526263"/>
     <use style="fill:#1f77b4;stroke:#ffffff;stroke-width:0.48;" x="168.132299" xlink:href="#m36c668923f" y="206.857576"/>
     <use style="fill:#1f77b4;stroke:#ffffff;stroke-width:0.48;" x="155.693092" xlink:href="#m36c668923f" y="249.061616"/>
     <use style="fill:#1f77b4;stroke:#ffffff;stroke-width:0.48;" x="94.407245" xlink:href="#m36c668923f" y="299.381818"/>
     <use style="fill:#1f77b4;stroke:#ffffff;stroke-width:0.48;" x="147.804815" xlink:href="#m36c668923f" y="265.293939"/>
     <use style="fill:#1f77b4;stroke:#ffffff;stroke-width:0.48;" x="127.841405" xlink:href="#m36c668923f" y="249.061616"/>
     <use style="fill:#1f77b4;stroke:#ffffff;stroke-width:0.48;" x="162.003714" xlink:href="#m36c668923f" y="266.917172"/>
     <use style="fill:#1f77b4;stroke:#ffffff;stroke-width:0.48;" x="144.346109" xlink:href="#m36c668923f" y="240.296162"/>
     <use style="fill:#1f77b4;stroke:#ffffff;stroke-width:0.48;" x="182.452557" xlink:href="#m36c668923f" y="229.582828"/>
     <use style="fill:#1f77b4;stroke:#ffffff;stroke-width:0.48;" x="135.426287" xlink:href="#m36c668923f" y="281.526263"/>
     <use style="fill:#1f77b4;stroke:#ffffff;stroke-width:0.48;" x="139.188389" xlink:href="#m36c668923f" y="246.789091"/>
     <use style="fill:#1f77b4;stroke:#ffffff;stroke-width:0.48;" x="149.867903" xlink:href="#m36c668923f" y="271.462222"/>
     <use style="fill:#1f77b4;stroke:#ffffff;stroke-width:0.48;" x="226.202157" xlink:href="#m36c668923f" y="184.132323"/>
     <use style="fill:#1f77b4;stroke:#ffffff;stroke-width:0.48;" x="133.787953" xlink:href="#m36c668923f" y="273.734747"/>
     <use style="fill:#1f77b4;stroke:#ffffff;stroke-width:0.48;" x="142.404379" xlink:href="#m36c668923f" y="263.995354"/>
     <use style="fill:#1f77b4;stroke:#ffffff;stroke-width:0.48;" x="121.045351" xlink:href="#m36c668923f" y="247.113737"/>
     <use style="fill:#1f77b4;stroke:#ffffff;stroke-width:0.48;" x="95.196073" xlink:href="#m36c668923f" y="303.602222"/>
     <use style="fill:#1f77b4;stroke:#ffffff;stroke-width:0.48;" x="220.923079" xlink:href="#m36c668923f" y="164.653535"/>
     <use style="fill:#1f77b4;stroke:#ffffff;stroke-width:0.48;" x="147.440741" xlink:href="#m36c668923f" y="249.061616"/>
     <use style="fill:#1f77b4;stroke:#ffffff;stroke-width:0.48;" x="171.348289" xlink:href="#m36c668923f" y="184.132323"/>
     <use style="fill:#1f77b4;stroke:#ffffff;stroke-width:0.48;" x="233.05889" xlink:href="#m36c668923f" y="151.667677"/>
     <use style="fill:#1f77b4;stroke:#ffffff;stroke-width:0.48;" x="209.697453" xlink:href="#m36c668923f" y="279.90303"/>
     <use style="fill:#1f77b4;stroke:#ffffff;stroke-width:0.48;" x="145.923764" xlink:href="#m36c668923f" y="249.061616"/>
     <use style="fill:#1f77b4;stroke:#ffffff;stroke-width:0.48;" x="112.550283" xlink:href="#m36c668923f" y="265.293939"/>
     <use style="fill:#1f77b4;stroke:#ffffff;stroke-width:0.48;" x="98.897495" xlink:href="#m36c668923f" y="262.047475"/>
     <use style="fill:#1f77b4;stroke:#ffffff;stroke-width:0.48;" x="247.682543" xlink:href="#m36c668923f" y="177.639394"/>
     <use style="fill:#1f77b4;stroke:#ffffff;stroke-width:0.48;" x="96.773728" xlink:href="#m36c668923f" y="295.810707"/>
     <use style="fill:#1f77b4;stroke:#ffffff;stroke-width:0.48;" x="191.554415" xlink:href="#m36c668923f" y="205.55899"/>
     <use style="fill:#1f77b4;stroke:#ffffff;stroke-width:0.48;" x="154.722228" xlink:href="#m36c668923f" y="232.504646"/>
     <use style="fill:#1f77b4;stroke:#ffffff;stroke-width:0.48;" x="267.099841" xlink:href="#m36c668923f" y="249.061616"/>
     <use style="fill:#1f77b4;stroke:#ffffff;stroke-width:0.48;" x="196.712135" xlink:href="#m36c668923f" y="297.758586"/>
     <use style="fill:#1f77b4;stroke:#ffffff;stroke-width:0.48;" x="104.662005" xlink:href="#m36c668923f" y="289.317778"/>
     <use style="fill:#1f77b4;stroke:#ffffff;stroke-width:0.48;" x="329.356554" xlink:href="#m36c668923f" y="127.968485"/>
     <use style="fill:#1f77b4;stroke:#ffffff;stroke-width:0.48;" x="159.576552" xlink:href="#m36c668923f" y="242.24404"/>
     <use style="fill:#1f77b4;stroke:#ffffff;stroke-width:0.48;" x="120.256523" xlink:href="#m36c668923f" y="281.526263"/>
     <use style="fill:#1f77b4;stroke:#ffffff;stroke-width:0.48;" x="103.327066" xlink:href="#m36c668923f" y="282.175556"/>
     <use style="fill:#1f77b4;stroke:#ffffff;stroke-width:0.48;" x="147.440741" xlink:href="#m36c668923f" y="224.388485"/>
     <use style="fill:#1f77b4;stroke:#ffffff;stroke-width:0.48;" x="143.193207" xlink:href="#m36c668923f" y="260.748889"/>
     <use style="fill:#1f77b4;stroke:#ffffff;stroke-width:0.48;" x="158.302292" xlink:href="#m36c668923f" y="244.191919"/>
     <use style="fill:#1f77b4;stroke:#ffffff;stroke-width:0.48;" x="136.275794" xlink:href="#m36c668923f" y="266.267879"/>
     <use style="fill:#1f77b4;stroke:#ffffff;stroke-width:0.48;" x="55.087216" xlink:href="#m36c668923f" y="313.990909"/>
     <use style="fill:#1f77b4;stroke:#ffffff;stroke-width:0.48;" x="159.212478" xlink:href="#m36c668923f" y="281.201616"/>
     <use style="fill:#1f77b4;stroke:#ffffff;stroke-width:0.48;" x="127.53801" xlink:href="#m36c668923f" y="278.604444"/>
     <use style="fill:#1f77b4;stroke:#ffffff;stroke-width:0.48;" x="109.394972" xlink:href="#m36c668923f" y="282.500202"/>
     <use style="fill:#1f77b4;stroke:#ffffff;stroke-width:0.48;" x="140.037896" xlink:href="#m36c668923f" y="249.061616"/>
     <use style="fill:#1f77b4;stroke:#ffffff;stroke-width:0.48;" x="199.442693" xlink:href="#m36c668923f" y="244.516566"/>
     <use style="fill:#1f77b4;stroke:#ffffff;stroke-width:0.48;" x="189.855402" xlink:href="#m36c668923f" y="184.132323"/>
     <use style="fill:#1f77b4;stroke:#ffffff;stroke-width:0.48;" x="125.838996" xlink:href="#m36c668923f" y="275.033333"/>
     <use style="fill:#1f77b4;stroke:#ffffff;stroke-width:0.48;" x="100.232434" xlink:href="#m36c668923f" y="305.874747"/>
     <use style="fill:#1f77b4;stroke:#ffffff;stroke-width:0.48;" x="145.195616" xlink:href="#m36c668923f" y="246.464444"/>
     <use style="fill:#1f77b4;stroke:#ffffff;stroke-width:0.48;" x="201.50578" xlink:href="#m36c668923f" y="216.59697"/>
     <use style="fill:#1f77b4;stroke:#ffffff;stroke-width:0.48;" x="174.564279" xlink:href="#m36c668923f" y="249.061616"/>
     <use style="fill:#1f77b4;stroke:#ffffff;stroke-width:0.48;" x="141.372835" xlink:href="#m36c668923f" y="258.476364"/>
     <use style="fill:#1f77b4;stroke:#ffffff;stroke-width:0.48;" x="154.418832" xlink:href="#m36c668923f" y="249.061616"/>
     <use style="fill:#1f77b4;stroke:#ffffff;stroke-width:0.48;" x="137.550054" xlink:href="#m36c668923f" y="236.075758"/>
     <use style="fill:#1f77b4;stroke:#ffffff;stroke-width:0.48;" x="97.562556" xlink:href="#m36c668923f" y="287.045253"/>
     <use style="fill:#1f77b4;stroke:#ffffff;stroke-width:0.48;" x="234.757904" xlink:href="#m36c668923f" y="184.132323"/>
     <use style="fill:#1f77b4;stroke:#ffffff;stroke-width:0.48;" x="133.423879" xlink:href="#m36c668923f" y="280.552323"/>
     <use style="fill:#1f77b4;stroke:#ffffff;stroke-width:0.48;" x="247.803901" xlink:href="#m36c668923f" y="178.613333"/>
     <use style="fill:#1f77b4;stroke:#ffffff;stroke-width:0.48;" x="115.523557" xlink:href="#m36c668923f" y="281.526263"/>
     <use style="fill:#1f77b4;stroke:#ffffff;stroke-width:0.48;" x="147.380062" xlink:href="#m36c668923f" y="216.59697"/>
     <use style="fill:#1f77b4;stroke:#ffffff;stroke-width:0.48;" x="186.396695" xlink:href="#m36c668923f" y="156.537374"/>
     <use style="fill:#1f77b4;stroke:#ffffff;stroke-width:0.48;" x="164.85563" xlink:href="#m36c668923f" y="249.061616"/>
     <use style="fill:#1f77b4;stroke:#ffffff;stroke-width:0.48;" x="212.245974" xlink:href="#m36c668923f" y="249.061616"/>
     <use style="fill:#1f77b4;stroke:#ffffff;stroke-width:0.48;" x="172.925945" xlink:href="#m36c668923f" y="232.829293"/>
     <use style="fill:#1f77b4;stroke:#ffffff;stroke-width:0.48;" x="71.349203" xlink:href="#m36c668923f" y="313.990909"/>
     <use style="fill:#1f77b4;stroke:#ffffff;stroke-width:0.48;" x="135.486966" xlink:href="#m36c668923f" y="206.857576"/>
     <use style="fill:#1f77b4;stroke:#ffffff;stroke-width:0.48;" x="174.5036" xlink:href="#m36c668923f" y="240.945455"/>
     <use style="fill:#1f77b4;stroke:#ffffff;stroke-width:0.48;" x="280.206517" xlink:href="#m36c668923f" y="192.897778"/>
     <use style="fill:#1f77b4;stroke:#ffffff;stroke-width:0.48;" x="201.991213" xlink:href="#m36c668923f" y="216.59697"/>
     <use style="fill:#1f77b4;stroke:#ffffff;stroke-width:0.48;" x="109.455651" xlink:href="#m36c668923f" y="297.758586"/>
     <use style="fill:#1f77b4;stroke:#ffffff;stroke-width:0.48;" x="163.945444" xlink:href="#m36c668923f" y="249.061616"/>
     <use style="fill:#1f77b4;stroke:#ffffff;stroke-width:0.48;" x="112.06485" xlink:href="#m36c668923f" y="297.758586"/>
     <use style="fill:#1f77b4;stroke:#ffffff;stroke-width:0.48;" x="105.329475" xlink:href="#m36c668923f" y="265.293939"/>
     <use style="fill:#1f77b4;stroke:#ffffff;stroke-width:0.48;" x="129.783135" xlink:href="#m36c668923f" y="249.061616"/>
     <use style="fill:#1f77b4;stroke:#ffffff;stroke-width:0.48;" x="305.266968" xlink:href="#m36c668923f" y="265.293939"/>
     <use style="fill:#1f77b4;stroke:#ffffff;stroke-width:0.48;" x="172.501191" xlink:href="#m36c668923f" y="233.478586"/>
     <use style="fill:#1f77b4;stroke:#ffffff;stroke-width:0.48;" x="163.399333" xlink:href="#m36c668923f" y="213.999798"/>
     <use style="fill:#1f77b4;stroke:#ffffff;stroke-width:0.48;" x="129.661777" xlink:href="#m36c668923f" y="293.213535"/>
     <use style="fill:#1f77b4;stroke:#ffffff;stroke-width:0.48;" x="160.790133" xlink:href="#m36c668923f" y="214.649091"/>
     <use style="fill:#1f77b4;stroke:#ffffff;stroke-width:0.48;" x="189.430648" xlink:href="#m36c668923f" y="207.182222"/>
     <use style="fill:#1f77b4;stroke:#ffffff;stroke-width:0.48;" x="147.137345" xlink:href="#m36c668923f" y="224.388485"/>
     <use style="fill:#1f77b4;stroke:#ffffff;stroke-width:0.48;" x="123.290476" xlink:href="#m36c668923f" y="216.59697"/>
     <use style="fill:#1f77b4;stroke:#ffffff;stroke-width:0.48;" x="121.409425" xlink:href="#m36c668923f" y="249.061616"/>
     <use style="fill:#1f77b4;stroke:#ffffff;stroke-width:0.48;" x="80.451062" xlink:href="#m36c668923f" y="313.990909"/>
     <use style="fill:#1f77b4;stroke:#ffffff;stroke-width:0.48;" x="267.463915" xlink:href="#m36c668923f" y="216.59697"/>
     <use style="fill:#1f77b4;stroke:#ffffff;stroke-width:0.48;" x="181.785087" xlink:href="#m36c668923f" y="263.670707"/>
     <use style="fill:#1f77b4;stroke:#ffffff;stroke-width:0.48;" x="192.464601" xlink:href="#m36c668923f" y="216.59697"/>
     <use style="fill:#1f77b4;stroke:#ffffff;stroke-width:0.48;" x="141.494193" xlink:href="#m36c668923f" y="232.829293"/>
     <use style="fill:#1f77b4;stroke:#ffffff;stroke-width:0.48;" x="218.071163" xlink:href="#m36c668923f" y="181.859798"/>
     <use style="fill:#1f77b4;stroke:#ffffff;stroke-width:0.48;" x="101.081941" xlink:href="#m36c668923f" y="297.758586"/>
     <use style="fill:#1f77b4;stroke:#ffffff;stroke-width:0.48;" x="111.882813" xlink:href="#m36c668923f" y="288.019192"/>
     <use style="fill:#1f77b4;stroke:#ffffff;stroke-width:0.48;" x="182.573915" xlink:href="#m36c668923f" y="251.658788"/>
     <use style="fill:#1f77b4;stroke:#ffffff;stroke-width:0.48;" x="107.392563" xlink:href="#m36c668923f" y="271.462222"/>
     <use style="fill:#1f77b4;stroke:#ffffff;stroke-width:0.48;" x="117.89004" xlink:href="#m36c668923f" y="291.914949"/>
     <use style="fill:#1f77b4;stroke:#ffffff;stroke-width:0.48;" x="122.987081" xlink:href="#m36c668923f" y="265.293939"/>
     <use style="fill:#1f77b4;stroke:#ffffff;stroke-width:0.48;" x="133.241841" xlink:href="#m36c668923f" y="281.526263"/>
     <use style="fill:#1f77b4;stroke:#ffffff;stroke-width:0.48;" x="112.186209" xlink:href="#m36c668923f" y="264.644646"/>
     <use style="fill:#1f77b4;stroke:#ffffff;stroke-width:0.48;" x="217.282335" xlink:href="#m36c668923f" y="210.10404"/>
     <use style="fill:#1f77b4;stroke:#ffffff;stroke-width:0.48;" x="88.157302" xlink:href="#m36c668923f" y="298.407879"/>
     <use style="fill:#1f77b4;stroke:#ffffff;stroke-width:0.48;" x="124.564736" xlink:href="#m36c668923f" y="281.526263"/>
     <use style="fill:#1f77b4;stroke:#ffffff;stroke-width:0.48;" x="105.511512" xlink:href="#m36c668923f" y="281.526263"/>
     <use style="fill:#1f77b4;stroke:#ffffff;stroke-width:0.48;" x="174.928354" xlink:href="#m36c668923f" y="275.682626"/>
     <use style="fill:#1f77b4;stroke:#ffffff;stroke-width:0.48;" x="152.234386" xlink:href="#m36c668923f" y="297.758586"/>
     <use style="fill:#1f77b4;stroke:#ffffff;stroke-width:0.48;" x="159.455194" xlink:href="#m36c668923f" y="254.580606"/>
     <use style="fill:#1f77b4;stroke:#ffffff;stroke-width:0.48;" x="104.237252" xlink:href="#m36c668923f" y="297.758586"/>
     <use style="fill:#1f77b4;stroke:#ffffff;stroke-width:0.48;" x="110.851269" xlink:href="#m36c668923f" y="281.526263"/>
     <use style="fill:#1f77b4;stroke:#ffffff;stroke-width:0.48;" x="147.258704" xlink:href="#m36c668923f" y="240.945455"/>
     <use style="fill:#1f77b4;stroke:#ffffff;stroke-width:0.48;" x="88.096623" xlink:href="#m36c668923f" y="305.874747"/>
     <use style="fill:#1f77b4;stroke:#ffffff;stroke-width:0.48;" x="99.140211" xlink:href="#m36c668923f" y="281.526263"/>
     <use style="fill:#1f77b4;stroke:#ffffff;stroke-width:0.48;" x="122.319611" xlink:href="#m36c668923f" y="281.526263"/>
     <use style="fill:#1f77b4;stroke:#ffffff;stroke-width:0.48;" x="133.545237" xlink:href="#m36c668923f" y="281.526263"/>
     <use style="fill:#1f77b4;stroke:#ffffff;stroke-width:0.48;" x="116.312384" xlink:href="#m36c668923f" y="257.177778"/>
     <use style="fill:#1f77b4;stroke:#ffffff;stroke-width:0.48;" x="142.465058" xlink:href="#m36c668923f" y="232.829293"/>
     <use style="fill:#1f77b4;stroke:#ffffff;stroke-width:0.48;" x="244.587911" xlink:href="#m36c668923f" y="128.942424"/>
     <use style="fill:#1f77b4;stroke:#ffffff;stroke-width:0.48;" x="286.395781" xlink:href="#m36c668923f" y="184.132323"/>
     <use style="fill:#1f77b4;stroke:#ffffff;stroke-width:0.48;" x="200.595595" xlink:href="#m36c668923f" y="184.132323"/>
     <use style="fill:#1f77b4;stroke:#ffffff;stroke-width:0.48;" x="136.154436" xlink:href="#m36c668923f" y="271.786869"/>
     <use style="fill:#1f77b4;stroke:#ffffff;stroke-width:0.48;" x="87.125758" xlink:href="#m36c668923f" y="297.758586"/>
     <use style="fill:#1f77b4;stroke:#ffffff;stroke-width:0.48;" x="149.564508" xlink:href="#m36c668923f" y="302.303636"/>
     <use style="fill:#1f77b4;stroke:#ffffff;stroke-width:0.48;" x="108.484786" xlink:href="#m36c668923f" y="293.538182"/>
     <use style="fill:#1f77b4;stroke:#ffffff;stroke-width:0.48;" x="95.802863" xlink:href="#m36c668923f" y="290.291717"/>
     <use style="fill:#1f77b4;stroke:#ffffff;stroke-width:0.48;" x="82.028717" xlink:href="#m36c668923f" y="281.526263"/>
     <use style="fill:#1f77b4;stroke:#ffffff;stroke-width:0.48;" x="121.834179" xlink:href="#m36c668923f" y="265.293939"/>
     <use style="fill:#1f77b4;stroke:#ffffff;stroke-width:0.48;" x="116.130347" xlink:href="#m36c668923f" y="281.526263"/>
     <use style="fill:#1f77b4;stroke:#ffffff;stroke-width:0.48;" x="141.190798" xlink:href="#m36c668923f" y="257.502424"/>
     <use style="fill:#1f77b4;stroke:#ffffff;stroke-width:0.48;" x="185.42583" xlink:href="#m36c668923f" y="281.526263"/>
     <use style="fill:#1f77b4;stroke:#ffffff;stroke-width:0.48;" x="156.421241" xlink:href="#m36c668923f" y="281.526263"/>
     <use style="fill:#1f77b4;stroke:#ffffff;stroke-width:0.48;" x="217.585731" xlink:href="#m36c668923f" y="179.587273"/>
     <use style="fill:#1f77b4;stroke:#ffffff;stroke-width:0.48;" x="328.749763" xlink:href="#m36c668923f" y="184.132323"/>
     <use style="fill:#1f77b4;stroke:#ffffff;stroke-width:0.48;" x="188.156388" xlink:href="#m36c668923f" y="224.713131"/>
     <use style="fill:#1f77b4;stroke:#ffffff;stroke-width:0.48;" x="117.708003" xlink:href="#m36c668923f" y="261.722828"/>
     <use style="fill:#1f77b4;stroke:#ffffff;stroke-width:0.48;" x="136.51851" xlink:href="#m36c668923f" y="281.526263"/>
     <use style="fill:#1f77b4;stroke:#ffffff;stroke-width:0.48;" x="166.918718" xlink:href="#m36c668923f" y="232.829293"/>
     <use style="fill:#1f77b4;stroke:#ffffff;stroke-width:0.48;" x="113.278432" xlink:href="#m36c668923f" y="265.293939"/>
     <use style="fill:#1f77b4;stroke:#ffffff;stroke-width:0.48;" x="134.819497" xlink:href="#m36c668923f" y="281.526263"/>
     <use style="fill:#1f77b4;stroke:#ffffff;stroke-width:0.48;" x="120.256523" xlink:href="#m36c668923f" y="281.526263"/>
     <use style="fill:#1f77b4;stroke:#ffffff;stroke-width:0.48;" x="142.707774" xlink:href="#m36c668923f" y="249.061616"/>
     <use style="fill:#1f77b4;stroke:#ffffff;stroke-width:0.48;" x="185.243793" xlink:href="#m36c668923f" y="233.478586"/>
     <use style="fill:#1f77b4;stroke:#ffffff;stroke-width:0.48;" x="162.428468" xlink:href="#m36c668923f" y="273.734747"/>
     <use style="fill:#1f77b4;stroke:#ffffff;stroke-width:0.48;" x="228.872035" xlink:href="#m36c668923f" y="200.364646"/>
     <use style="fill:#1f77b4;stroke:#ffffff;stroke-width:0.48;" x="100.717867" xlink:href="#m36c668923f" y="294.187475"/>
     <use style="fill:#1f77b4;stroke:#ffffff;stroke-width:0.48;" x="100.960583" xlink:href="#m36c668923f" y="281.526263"/>
     <use style="fill:#1f77b4;stroke:#ffffff;stroke-width:0.48;" x="344.769034" xlink:href="#m36c668923f" y="21.809091"/>
     <use style="fill:#1f77b4;stroke:#ffffff;stroke-width:0.48;" x="132.392335" xlink:href="#m36c668923f" y="243.867273"/>
     <use style="fill:#1f77b4;stroke:#ffffff;stroke-width:0.48;" x="80.451062" xlink:href="#m36c668923f" y="179.262626"/>
     <use style="fill:#1f77b4;stroke:#ffffff;stroke-width:0.48;" x="229.721542" xlink:href="#m36c668923f" y="243.21798"/>
     <use style="fill:#1f77b4;stroke:#ffffff;stroke-width:0.48;" x="138.520919" xlink:href="#m36c668923f" y="216.59697"/>
     <use style="fill:#1f77b4;stroke:#ffffff;stroke-width:0.48;" x="236.092843" xlink:href="#m36c668923f" y="245.490505"/>
     <use style="fill:#1f77b4;stroke:#ffffff;stroke-width:0.48;" x="145.013578" xlink:href="#m36c668923f" y="281.526263"/>
     <use style="fill:#1f77b4;stroke:#ffffff;stroke-width:0.48;" x="124.32202" xlink:href="#m36c668923f" y="281.526263"/>
     <use style="fill:#1f77b4;stroke:#ffffff;stroke-width:0.48;" x="94.71064" xlink:href="#m36c668923f" y="216.59697"/>
     <use style="fill:#1f77b4;stroke:#ffffff;stroke-width:0.48;" x="246.59032" xlink:href="#m36c668923f" y="231.206061"/>
     <use style="fill:#1f77b4;stroke:#ffffff;stroke-width:0.48;" x="246.711678" xlink:href="#m36c668923f" y="226.985657"/>
     <use style="fill:#1f77b4;stroke:#ffffff;stroke-width:0.48;" x="178.022985" xlink:href="#m36c668923f" y="163.030303"/>
     <use style="fill:#1f77b4;stroke:#ffffff;stroke-width:0.48;" x="311.638269" xlink:href="#m36c668923f" y="232.829293"/>
     <use style="fill:#1f77b4;stroke:#ffffff;stroke-width:0.48;" x="177.052121" xlink:href="#m36c668923f" y="135.435354"/>
     <use style="fill:#1f77b4;stroke:#ffffff;stroke-width:0.48;" x="282.512322" xlink:href="#m36c668923f" y="249.061616"/>
     <use style="fill:#1f77b4;stroke:#ffffff;stroke-width:0.48;" x="162.003714" xlink:href="#m36c668923f" y="184.132323"/>
     <use style="fill:#1f77b4;stroke:#ffffff;stroke-width:0.48;" x="163.277975" xlink:href="#m36c668923f" y="232.829293"/>
     <use style="fill:#1f77b4;stroke:#ffffff;stroke-width:0.48;" x="221.287153" xlink:href="#m36c668923f" y="281.526263"/>
     <use style="fill:#1f77b4;stroke:#ffffff;stroke-width:0.48;" x="146.591234" xlink:href="#m36c668923f" y="232.829293"/>
     <use style="fill:#1f77b4;stroke:#ffffff;stroke-width:0.48;" x="176.627367" xlink:href="#m36c668923f" y="216.59697"/>
     <use style="fill:#1f77b4;stroke:#ffffff;stroke-width:0.48;" x="131.664186" xlink:href="#m36c668923f" y="297.758586"/>
     <use style="fill:#1f77b4;stroke:#ffffff;stroke-width:0.48;" x="156.663957" xlink:href="#m36c668923f" y="210.428687"/>
     <use style="fill:#1f77b4;stroke:#ffffff;stroke-width:0.48;" x="209.029984" xlink:href="#m36c668923f" y="263.346061"/>
     <use style="fill:#1f77b4;stroke:#ffffff;stroke-width:0.48;" x="130.389926" xlink:href="#m36c668923f" y="280.87697"/>
     <use style="fill:#1f77b4;stroke:#ffffff;stroke-width:0.48;" x="137.064622" xlink:href="#m36c668923f" y="216.59697"/>
     <use style="fill:#1f77b4;stroke:#ffffff;stroke-width:0.48;" x="82.332113" xlink:href="#m36c668923f" y="299.706465"/>
     <use style="fill:#1f77b4;stroke:#ffffff;stroke-width:0.48;" x="99.20089" xlink:href="#m36c668923f" y="281.526263"/>
     <use style="fill:#1f77b4;stroke:#ffffff;stroke-width:0.48;" x="298.04616" xlink:href="#m36c668923f" y="184.132323"/>
     <use style="fill:#1f77b4;stroke:#ffffff;stroke-width:0.48;" x="115.34152" xlink:href="#m36c668923f" y="281.526263"/>
     <use style="fill:#1f77b4;stroke:#ffffff;stroke-width:0.48;" x="118.436151" xlink:href="#m36c668923f" y="281.526263"/>
     <use style="fill:#1f77b4;stroke:#ffffff;stroke-width:0.48;" x="149.989261" xlink:href="#m36c668923f" y="216.59697"/>
     <use style="fill:#1f77b4;stroke:#ffffff;stroke-width:0.48;" x="113.763864" xlink:href="#m36c668923f" y="281.201616"/>
     <use style="fill:#1f77b4;stroke:#ffffff;stroke-width:0.48;" x="115.34152" xlink:href="#m36c668923f" y="281.526263"/>
     <use style="fill:#1f77b4;stroke:#ffffff;stroke-width:0.48;" x="135.972399" xlink:href="#m36c668923f" y="265.293939"/>
     <use style="fill:#1f77b4;stroke:#ffffff;stroke-width:0.48;" x="161.032849" xlink:href="#m36c668923f" y="216.59697"/>
     <use style="fill:#1f77b4;stroke:#ffffff;stroke-width:0.48;" x="136.397152" xlink:href="#m36c668923f" y="241.594747"/>
     <use style="fill:#1f77b4;stroke:#ffffff;stroke-width:0.48;" x="197.804358" xlink:href="#m36c668923f" y="235.751111"/>
     <use style="fill:#1f77b4;stroke:#ffffff;stroke-width:0.48;" x="271.468733" xlink:href="#m36c668923f" y="249.061616"/>
     <use style="fill:#1f77b4;stroke:#ffffff;stroke-width:0.48;" x="183.726817" xlink:href="#m36c668923f" y="280.552323"/>
     <use style="fill:#1f77b4;stroke:#ffffff;stroke-width:0.48;" x="113.885222" xlink:href="#m36c668923f" y="274.059394"/>
     <use style="fill:#1f77b4;stroke:#ffffff;stroke-width:0.48;" x="218.859991" xlink:href="#m36c668923f" y="281.526263"/>
     <use style="fill:#1f77b4;stroke:#ffffff;stroke-width:0.48;" x="193.556824" xlink:href="#m36c668923f" y="178.93798"/>
     <use style="fill:#1f77b4;stroke:#ffffff;stroke-width:0.48;" x="329.720628" xlink:href="#m36c668923f" y="54.273737"/>
     <use style="fill:#1f77b4;stroke:#ffffff;stroke-width:0.48;" x="116.979854" xlink:href="#m36c668923f" y="265.293939"/>
     <use style="fill:#1f77b4;stroke:#ffffff;stroke-width:0.48;" x="207.391649" xlink:href="#m36c668923f" y="135.435354"/>
     <use style="fill:#1f77b4;stroke:#ffffff;stroke-width:0.48;" x="114.734729" xlink:href="#m36c668923f" y="310.744444"/>
     <use style="fill:#1f77b4;stroke:#ffffff;stroke-width:0.48;" x="207.270291" xlink:href="#m36c668923f" y="249.061616"/>
     <use style="fill:#1f77b4;stroke:#ffffff;stroke-width:0.48;" x="106.785772" xlink:href="#m36c668923f" y="297.758586"/>
     <use style="fill:#1f77b4;stroke:#ffffff;stroke-width:0.48;" x="83.424336" xlink:href="#m36c668923f" y="299.706465"/>
     <use style="fill:#1f77b4;stroke:#ffffff;stroke-width:0.48;" x="219.345423" xlink:href="#m36c668923f" y="246.139798"/>
     <use style="fill:#1f77b4;stroke:#ffffff;stroke-width:0.48;" x="110.244479" xlink:href="#m36c668923f" y="275.033333"/>
     <use style="fill:#1f77b4;stroke:#ffffff;stroke-width:0.48;" x="117.89004" xlink:href="#m36c668923f" y="233.478586"/>
     <use style="fill:#1f77b4;stroke:#ffffff;stroke-width:0.48;" x="88.521376" xlink:href="#m36c668923f" y="284.123434"/>
     <use style="fill:#1f77b4;stroke:#ffffff;stroke-width:0.48;" x="133.423879" xlink:href="#m36c668923f" y="249.061616"/>
     <use style="fill:#1f77b4;stroke:#ffffff;stroke-width:0.48;" x="117.89004" xlink:href="#m36c668923f" y="295.161414"/>
     <use style="fill:#1f77b4;stroke:#ffffff;stroke-width:0.48;" x="135.183571" xlink:href="#m36c668923f" y="265.293939"/>
     <use style="fill:#1f77b4;stroke:#ffffff;stroke-width:0.48;" x="97.683914" xlink:href="#m36c668923f" y="281.526263"/>
     <use style="fill:#1f77b4;stroke:#ffffff;stroke-width:0.48;" x="160.547417" xlink:href="#m36c668923f" y="249.061616"/>
     <use style="fill:#1f77b4;stroke:#ffffff;stroke-width:0.48;" x="117.040533" xlink:href="#m36c668923f" y="258.151717"/>
     <use style="fill:#1f77b4;stroke:#ffffff;stroke-width:0.48;" x="170.68082" xlink:href="#m36c668923f" y="252.957374"/>
     <use style="fill:#1f77b4;stroke:#ffffff;stroke-width:0.48;" x="182.149161" xlink:href="#m36c668923f" y="281.526263"/>
     <use style="fill:#1f77b4;stroke:#ffffff;stroke-width:0.48;" x="131.664186" xlink:href="#m36c668923f" y="249.061616"/>
     <use style="fill:#1f77b4;stroke:#ffffff;stroke-width:0.48;" x="106.907131" xlink:href="#m36c668923f" y="236.400404"/>
     <use style="fill:#1f77b4;stroke:#ffffff;stroke-width:0.48;" x="101.81009" xlink:href="#m36c668923f" y="298.732525"/>
     <use style="fill:#1f77b4;stroke:#ffffff;stroke-width:0.48;" x="130.693321" xlink:href="#m36c668923f" y="249.061616"/>
     <use style="fill:#1f77b4;stroke:#ffffff;stroke-width:0.48;" x="97.562556" xlink:href="#m36c668923f" y="305.874747"/>
     <use style="fill:#1f77b4;stroke:#ffffff;stroke-width:0.48;" x="112.914357" xlink:href="#m36c668923f" y="313.990909"/>
     <use style="fill:#1f77b4;stroke:#ffffff;stroke-width:0.48;" x="235.66809" xlink:href="#m36c668923f" y="308.471919"/>
     <use style="fill:#1f77b4;stroke:#ffffff;stroke-width:0.48;" x="253.871807" xlink:href="#m36c668923f" y="194.845657"/>
     <use style="fill:#1f77b4;stroke:#ffffff;stroke-width:0.48;" x="212.610048" xlink:href="#m36c668923f" y="154.264848"/>
     <use style="fill:#1f77b4;stroke:#ffffff;stroke-width:0.48;" x="201.384422" xlink:href="#m36c668923f" y="281.526263"/>
     <use style="fill:#1f77b4;stroke:#ffffff;stroke-width:0.48;" x="174.018168" xlink:href="#m36c668923f" y="281.526263"/>
     <use style="fill:#1f77b4;stroke:#ffffff;stroke-width:0.48;" x="144.588825" xlink:href="#m36c668923f" y="289.642424"/>
     <use style="fill:#1f77b4;stroke:#ffffff;stroke-width:0.48;" x="150.414014" xlink:href="#m36c668923f" y="249.061616"/>
    </g>
   </g>
   <g id="matplotlib.axis_1">
    <g id="xtick_1">
     <g id="line2d_1">
      <defs>
       <path d="M 0 0 
L 0 3.5 
" id="ma29df5b7e6" style="stroke:#000000;stroke-width:0.8;"/>
      </defs>
      <g>
       <use style="stroke:#000000;stroke-width:0.8;" x="97.137802" xlink:href="#ma29df5b7e6" y="328.6"/>
      </g>
     </g>
     <g id="text_1">
      <!-- 10 -->
      <defs>
       <path d="M 12.40625 8.296875 
L 28.515625 8.296875 
L 28.515625 63.921875 
L 10.984375 60.40625 
L 10.984375 69.390625 
L 28.421875 72.90625 
L 38.28125 72.90625 
L 38.28125 8.296875 
L 54.390625 8.296875 
L 54.390625 0 
L 12.40625 0 
z
" id="DejaVuSans-49"/>
       <path d="M 31.78125 66.40625 
Q 24.171875 66.40625 20.328125 58.90625 
Q 16.5 51.421875 16.5 36.375 
Q 16.5 21.390625 20.328125 13.890625 
Q 24.171875 6.390625 31.78125 6.390625 
Q 39.453125 6.390625 43.28125 13.890625 
Q 47.125 21.390625 47.125 36.375 
Q 47.125 51.421875 43.28125 58.90625 
Q 39.453125 66.40625 31.78125 66.40625 
z
M 31.78125 74.21875 
Q 44.046875 74.21875 50.515625 64.515625 
Q 56.984375 54.828125 56.984375 36.375 
Q 56.984375 17.96875 50.515625 8.265625 
Q 44.046875 -1.421875 31.78125 -1.421875 
Q 19.53125 -1.421875 13.0625 8.265625 
Q 6.59375 17.96875 6.59375 36.375 
Q 6.59375 54.828125 13.0625 64.515625 
Q 19.53125 74.21875 31.78125 74.21875 
z
" id="DejaVuSans-48"/>
      </defs>
      <g transform="translate(90.775302 343.198438)scale(0.1 -0.1)">
       <use xlink:href="#DejaVuSans-49"/>
       <use x="63.623047" xlink:href="#DejaVuSans-48"/>
      </g>
     </g>
    </g>
    <g id="xtick_2">
     <g id="line2d_2">
      <g>
       <use style="stroke:#000000;stroke-width:0.8;" x="157.816859" xlink:href="#ma29df5b7e6" y="328.6"/>
      </g>
     </g>
     <g id="text_2">
      <!-- 20 -->
      <defs>
       <path d="M 19.1875 8.296875 
L 53.609375 8.296875 
L 53.609375 0 
L 7.328125 0 
L 7.328125 8.296875 
Q 12.9375 14.109375 22.625 23.890625 
Q 32.328125 33.6875 34.8125 36.53125 
Q 39.546875 41.84375 41.421875 45.53125 
Q 43.3125 49.21875 43.3125 52.78125 
Q 43.3125 58.59375 39.234375 62.25 
Q 35.15625 65.921875 28.609375 65.921875 
Q 23.96875 65.921875 18.8125 64.3125 
Q 13.671875 62.703125 7.8125 59.421875 
L 7.8125 69.390625 
Q 13.765625 71.78125 18.9375 73 
Q 24.125 74.21875 28.421875 74.21875 
Q 39.75 74.21875 46.484375 68.546875 
Q 53.21875 62.890625 53.21875 53.421875 
Q 53.21875 48.921875 51.53125 44.890625 
Q 49.859375 40.875 45.40625 35.40625 
Q 44.1875 33.984375 37.640625 27.21875 
Q 31.109375 20.453125 19.1875 8.296875 
z
" id="DejaVuSans-50"/>
      </defs>
      <g transform="translate(151.454359 343.198438)scale(0.1 -0.1)">
       <use xlink:href="#DejaVuSans-50"/>
       <use x="63.623047" xlink:href="#DejaVuSans-48"/>
      </g>
     </g>
    </g>
    <g id="xtick_3">
     <g id="line2d_3">
      <g>
       <use style="stroke:#000000;stroke-width:0.8;" x="218.495916" xlink:href="#ma29df5b7e6" y="328.6"/>
      </g>
     </g>
     <g id="text_3">
      <!-- 30 -->
      <defs>
       <path d="M 40.578125 39.3125 
Q 47.65625 37.796875 51.625 33 
Q 55.609375 28.21875 55.609375 21.1875 
Q 55.609375 10.40625 48.1875 4.484375 
Q 40.765625 -1.421875 27.09375 -1.421875 
Q 22.515625 -1.421875 17.65625 -0.515625 
Q 12.796875 0.390625 7.625 2.203125 
L 7.625 11.71875 
Q 11.71875 9.328125 16.59375 8.109375 
Q 21.484375 6.890625 26.8125 6.890625 
Q 36.078125 6.890625 40.9375 10.546875 
Q 45.796875 14.203125 45.796875 21.1875 
Q 45.796875 27.640625 41.28125 31.265625 
Q 36.765625 34.90625 28.71875 34.90625 
L 20.21875 34.90625 
L 20.21875 43.015625 
L 29.109375 43.015625 
Q 36.375 43.015625 40.234375 45.921875 
Q 44.09375 48.828125 44.09375 54.296875 
Q 44.09375 59.90625 40.109375 62.90625 
Q 36.140625 65.921875 28.71875 65.921875 
Q 24.65625 65.921875 20.015625 65.03125 
Q 15.375 64.15625 9.8125 62.3125 
L 9.8125 71.09375 
Q 15.4375 72.65625 20.34375 73.4375 
Q 25.25 74.21875 29.59375 74.21875 
Q 40.828125 74.21875 47.359375 69.109375 
Q 53.90625 64.015625 53.90625 55.328125 
Q 53.90625 49.265625 50.4375 45.09375 
Q 46.96875 40.921875 40.578125 39.3125 
z
" id="DejaVuSans-51"/>
      </defs>
      <g transform="translate(212.133416 343.198438)scale(0.1 -0.1)">
       <use xlink:href="#DejaVuSans-51"/>
       <use x="63.623047" xlink:href="#DejaVuSans-48"/>
      </g>
     </g>
    </g>
    <g id="xtick_4">
     <g id="line2d_4">
      <g>
       <use style="stroke:#000000;stroke-width:0.8;" x="279.174973" xlink:href="#ma29df5b7e6" y="328.6"/>
      </g>
     </g>
     <g id="text_4">
      <!-- 40 -->
      <defs>
       <path d="M 37.796875 64.3125 
L 12.890625 25.390625 
L 37.796875 25.390625 
z
M 35.203125 72.90625 
L 47.609375 72.90625 
L 47.609375 25.390625 
L 58.015625 25.390625 
L 58.015625 17.1875 
L 47.609375 17.1875 
L 47.609375 0 
L 37.796875 0 
L 37.796875 17.1875 
L 4.890625 17.1875 
L 4.890625 26.703125 
z
" id="DejaVuSans-52"/>
      </defs>
      <g transform="translate(272.812473 343.198438)scale(0.1 -0.1)">
       <use xlink:href="#DejaVuSans-52"/>
       <use x="63.623047" xlink:href="#DejaVuSans-48"/>
      </g>
     </g>
    </g>
    <g id="xtick_5">
     <g id="line2d_5">
      <g>
       <use style="stroke:#000000;stroke-width:0.8;" x="339.85403" xlink:href="#ma29df5b7e6" y="328.6"/>
      </g>
     </g>
     <g id="text_5">
      <!-- 50 -->
      <defs>
       <path d="M 10.796875 72.90625 
L 49.515625 72.90625 
L 49.515625 64.59375 
L 19.828125 64.59375 
L 19.828125 46.734375 
Q 21.96875 47.46875 24.109375 47.828125 
Q 26.265625 48.1875 28.421875 48.1875 
Q 40.625 48.1875 47.75 41.5 
Q 54.890625 34.8125 54.890625 23.390625 
Q 54.890625 11.625 47.5625 5.09375 
Q 40.234375 -1.421875 26.90625 -1.421875 
Q 22.3125 -1.421875 17.546875 -0.640625 
Q 12.796875 0.140625 7.71875 1.703125 
L 7.71875 11.625 
Q 12.109375 9.234375 16.796875 8.0625 
Q 21.484375 6.890625 26.703125 6.890625 
Q 35.15625 6.890625 40.078125 11.328125 
Q 45.015625 15.765625 45.015625 23.390625 
Q 45.015625 31 40.078125 35.4375 
Q 35.15625 39.890625 26.703125 39.890625 
Q 22.75 39.890625 18.8125 39.015625 
Q 14.890625 38.140625 10.796875 36.28125 
z
" id="DejaVuSans-53"/>
      </defs>
      <g transform="translate(333.49153 343.198438)scale(0.1 -0.1)">
       <use xlink:href="#DejaVuSans-53"/>
       <use x="63.623047" xlink:href="#DejaVuSans-48"/>
      </g>
     </g>
    </g>
    <g id="text_6">
     <!-- total_bill -->
     <defs>
      <path d="M 18.3125 70.21875 
L 18.3125 54.6875 
L 36.8125 54.6875 
L 36.8125 47.703125 
L 18.3125 47.703125 
L 18.3125 18.015625 
Q 18.3125 11.328125 20.140625 9.421875 
Q 21.96875 7.515625 27.59375 7.515625 
L 36.8125 7.515625 
L 36.8125 0 
L 27.59375 0 
Q 17.1875 0 13.234375 3.875 
Q 9.28125 7.765625 9.28125 18.015625 
L 9.28125 47.703125 
L 2.6875 47.703125 
L 2.6875 54.6875 
L 9.28125 54.6875 
L 9.28125 70.21875 
z
" id="DejaVuSans-116"/>
      <path d="M 30.609375 48.390625 
Q 23.390625 48.390625 19.1875 42.75 
Q 14.984375 37.109375 14.984375 27.296875 
Q 14.984375 17.484375 19.15625 11.84375 
Q 23.34375 6.203125 30.609375 6.203125 
Q 37.796875 6.203125 41.984375 11.859375 
Q 46.1875 17.53125 46.1875 27.296875 
Q 46.1875 37.015625 41.984375 42.703125 
Q 37.796875 48.390625 30.609375 48.390625 
z
M 30.609375 56 
Q 42.328125 56 49.015625 48.375 
Q 55.71875 40.765625 55.71875 27.296875 
Q 55.71875 13.875 49.015625 6.21875 
Q 42.328125 -1.421875 30.609375 -1.421875 
Q 18.84375 -1.421875 12.171875 6.21875 
Q 5.515625 13.875 5.515625 27.296875 
Q 5.515625 40.765625 12.171875 48.375 
Q 18.84375 56 30.609375 56 
z
" id="DejaVuSans-111"/>
      <path d="M 34.28125 27.484375 
Q 23.390625 27.484375 19.1875 25 
Q 14.984375 22.515625 14.984375 16.5 
Q 14.984375 11.71875 18.140625 8.90625 
Q 21.296875 6.109375 26.703125 6.109375 
Q 34.1875 6.109375 38.703125 11.40625 
Q 43.21875 16.703125 43.21875 25.484375 
L 43.21875 27.484375 
z
M 52.203125 31.203125 
L 52.203125 0 
L 43.21875 0 
L 43.21875 8.296875 
Q 40.140625 3.328125 35.546875 0.953125 
Q 30.953125 -1.421875 24.3125 -1.421875 
Q 15.921875 -1.421875 10.953125 3.296875 
Q 6 8.015625 6 15.921875 
Q 6 25.140625 12.171875 29.828125 
Q 18.359375 34.515625 30.609375 34.515625 
L 43.21875 34.515625 
L 43.21875 35.40625 
Q 43.21875 41.609375 39.140625 45 
Q 35.0625 48.390625 27.6875 48.390625 
Q 23 48.390625 18.546875 47.265625 
Q 14.109375 46.140625 10.015625 43.890625 
L 10.015625 52.203125 
Q 14.9375 54.109375 19.578125 55.046875 
Q 24.21875 56 28.609375 56 
Q 40.484375 56 46.34375 49.84375 
Q 52.203125 43.703125 52.203125 31.203125 
z
" id="DejaVuSans-97"/>
      <path d="M 9.421875 75.984375 
L 18.40625 75.984375 
L 18.40625 0 
L 9.421875 0 
z
" id="DejaVuSans-108"/>
      <path d="M 50.984375 -16.609375 
L 50.984375 -23.578125 
L -0.984375 -23.578125 
L -0.984375 -16.609375 
z
" id="DejaVuSans-95"/>
      <path d="M 48.6875 27.296875 
Q 48.6875 37.203125 44.609375 42.84375 
Q 40.53125 48.484375 33.40625 48.484375 
Q 26.265625 48.484375 22.1875 42.84375 
Q 18.109375 37.203125 18.109375 27.296875 
Q 18.109375 17.390625 22.1875 11.75 
Q 26.265625 6.109375 33.40625 6.109375 
Q 40.53125 6.109375 44.609375 11.75 
Q 48.6875 17.390625 48.6875 27.296875 
z
M 18.109375 46.390625 
Q 20.953125 51.265625 25.265625 53.625 
Q 29.59375 56 35.59375 56 
Q 45.5625 56 51.78125 48.09375 
Q 58.015625 40.1875 58.015625 27.296875 
Q 58.015625 14.40625 51.78125 6.484375 
Q 45.5625 -1.421875 35.59375 -1.421875 
Q 29.59375 -1.421875 25.265625 0.953125 
Q 20.953125 3.328125 18.109375 8.203125 
L 18.109375 0 
L 9.078125 0 
L 9.078125 75.984375 
L 18.109375 75.984375 
z
" id="DejaVuSans-98"/>
      <path d="M 9.421875 54.6875 
L 18.40625 54.6875 
L 18.40625 0 
L 9.421875 0 
z
M 9.421875 75.984375 
L 18.40625 75.984375 
L 18.40625 64.59375 
L 9.421875 64.59375 
z
" id="DejaVuSans-105"/>
     </defs>
     <g transform="translate(178.653906 356.876562)scale(0.1 -0.1)">
      <use xlink:href="#DejaVuSans-116"/>
      <use x="39.208984" xlink:href="#DejaVuSans-111"/>
      <use x="100.390625" xlink:href="#DejaVuSans-116"/>
      <use x="139.599609" xlink:href="#DejaVuSans-97"/>
      <use x="200.878906" xlink:href="#DejaVuSans-108"/>
      <use x="228.662109" xlink:href="#DejaVuSans-95"/>
      <use x="278.662109" xlink:href="#DejaVuSans-98"/>
      <use x="342.138672" xlink:href="#DejaVuSans-105"/>
      <use x="369.921875" xlink:href="#DejaVuSans-108"/>
      <use x="397.705078" xlink:href="#DejaVuSans-108"/>
     </g>
    </g>
   </g>
   <g id="matplotlib.axis_2">
    <g id="ytick_1">
     <g id="line2d_6">
      <defs>
       <path d="M 0 0 
L -3.5 0 
" id="m9126601df7" style="stroke:#000000;stroke-width:0.8;"/>
      </defs>
      <g>
       <use style="stroke:#000000;stroke-width:0.8;" x="40.603125" xlink:href="#m9126601df7" y="281.526263"/>
      </g>
     </g>
     <g id="text_7">
      <!-- 2 -->
      <g transform="translate(27.240625 285.325481)scale(0.1 -0.1)">
       <use xlink:href="#DejaVuSans-50"/>
      </g>
     </g>
    </g>
    <g id="ytick_2">
     <g id="line2d_7">
      <g>
       <use style="stroke:#000000;stroke-width:0.8;" x="40.603125" xlink:href="#m9126601df7" y="216.59697"/>
      </g>
     </g>
     <g id="text_8">
      <!-- 4 -->
      <g transform="translate(27.240625 220.396188)scale(0.1 -0.1)">
       <use xlink:href="#DejaVuSans-52"/>
      </g>
     </g>
    </g>
    <g id="ytick_3">
     <g id="line2d_8">
      <g>
       <use style="stroke:#000000;stroke-width:0.8;" x="40.603125" xlink:href="#m9126601df7" y="151.667677"/>
      </g>
     </g>
     <g id="text_9">
      <!-- 6 -->
      <defs>
       <path d="M 33.015625 40.375 
Q 26.375 40.375 22.484375 35.828125 
Q 18.609375 31.296875 18.609375 23.390625 
Q 18.609375 15.53125 22.484375 10.953125 
Q 26.375 6.390625 33.015625 6.390625 
Q 39.65625 6.390625 43.53125 10.953125 
Q 47.40625 15.53125 47.40625 23.390625 
Q 47.40625 31.296875 43.53125 35.828125 
Q 39.65625 40.375 33.015625 40.375 
z
M 52.59375 71.296875 
L 52.59375 62.3125 
Q 48.875 64.0625 45.09375 64.984375 
Q 41.3125 65.921875 37.59375 65.921875 
Q 27.828125 65.921875 22.671875 59.328125 
Q 17.53125 52.734375 16.796875 39.40625 
Q 19.671875 43.65625 24.015625 45.921875 
Q 28.375 48.1875 33.59375 48.1875 
Q 44.578125 48.1875 50.953125 41.515625 
Q 57.328125 34.859375 57.328125 23.390625 
Q 57.328125 12.15625 50.6875 5.359375 
Q 44.046875 -1.421875 33.015625 -1.421875 
Q 20.359375 -1.421875 13.671875 8.265625 
Q 6.984375 17.96875 6.984375 36.375 
Q 6.984375 53.65625 15.1875 63.9375 
Q 23.390625 74.21875 37.203125 74.21875 
Q 40.921875 74.21875 44.703125 73.484375 
Q 48.484375 72.75 52.59375 71.296875 
z
" id="DejaVuSans-54"/>
      </defs>
      <g transform="translate(27.240625 155.466896)scale(0.1 -0.1)">
       <use xlink:href="#DejaVuSans-54"/>
      </g>
     </g>
    </g>
    <g id="ytick_4">
     <g id="line2d_9">
      <g>
       <use style="stroke:#000000;stroke-width:0.8;" x="40.603125" xlink:href="#m9126601df7" y="86.738384"/>
      </g>
     </g>
     <g id="text_10">
      <!-- 8 -->
      <defs>
       <path d="M 31.78125 34.625 
Q 24.75 34.625 20.71875 30.859375 
Q 16.703125 27.09375 16.703125 20.515625 
Q 16.703125 13.921875 20.71875 10.15625 
Q 24.75 6.390625 31.78125 6.390625 
Q 38.8125 6.390625 42.859375 10.171875 
Q 46.921875 13.96875 46.921875 20.515625 
Q 46.921875 27.09375 42.890625 30.859375 
Q 38.875 34.625 31.78125 34.625 
z
M 21.921875 38.8125 
Q 15.578125 40.375 12.03125 44.71875 
Q 8.5 49.078125 8.5 55.328125 
Q 8.5 64.0625 14.71875 69.140625 
Q 20.953125 74.21875 31.78125 74.21875 
Q 42.671875 74.21875 48.875 69.140625 
Q 55.078125 64.0625 55.078125 55.328125 
Q 55.078125 49.078125 51.53125 44.71875 
Q 48 40.375 41.703125 38.8125 
Q 48.828125 37.15625 52.796875 32.3125 
Q 56.78125 27.484375 56.78125 20.515625 
Q 56.78125 9.90625 50.3125 4.234375 
Q 43.84375 -1.421875 31.78125 -1.421875 
Q 19.734375 -1.421875 13.25 4.234375 
Q 6.78125 9.90625 6.78125 20.515625 
Q 6.78125 27.484375 10.78125 32.3125 
Q 14.796875 37.15625 21.921875 38.8125 
z
M 18.3125 54.390625 
Q 18.3125 48.734375 21.84375 45.5625 
Q 25.390625 42.390625 31.78125 42.390625 
Q 38.140625 42.390625 41.71875 45.5625 
Q 45.3125 48.734375 45.3125 54.390625 
Q 45.3125 60.0625 41.71875 63.234375 
Q 38.140625 66.40625 31.78125 66.40625 
Q 25.390625 66.40625 21.84375 63.234375 
Q 18.3125 60.0625 18.3125 54.390625 
z
" id="DejaVuSans-56"/>
      </defs>
      <g transform="translate(27.240625 90.537603)scale(0.1 -0.1)">
       <use xlink:href="#DejaVuSans-56"/>
      </g>
     </g>
    </g>
    <g id="ytick_5">
     <g id="line2d_10">
      <g>
       <use style="stroke:#000000;stroke-width:0.8;" x="40.603125" xlink:href="#m9126601df7" y="21.809091"/>
      </g>
     </g>
     <g id="text_11">
      <!-- 10 -->
      <g transform="translate(20.878125 25.60831)scale(0.1 -0.1)">
       <use xlink:href="#DejaVuSans-49"/>
       <use x="63.623047" xlink:href="#DejaVuSans-48"/>
      </g>
     </g>
    </g>
    <g id="text_12">
     <!-- tip -->
     <defs>
      <path d="M 18.109375 8.203125 
L 18.109375 -20.796875 
L 9.078125 -20.796875 
L 9.078125 54.6875 
L 18.109375 54.6875 
L 18.109375 46.390625 
Q 20.953125 51.265625 25.265625 53.625 
Q 29.59375 56 35.59375 56 
Q 45.5625 56 51.78125 48.09375 
Q 58.015625 40.1875 58.015625 27.296875 
Q 58.015625 14.40625 51.78125 6.484375 
Q 45.5625 -1.421875 35.59375 -1.421875 
Q 29.59375 -1.421875 25.265625 0.953125 
Q 20.953125 3.328125 18.109375 8.203125 
z
M 48.6875 27.296875 
Q 48.6875 37.203125 44.609375 42.84375 
Q 40.53125 48.484375 33.40625 48.484375 
Q 26.265625 48.484375 22.1875 42.84375 
Q 18.109375 37.203125 18.109375 27.296875 
Q 18.109375 17.390625 22.1875 11.75 
Q 26.265625 6.109375 33.40625 6.109375 
Q 40.53125 6.109375 44.609375 11.75 
Q 48.6875 17.390625 48.6875 27.296875 
z
" id="DejaVuSans-112"/>
     </defs>
     <g transform="translate(14.798438 174.423438)rotate(-90)scale(0.1 -0.1)">
      <use xlink:href="#DejaVuSans-116"/>
      <use x="39.208984" xlink:href="#DejaVuSans-105"/>
      <use x="66.992188" xlink:href="#DejaVuSans-112"/>
     </g>
    </g>
   </g>
   <g id="patch_3">
    <path d="M 40.603125 328.6 
L 40.603125 7.2 
" style="fill:none;stroke:#000000;stroke-linecap:square;stroke-linejoin:miter;stroke-width:0.8;"/>
   </g>
   <g id="patch_4">
    <path d="M 40.603125 328.6 
L 359.253125 328.6 
" style="fill:none;stroke:#000000;stroke-linecap:square;stroke-linejoin:miter;stroke-width:0.8;"/>
   </g>
  </g>
 </g>
 <defs>
  <clipPath id="p37db8192f5">
   <rect height="321.4" width="318.65" x="40.603125" y="7.2"/>
  </clipPath>
 </defs>
</svg>
