<?xml version="1.0" encoding="utf-8" standalone="no"?>
<!DOCTYPE svg PUBLIC "-//W3C//DTD SVG 1.1//EN"
  "http://www.w3.org/Graphics/SVG/1.1/DTD/svg11.dtd">
<!-- Created with matplotlib (https://matplotlib.org/) -->
<svg height="366.15625pt" version="1.1" viewBox="0 0 436.247795 366.15625" width="436.247795pt" xmlns="http://www.w3.org/2000/svg" xmlns:xlink="http://www.w3.org/1999/xlink">
 <defs>
  <style type="text/css">
*{stroke-linecap:butt;stroke-linejoin:round;}
  </style>
 </defs>
 <g id="figure_1">
  <g id="patch_1">
   <path d="M 0 366.15625 
L 436.247795 366.15625 
L 436.247795 0 
L 0 0 
z
" style="fill:none;"/>
  </g>
  <g id="axes_1">
   <g id="patch_2">
    <path d="M 40.88125 328.6 
L 360.126545 328.6 
L 360.126545 7.2 
L 40.88125 7.2 
z
" style="fill:#ffffff;"/>
   </g>
   <g id="PolyCollection_1">
    <defs>
     <path d="M 89.714452 -70.794423 
L 87.821636 -70.794423 
L 87.523202 -73.135159 
L 87.153652 -75.475896 
L 86.703415 -77.816632 
L 86.163672 -80.157369 
L 85.526946 -82.498105 
L 84.787692 -84.838842 
L 83.942836 -87.179578 
L 82.99221 -89.520315 
L 81.938816 -91.861051 
L 80.788898 -94.201788 
L 79.551777 -96.542524 
L 78.239465 -98.883261 
L 76.866087 -101.223997 
L 75.447159 -103.564734 
L 73.998804 -105.90547 
L 72.536994 -108.246207 
L 71.076894 -110.586943 
L 69.632393 -112.927679 
L 68.215871 -115.268416 
L 66.838211 -117.609152 
L 65.509041 -119.949889 
L 64.23717 -122.290625 
L 63.031117 -124.631362 
L 61.899652 -126.972098 
L 60.852262 -129.312835 
L 59.899433 -131.653571 
L 59.052711 -133.994308 
L 58.3245 -136.335044 
L 57.727597 -138.675781 
L 57.274521 -141.016517 
L 56.976684 -143.357254 
L 56.843515 -145.69799 
L 56.881607 -148.038727 
L 57.094006 -150.379463 
L 57.479692 -152.7202 
L 58.033323 -155.060936 
L 58.745263 -157.401672 
L 59.601878 -159.742409 
L 60.586087 -162.083145 
L 61.678092 -164.423882 
L 62.856249 -166.764618 
L 64.097983 -169.105355 
L 65.380698 -171.446091 
L 66.682603 -173.786828 
L 67.983431 -176.127564 
L 69.264994 -178.468301 
L 70.51158 -180.809037 
L 71.710171 -183.149774 
L 72.850516 -185.49051 
L 73.925058 -187.831247 
L 74.928761 -190.171983 
L 75.858855 -192.51272 
L 76.714549 -194.853456 
L 77.496721 -197.194193 
L 78.207632 -199.534929 
L 78.850666 -201.875665 
L 79.430117 -204.216402 
L 79.951013 -206.557138 
L 80.418973 -208.897875 
L 80.840071 -211.238611 
L 81.220706 -213.579348 
L 81.567437 -215.920084 
L 81.886784 -218.260821 
L 82.184994 -220.601557 
L 82.467776 -222.942294 
L 82.740035 -225.28303 
L 83.005626 -227.623767 
L 83.26718 -229.964503 
L 83.526015 -232.30524 
L 83.782172 -234.645976 
L 84.034577 -236.986713 
L 84.281317 -239.327449 
L 84.520011 -241.668186 
L 84.748225 -244.008922 
L 84.963884 -246.349658 
L 85.165626 -248.690395 
L 85.353051 -251.031131 
L 85.526837 -253.371868 
L 85.688702 -255.712604 
L 85.841229 -258.053341 
L 85.987577 -260.394077 
L 86.131113 -262.734814 
L 86.275028 -265.07555 
L 86.421983 -267.416287 
L 86.573823 -269.757023 
L 86.731398 -272.09776 
L 86.894507 -274.438496 
L 87.061957 -276.779233 
L 87.231727 -279.119969 
L 87.40121 -281.460706 
L 87.567484 -283.801442 
L 87.727602 -286.142179 
L 87.878847 -288.482915 
L 88.018932 -290.823651 
L 88.146144 -293.164388 
L 88.259414 -295.505124 
L 88.358312 -297.845861 
L 88.443002 -300.186597 
L 88.514145 -302.527334 
L 89.021944 -302.527334 
L 89.021944 -302.527334 
L 89.093087 -300.186597 
L 89.177777 -297.845861 
L 89.276675 -295.505124 
L 89.389944 -293.164388 
L 89.517157 -290.823651 
L 89.657242 -288.482915 
L 89.808486 -286.142179 
L 89.968605 -283.801442 
L 90.134879 -281.460706 
L 90.304361 -279.119969 
L 90.474132 -276.779233 
L 90.641582 -274.438496 
L 90.80469 -272.09776 
L 90.962266 -269.757023 
L 91.114106 -267.416287 
L 91.261061 -265.07555 
L 91.404976 -262.734814 
L 91.548511 -260.394077 
L 91.694859 -258.053341 
L 91.847387 -255.712604 
L 92.009252 -253.371868 
L 92.183038 -251.031131 
L 92.370463 -248.690395 
L 92.572205 -246.349658 
L 92.787864 -244.008922 
L 93.016078 -241.668186 
L 93.254772 -239.327449 
L 93.501512 -236.986713 
L 93.753917 -234.645976 
L 94.010074 -232.30524 
L 94.268909 -229.964503 
L 94.530463 -227.623767 
L 94.796054 -225.28303 
L 95.068312 -222.942294 
L 95.351095 -220.601557 
L 95.649304 -218.260821 
L 95.968651 -215.920084 
L 96.315382 -213.579348 
L 96.696018 -211.238611 
L 97.117116 -208.897875 
L 97.585075 -206.557138 
L 98.105972 -204.216402 
L 98.685423 -201.875665 
L 99.328457 -199.534929 
L 100.039367 -197.194193 
L 100.821539 -194.853456 
L 101.677233 -192.51272 
L 102.607328 -190.171983 
L 103.61103 -187.831247 
L 104.685572 -185.49051 
L 105.825917 -183.149774 
L 107.024509 -180.809037 
L 108.271094 -178.468301 
L 109.552658 -176.127564 
L 110.853486 -173.786828 
L 112.155391 -171.446091 
L 113.438105 -169.105355 
L 114.67984 -166.764618 
L 115.857997 -164.423882 
L 116.950002 -162.083145 
L 117.93421 -159.742409 
L 118.790826 -157.401672 
L 119.502766 -155.060936 
L 120.056397 -152.7202 
L 120.442082 -150.379463 
L 120.654481 -148.038727 
L 120.692574 -145.69799 
L 120.559404 -143.357254 
L 120.261568 -141.016517 
L 119.808491 -138.675781 
L 119.211589 -136.335044 
L 118.483377 -133.994308 
L 117.636656 -131.653571 
L 116.683827 -129.312835 
L 115.636436 -126.972098 
L 114.504972 -124.631362 
L 113.298918 -122.290625 
L 112.027048 -119.949889 
L 110.697878 -117.609152 
L 109.320217 -115.268416 
L 107.903696 -112.927679 
L 106.459195 -110.586943 
L 104.999094 -108.246207 
L 103.537284 -105.90547 
L 102.08893 -103.564734 
L 100.670002 -101.223997 
L 99.296623 -98.883261 
L 97.984311 -96.542524 
L 96.74719 -94.201788 
L 95.597272 -91.861051 
L 94.543879 -89.520315 
L 93.593252 -87.179578 
L 92.748397 -84.838842 
L 92.009143 -82.498105 
L 91.372417 -80.157369 
L 90.832674 -77.816632 
L 90.382437 -75.475896 
L 90.012887 -73.135159 
L 89.714452 -70.794423 
z
" id="m4c7c6987e6" style="stroke:#3f3f3f;stroke-width:1.5;"/>
    </defs>
    <g clip-path="url(#pb21f80dc57)">
     <use style="fill:#3274a1;stroke:#3f3f3f;stroke-width:1.5;" x="0" xlink:href="#m4c7c6987e6" y="366.15625"/>
    </g>
   </g>
   <g id="PolyCollection_2">
    <defs>
     <path d="M 152.895379 -72.802681 
L 152.338828 -72.802681 
L 152.206039 -75.545554 
L 152.022284 -78.288428 
L 151.773677 -81.031301 
L 151.444786 -83.774175 
L 151.019264 -86.517048 
L 150.48077 -89.259922 
L 149.814143 -92.002795 
L 149.006763 -94.745669 
L 148.049978 -97.488542 
L 146.940446 -100.231416 
L 145.681206 -102.974289 
L 144.282332 -105.717163 
L 142.761014 -108.460036 
L 141.141003 -111.20291 
L 139.451448 -113.945783 
L 137.725213 -116.688657 
L 135.99688 -119.43153 
L 134.300675 -122.174404 
L 132.668579 -124.917277 
L 131.128842 -127.660151 
L 129.70507 -130.403025 
L 128.415913 -133.145898 
L 127.275308 -135.888772 
L 126.293124 -138.631645 
L 125.475994 -141.374519 
L 124.828133 -144.117392 
L 124.351943 -146.860266 
L 124.048326 -149.603139 
L 123.916681 -152.346013 
L 123.95465 -155.088886 
L 124.157745 -157.83176 
L 124.518995 -160.574633 
L 125.028724 -163.317507 
L 125.674535 -166.06038 
L 126.441503 -168.803254 
L 127.31254 -171.546127 
L 128.268872 -174.289001 
L 129.290553 -177.031874 
L 130.356995 -179.774748 
L 131.447516 -182.517621 
L 132.541933 -185.260495 
L 133.621249 -188.003368 
L 134.668433 -190.746242 
L 135.669289 -193.489115 
L 136.613292 -196.231989 
L 137.494271 -198.974863 
L 138.31077 -201.717736 
L 139.065941 -204.46061 
L 139.766903 -207.203483 
L 140.423579 -209.946357 
L 141.047138 -212.68923 
L 141.648267 -215.432104 
L 142.235544 -218.174977 
L 142.814199 -220.917851 
L 143.385467 -223.660724 
L 143.946667 -226.403598 
L 144.491992 -229.146471 
L 145.013842 -231.889345 
L 145.504482 -234.632218 
L 145.957668 -237.375092 
L 146.369956 -240.117965 
L 146.741427 -242.860839 
L 147.075692 -245.603712 
L 147.379196 -248.346586 
L 147.659946 -251.089459 
L 147.92594 -253.832333 
L 148.183616 -256.575206 
L 148.436622 -259.31808 
L 148.685152 -262.060953 
L 148.925984 -264.803827 
L 149.153189 -267.546701 
L 149.35938 -270.289574 
L 149.537254 -273.032448 
L 149.681142 -275.775321 
L 149.788293 -278.518195 
L 149.859671 -281.261068 
L 149.900147 -284.003942 
L 149.918079 -286.746815 
L 149.924354 -289.489689 
L 149.931075 -292.232562 
L 149.950095 -294.975436 
L 149.991633 -297.718309 
L 150.063152 -300.461183 
L 150.168644 -303.204056 
L 150.308396 -305.94693 
L 150.479219 -308.689803 
L 150.67507 -311.432677 
L 150.887944 -314.17555 
L 151.108888 -316.918424 
L 151.328993 -319.661297 
L 151.540232 -322.404171 
L 151.736084 -325.147044 
L 151.911874 -327.889918 
L 152.064872 -330.632791 
L 152.194152 -333.375665 
L 152.300314 -336.118539 
L 152.385099 -338.861412 
L 152.45099 -341.604286 
L 152.500845 -344.347159 
L 152.733361 -344.347159 
L 152.733361 -344.347159 
L 152.783216 -341.604286 
L 152.849108 -338.861412 
L 152.933892 -336.118539 
L 153.040054 -333.375665 
L 153.169335 -330.632791 
L 153.322332 -327.889918 
L 153.498123 -325.147044 
L 153.693974 -322.404171 
L 153.905214 -319.661297 
L 154.125318 -316.918424 
L 154.346263 -314.17555 
L 154.559137 -311.432677 
L 154.754988 -308.689803 
L 154.925811 -305.94693 
L 155.065563 -303.204056 
L 155.171055 -300.461183 
L 155.242573 -297.718309 
L 155.284112 -294.975436 
L 155.303132 -292.232562 
L 155.309852 -289.489689 
L 155.316127 -286.746815 
L 155.334059 -284.003942 
L 155.374536 -281.261068 
L 155.445913 -278.518195 
L 155.553064 -275.775321 
L 155.696953 -273.032448 
L 155.874827 -270.289574 
L 156.081018 -267.546701 
L 156.308223 -264.803827 
L 156.549055 -262.060953 
L 156.797585 -259.31808 
L 157.05059 -256.575206 
L 157.308267 -253.832333 
L 157.574261 -251.089459 
L 157.85501 -248.346586 
L 158.158514 -245.603712 
L 158.49278 -242.860839 
L 158.86425 -240.117965 
L 159.276538 -237.375092 
L 159.729724 -234.632218 
L 160.220364 -231.889345 
L 160.742215 -229.146471 
L 161.287539 -226.403598 
L 161.84874 -223.660724 
L 162.420008 -220.917851 
L 162.998663 -218.174977 
L 163.58594 -215.432104 
L 164.187068 -212.68923 
L 164.810627 -209.946357 
L 165.467304 -207.203483 
L 166.168266 -204.46061 
L 166.923437 -201.717736 
L 167.739935 -198.974863 
L 168.620914 -196.231989 
L 169.564917 -193.489115 
L 170.565773 -190.746242 
L 171.612958 -188.003368 
L 172.692273 -185.260495 
L 173.786691 -182.517621 
L 174.877212 -179.774748 
L 175.943654 -177.031874 
L 176.965334 -174.289001 
L 177.921666 -171.546127 
L 178.792704 -168.803254 
L 179.559672 -166.06038 
L 180.205482 -163.317507 
L 180.715212 -160.574633 
L 181.076462 -157.83176 
L 181.279557 -155.088886 
L 181.317525 -152.346013 
L 181.18588 -149.603139 
L 180.882264 -146.860266 
L 180.406074 -144.117392 
L 179.758212 -141.374519 
L 178.941083 -138.631645 
L 177.958899 -135.888772 
L 176.818294 -133.145898 
L 175.529136 -130.403025 
L 174.105365 -127.660151 
L 172.565628 -124.917277 
L 170.933532 -122.174404 
L 169.237327 -119.43153 
L 167.508994 -116.688657 
L 165.782759 -113.945783 
L 164.093203 -111.20291 
L 162.473193 -108.460036 
L 160.951874 -105.717163 
L 159.553001 -102.974289 
L 158.293761 -100.231416 
L 157.184228 -97.488542 
L 156.227444 -94.745669 
L 155.420064 -92.002795 
L 154.753437 -89.259922 
L 154.214943 -86.517048 
L 153.789421 -83.774175 
L 153.460529 -81.031301 
L 153.211923 -78.288428 
L 153.028168 -75.545554 
L 152.895379 -72.802681 
z
" id="mfc78249fe3" style="stroke:#3f3f3f;stroke-width:1.5;"/>
    </defs>
    <g clip-path="url(#pb21f80dc57)">
     <use style="fill:#e1812c;stroke:#3f3f3f;stroke-width:1.5;" x="0" xlink:href="#mfc78249fe3" y="366.15625"/>
    </g>
   </g>
   <g id="PolyCollection_3">
    <defs>
     <path d="M 249.152985 -77.242535 
L 247.628399 -77.242535 
L 247.345583 -79.583548 
L 246.979373 -81.924562 
L 246.513183 -84.265576 
L 245.929748 -86.606589 
L 245.211957 -88.947603 
L 244.343911 -91.288617 
L 243.312171 -93.62963 
L 242.107125 -95.970644 
L 240.724393 -98.311658 
L 239.166146 -100.652671 
L 237.442211 -102.993685 
L 235.570833 -105.334699 
L 233.578952 -107.675712 
L 231.501919 -110.016726 
L 229.382578 -112.35774 
L 227.269728 -114.698753 
L 225.21603 -117.039767 
L 223.27548 -119.380781 
L 221.500651 -121.721794 
L 219.939909 -124.062808 
L 218.63485 -126.403822 
L 217.618187 -128.744835 
L 216.912251 -131.085849 
L 216.528227 -133.426863 
L 216.466162 -135.767876 
L 216.715683 -138.10889 
L 217.257304 -140.449904 
L 218.064151 -142.790917 
L 219.103886 -145.131931 
L 220.340652 -147.472945 
L 221.736853 -149.813958 
L 223.25467 -152.154972 
L 224.857255 -154.495986 
L 226.509594 -156.836999 
L 228.179108 -159.178013 
L 229.836037 -161.519027 
L 231.453715 -163.86004 
L 233.008779 -166.201054 
L 234.481367 -168.542068 
L 235.855321 -170.883081 
L 237.118368 -173.224095 
L 238.262248 -175.565109 
L 239.28276 -177.906122 
L 240.179665 -180.247136 
L 240.956433 -182.58815 
L 241.619819 -184.929163 
L 242.179298 -187.270177 
L 242.646367 -189.611191 
L 243.033787 -191.952204 
L 243.354809 -194.293218 
L 243.622446 -196.634232 
L 243.848836 -198.975245 
L 244.044749 -201.316259 
L 244.219254 -203.657273 
L 244.379554 -205.998286 
L 244.531 -208.3393 
L 244.67724 -210.680314 
L 244.820487 -213.021327 
L 244.961855 -215.362341 
L 245.101716 -217.703355 
L 245.240027 -220.044368 
L 245.376596 -222.385382 
L 245.51125 -224.726396 
L 245.643895 -227.067409 
L 245.774477 -229.408423 
L 245.902865 -231.749437 
L 246.028696 -234.09045 
L 246.151219 -236.431464 
L 246.269202 -238.772478 
L 246.380912 -241.113491 
L 246.484212 -243.454505 
L 246.576756 -245.795519 
L 246.656284 -248.136532 
L 246.720954 -250.477546 
L 246.769682 -252.81856 
L 246.802425 -255.159573 
L 246.820361 -257.500587 
L 246.825928 -259.841601 
L 246.822718 -262.182614 
L 246.815209 -264.523628 
L 246.808386 -266.864642 
L 246.80729 -269.205655 
L 246.816538 -271.546669 
L 246.839896 -273.887683 
L 246.879935 -276.228696 
L 246.937824 -278.56971 
L 247.013271 -280.910724 
L 247.10462 -283.251737 
L 247.209069 -285.592751 
L 247.322997 -287.933765 
L 247.442326 -290.274778 
L 247.562902 -292.615792 
L 247.680834 -294.956806 
L 247.792763 -297.297819 
L 247.896045 -299.638833 
L 247.988841 -301.979847 
L 248.070119 -304.32086 
L 248.139587 -306.661874 
L 248.197568 -309.002887 
L 248.583815 -309.002887 
L 248.583815 -309.002887 
L 248.641797 -306.661874 
L 248.711264 -304.32086 
L 248.792543 -301.979847 
L 248.885339 -299.638833 
L 248.98862 -297.297819 
L 249.100549 -294.956806 
L 249.218482 -292.615792 
L 249.339058 -290.274778 
L 249.458387 -287.933765 
L 249.572314 -285.592751 
L 249.676764 -283.251737 
L 249.768113 -280.910724 
L 249.84356 -278.56971 
L 249.901448 -276.228696 
L 249.941487 -273.887683 
L 249.964845 -271.546669 
L 249.974094 -269.205655 
L 249.972998 -266.864642 
L 249.966175 -264.523628 
L 249.958665 -262.182614 
L 249.955455 -259.841601 
L 249.961023 -257.500587 
L 249.978958 -255.159573 
L 250.011701 -252.81856 
L 250.06043 -250.477546 
L 250.1251 -248.136532 
L 250.204628 -245.795519 
L 250.297172 -243.454505 
L 250.400471 -241.113491 
L 250.512182 -238.772478 
L 250.630165 -236.431464 
L 250.752688 -234.09045 
L 250.878518 -231.749437 
L 251.006907 -229.408423 
L 251.137489 -227.067409 
L 251.270134 -224.726396 
L 251.404788 -222.385382 
L 251.541357 -220.044368 
L 251.679668 -217.703355 
L 251.819528 -215.362341 
L 251.960897 -213.021327 
L 252.104144 -210.680314 
L 252.250384 -208.3393 
L 252.40183 -205.998286 
L 252.56213 -203.657273 
L 252.736634 -201.316259 
L 252.932548 -198.975245 
L 253.158938 -196.634232 
L 253.426574 -194.293218 
L 253.747597 -191.952204 
L 254.135017 -189.611191 
L 254.602086 -187.270177 
L 255.161565 -184.929163 
L 255.824951 -182.58815 
L 256.601718 -180.247136 
L 257.498623 -177.906122 
L 258.519136 -175.565109 
L 259.663016 -173.224095 
L 260.926062 -170.883081 
L 262.300017 -168.542068 
L 263.772605 -166.201054 
L 265.327668 -163.86004 
L 266.945346 -161.519027 
L 268.602276 -159.178013 
L 270.27179 -156.836999 
L 271.924129 -154.495986 
L 273.526714 -152.154972 
L 275.044531 -149.813958 
L 276.440731 -147.472945 
L 277.677497 -145.131931 
L 278.717233 -142.790917 
L 279.52408 -140.449904 
L 280.065701 -138.10889 
L 280.315221 -135.767876 
L 280.253156 -133.426863 
L 279.869133 -131.085849 
L 279.163196 -128.744835 
L 278.146534 -126.403822 
L 276.841475 -124.062808 
L 275.280732 -121.721794 
L 273.505904 -119.380781 
L 271.565354 -117.039767 
L 269.511655 -114.698753 
L 267.398806 -112.35774 
L 265.279464 -110.016726 
L 263.202431 -107.675712 
L 261.210551 -105.334699 
L 259.339173 -102.993685 
L 257.615238 -100.652671 
L 256.056991 -98.311658 
L 254.674259 -95.970644 
L 253.469213 -93.62963 
L 252.437473 -91.288617 
L 251.569427 -88.947603 
L 250.851635 -86.606589 
L 250.2682 -84.265576 
L 249.802011 -81.924562 
L 249.435801 -79.583548 
L 249.152985 -77.242535 
z
" id="m6ada9b0dae" style="stroke:#3f3f3f;stroke-width:1.5;"/>
    </defs>
    <g clip-path="url(#pb21f80dc57)">
     <use style="fill:#3274a1;stroke:#3f3f3f;stroke-width:1.5;" x="0" xlink:href="#m6ada9b0dae" y="366.15625"/>
    </g>
   </g>
   <g id="PolyCollection_4">
    <defs>
     <path d="M 312.40143 -52.165341 
L 312.078072 -52.165341 
L 312.01646 -54.819516 
L 311.937198 -57.473692 
L 311.837308 -60.127867 
L 311.713876 -62.782043 
L 311.564167 -65.436218 
L 311.385695 -68.090393 
L 311.176246 -70.744569 
L 310.933811 -73.398744 
L 310.656455 -76.05292 
L 310.342114 -78.707095 
L 309.988359 -81.361271 
L 309.592181 -84.015446 
L 309.149833 -86.669621 
L 308.656798 -89.323797 
L 308.107917 -91.977972 
L 307.497681 -94.632148 
L 306.820695 -97.286323 
L 306.072249 -99.940498 
L 305.248944 -102.594674 
L 304.349299 -105.248849 
L 303.374271 -107.903025 
L 302.32764 -110.5572 
L 301.216254 -113.211376 
L 300.050141 -115.865551 
L 298.842515 -118.519726 
L 297.609717 -121.173902 
L 296.371092 -123.828077 
L 295.148782 -126.482253 
L 293.967377 -129.136428 
L 292.853335 -131.790604 
L 291.834094 -134.444779 
L 290.936844 -137.098954 
L 290.186951 -139.75313 
L 289.606178 -142.407305 
L 289.210854 -145.061481 
L 289.010263 -147.715656 
L 289.005487 -150.369831 
L 289.188931 -153.024007 
L 289.544651 -155.678182 
L 290.049512 -158.332358 
L 290.675053 -160.986533 
L 291.389855 -163.640709 
L 292.162133 -166.294884 
L 292.962243 -168.949059 
L 293.764834 -171.603235 
L 294.550426 -174.25741 
L 295.306284 -176.911586 
L 296.026539 -179.565761 
L 296.7116 -182.219937 
L 297.366968 -184.874112 
L 298.001614 -187.528287 
L 298.626115 -190.182463 
L 299.250776 -192.836638 
L 299.883937 -195.490814 
L 300.530647 -198.144989 
L 301.191873 -200.799164 
L 301.864291 -203.45334 
L 302.540699 -206.107515 
L 303.210971 -208.761691 
L 303.863411 -211.415866 
L 304.486328 -214.070042 
L 305.069591 -216.724217 
L 305.60595 -219.378392 
L 306.091934 -222.032568 
L 306.528188 -224.686743 
L 306.919205 -227.340919 
L 307.272511 -229.995094 
L 307.597421 -232.649269 
L 307.903584 -235.303445 
L 308.199538 -237.95762 
L 308.491519 -240.611796 
L 308.782689 -243.265971 
L 309.072904 -245.920147 
L 309.359022 -248.574322 
L 309.63568 -251.228497 
L 309.896384 -253.882673 
L 310.134712 -256.536848 
L 310.345438 -259.191024 
L 310.525394 -261.845199 
L 310.673959 -264.499375 
L 310.793132 -267.15355 
L 310.887199 -269.807725 
L 310.9621 -272.461901 
L 311.0246 -275.116076 
L 311.08142 -277.770252 
L 311.138452 -280.424427 
L 311.200168 -283.078602 
L 311.269272 -285.732778 
L 311.34664 -288.386953 
L 311.431489 -291.041129 
L 311.521743 -293.695304 
L 311.6145 -296.34948 
L 311.706529 -299.003655 
L 311.794719 -301.65783 
L 311.876428 -304.312006 
L 311.949707 -306.966181 
L 312.01339 -309.620357 
L 312.067075 -312.274532 
L 312.111014 -314.928708 
L 312.368488 -314.928708 
L 312.368488 -314.928708 
L 312.412427 -312.274532 
L 312.466112 -309.620357 
L 312.529795 -306.966181 
L 312.603073 -304.312006 
L 312.684782 -301.65783 
L 312.772972 -299.003655 
L 312.865002 -296.34948 
L 312.957759 -293.695304 
L 313.048013 -291.041129 
L 313.132862 -288.386953 
L 313.21023 -285.732778 
L 313.279334 -283.078602 
L 313.341049 -280.424427 
L 313.398082 -277.770252 
L 313.454902 -275.116076 
L 313.517402 -272.461901 
L 313.592302 -269.807725 
L 313.686369 -267.15355 
L 313.805542 -264.499375 
L 313.954108 -261.845199 
L 314.134064 -259.191024 
L 314.34479 -256.536848 
L 314.583118 -253.882673 
L 314.843822 -251.228497 
L 315.12048 -248.574322 
L 315.406598 -245.920147 
L 315.696813 -243.265971 
L 315.987983 -240.611796 
L 316.279964 -237.95762 
L 316.575918 -235.303445 
L 316.88208 -232.649269 
L 317.20699 -229.995094 
L 317.560297 -227.340919 
L 317.951314 -224.686743 
L 318.387568 -222.032568 
L 318.873552 -219.378392 
L 319.409911 -216.724217 
L 319.993173 -214.070042 
L 320.61609 -211.415866 
L 321.268531 -208.761691 
L 321.938802 -206.107515 
L 322.615211 -203.45334 
L 323.287628 -200.799164 
L 323.948854 -198.144989 
L 324.595565 -195.490814 
L 325.228726 -192.836638 
L 325.853387 -190.182463 
L 326.477888 -187.528287 
L 327.112533 -184.874112 
L 327.767902 -182.219937 
L 328.452963 -179.565761 
L 329.173218 -176.911586 
L 329.929076 -174.25741 
L 330.714668 -171.603235 
L 331.517259 -168.949059 
L 332.317369 -166.294884 
L 333.089647 -163.640709 
L 333.804449 -160.986533 
L 334.42999 -158.332358 
L 334.934851 -155.678182 
L 335.290571 -153.024007 
L 335.474014 -150.369831 
L 335.469239 -147.715656 
L 335.268648 -145.061481 
L 334.873324 -142.407305 
L 334.29255 -139.75313 
L 333.542658 -137.098954 
L 332.645407 -134.444779 
L 331.626167 -131.790604 
L 330.512124 -129.136428 
L 329.330719 -126.482253 
L 328.10841 -123.828077 
L 326.869785 -121.173902 
L 325.636987 -118.519726 
L 324.429361 -115.865551 
L 323.263248 -113.211376 
L 322.151862 -110.5572 
L 321.105231 -107.903025 
L 320.130202 -105.248849 
L 319.230558 -102.594674 
L 318.407253 -99.940498 
L 317.658807 -97.286323 
L 316.981821 -94.632148 
L 316.371585 -91.977972 
L 315.822703 -89.323797 
L 315.329669 -86.669621 
L 314.88732 -84.015446 
L 314.491142 -81.361271 
L 314.137388 -78.707095 
L 313.823047 -76.05292 
L 313.545691 -73.398744 
L 313.303256 -70.744569 
L 313.093807 -68.090393 
L 312.915335 -65.436218 
L 312.765626 -62.782043 
L 312.642194 -60.127867 
L 312.542304 -57.473692 
L 312.463042 -54.819516 
L 312.40143 -52.165341 
z
" id="m89544a0978" style="stroke:#3f3f3f;stroke-width:1.5;"/>
    </defs>
    <g clip-path="url(#pb21f80dc57)">
     <use style="fill:#e1812c;stroke:#3f3f3f;stroke-width:1.5;" x="0" xlink:href="#m89544a0978" y="366.15625"/>
    </g>
   </g>
   <g id="patch_3">
    <path clip-path="url(#pb21f80dc57)" d="M 120.692574 293.513942 
L 120.692574 293.513942 
L 120.692574 293.513942 
L 120.692574 293.513942 
z
" style="fill:#3274a1;stroke:#3f3f3f;stroke-linejoin:miter;stroke-width:0.75;"/>
   </g>
   <g id="patch_4">
    <path clip-path="url(#pb21f80dc57)" d="M 120.692574 293.513942 
L 120.692574 293.513942 
L 120.692574 293.513942 
L 120.692574 293.513942 
z
" style="fill:#e1812c;stroke:#3f3f3f;stroke-linejoin:miter;stroke-width:0.75;"/>
   </g>
   <g id="matplotlib.axis_1">
    <g id="xtick_1">
     <g id="line2d_1">
      <defs>
       <path d="M 0 0 
L 0 3.5 
" id="me83f303d6c" style="stroke:#000000;stroke-width:0.8;"/>
      </defs>
      <g>
       <use style="stroke:#000000;stroke-width:0.8;" x="120.692574" xlink:href="#me83f303d6c" y="328.6"/>
      </g>
     </g>
     <g id="text_1">
      <!-- Male -->
      <defs>
       <path d="M 9.8125 72.90625 
L 24.515625 72.90625 
L 43.109375 23.296875 
L 61.8125 72.90625 
L 76.515625 72.90625 
L 76.515625 0 
L 66.890625 0 
L 66.890625 64.015625 
L 48.09375 14.015625 
L 38.1875 14.015625 
L 19.390625 64.015625 
L 19.390625 0 
L 9.8125 0 
z
" id="DejaVuSans-77"/>
       <path d="M 34.28125 27.484375 
Q 23.390625 27.484375 19.1875 25 
Q 14.984375 22.515625 14.984375 16.5 
Q 14.984375 11.71875 18.140625 8.90625 
Q 21.296875 6.109375 26.703125 6.109375 
Q 34.1875 6.109375 38.703125 11.40625 
Q 43.21875 16.703125 43.21875 25.484375 
L 43.21875 27.484375 
z
M 52.203125 31.203125 
L 52.203125 0 
L 43.21875 0 
L 43.21875 8.296875 
Q 40.140625 3.328125 35.546875 0.953125 
Q 30.953125 -1.421875 24.3125 -1.421875 
Q 15.921875 -1.421875 10.953125 3.296875 
Q 6 8.015625 6 15.921875 
Q 6 25.140625 12.171875 29.828125 
Q 18.359375 34.515625 30.609375 34.515625 
L 43.21875 34.515625 
L 43.21875 35.40625 
Q 43.21875 41.609375 39.140625 45 
Q 35.0625 48.390625 27.6875 48.390625 
Q 23 48.390625 18.546875 47.265625 
Q 14.109375 46.140625 10.015625 43.890625 
L 10.015625 52.203125 
Q 14.9375 54.109375 19.578125 55.046875 
Q 24.21875 56 28.609375 56 
Q 40.484375 56 46.34375 49.84375 
Q 52.203125 43.703125 52.203125 31.203125 
z
" id="DejaVuSans-97"/>
       <path d="M 9.421875 75.984375 
L 18.40625 75.984375 
L 18.40625 0 
L 9.421875 0 
z
" id="DejaVuSans-108"/>
       <path d="M 56.203125 29.59375 
L 56.203125 25.203125 
L 14.890625 25.203125 
Q 15.484375 15.921875 20.484375 11.0625 
Q 25.484375 6.203125 34.421875 6.203125 
Q 39.59375 6.203125 44.453125 7.46875 
Q 49.3125 8.734375 54.109375 11.28125 
L 54.109375 2.78125 
Q 49.265625 0.734375 44.1875 -0.34375 
Q 39.109375 -1.421875 33.890625 -1.421875 
Q 20.796875 -1.421875 13.15625 6.1875 
Q 5.515625 13.8125 5.515625 26.8125 
Q 5.515625 40.234375 12.765625 48.109375 
Q 20.015625 56 32.328125 56 
Q 43.359375 56 49.78125 48.890625 
Q 56.203125 41.796875 56.203125 29.59375 
z
M 47.21875 32.234375 
Q 47.125 39.59375 43.09375 43.984375 
Q 39.0625 48.390625 32.421875 48.390625 
Q 24.90625 48.390625 20.390625 44.140625 
Q 15.875 39.890625 15.1875 32.171875 
z
" id="DejaVuSans-101"/>
      </defs>
      <g transform="translate(108.848824 343.198437)scale(0.1 -0.1)">
       <use xlink:href="#DejaVuSans-77"/>
       <use x="86.279297" xlink:href="#DejaVuSans-97"/>
       <use x="147.558594" xlink:href="#DejaVuSans-108"/>
       <use x="175.341797" xlink:href="#DejaVuSans-101"/>
      </g>
     </g>
    </g>
    <g id="xtick_2">
     <g id="line2d_2">
      <g>
       <use style="stroke:#000000;stroke-width:0.8;" x="280.315221" xlink:href="#me83f303d6c" y="328.6"/>
      </g>
     </g>
     <g id="text_2">
      <!-- Female -->
      <defs>
       <path d="M 9.8125 72.90625 
L 51.703125 72.90625 
L 51.703125 64.59375 
L 19.671875 64.59375 
L 19.671875 43.109375 
L 48.578125 43.109375 
L 48.578125 34.8125 
L 19.671875 34.8125 
L 19.671875 0 
L 9.8125 0 
z
" id="DejaVuSans-70"/>
       <path d="M 52 44.1875 
Q 55.375 50.25 60.0625 53.125 
Q 64.75 56 71.09375 56 
Q 79.640625 56 84.28125 50.015625 
Q 88.921875 44.046875 88.921875 33.015625 
L 88.921875 0 
L 79.890625 0 
L 79.890625 32.71875 
Q 79.890625 40.578125 77.09375 44.375 
Q 74.3125 48.1875 68.609375 48.1875 
Q 61.625 48.1875 57.5625 43.546875 
Q 53.515625 38.921875 53.515625 30.90625 
L 53.515625 0 
L 44.484375 0 
L 44.484375 32.71875 
Q 44.484375 40.625 41.703125 44.40625 
Q 38.921875 48.1875 33.109375 48.1875 
Q 26.21875 48.1875 22.15625 43.53125 
Q 18.109375 38.875 18.109375 30.90625 
L 18.109375 0 
L 9.078125 0 
L 9.078125 54.6875 
L 18.109375 54.6875 
L 18.109375 46.1875 
Q 21.1875 51.21875 25.484375 53.609375 
Q 29.78125 56 35.6875 56 
Q 41.65625 56 45.828125 52.96875 
Q 50 49.953125 52 44.1875 
z
" id="DejaVuSans-109"/>
      </defs>
      <g transform="translate(262.237878 343.198437)scale(0.1 -0.1)">
       <use xlink:href="#DejaVuSans-70"/>
       <use x="52.019531" xlink:href="#DejaVuSans-101"/>
       <use x="113.542969" xlink:href="#DejaVuSans-109"/>
       <use x="210.955078" xlink:href="#DejaVuSans-97"/>
       <use x="272.234375" xlink:href="#DejaVuSans-108"/>
       <use x="300.017578" xlink:href="#DejaVuSans-101"/>
      </g>
     </g>
    </g>
    <g id="text_3">
     <!-- sex -->
     <defs>
      <path d="M 44.28125 53.078125 
L 44.28125 44.578125 
Q 40.484375 46.53125 36.375 47.5 
Q 32.28125 48.484375 27.875 48.484375 
Q 21.1875 48.484375 17.84375 46.4375 
Q 14.5 44.390625 14.5 40.28125 
Q 14.5 37.15625 16.890625 35.375 
Q 19.28125 33.59375 26.515625 31.984375 
L 29.59375 31.296875 
Q 39.15625 29.25 43.1875 25.515625 
Q 47.21875 21.78125 47.21875 15.09375 
Q 47.21875 7.46875 41.1875 3.015625 
Q 35.15625 -1.421875 24.609375 -1.421875 
Q 20.21875 -1.421875 15.453125 -0.5625 
Q 10.6875 0.296875 5.421875 2 
L 5.421875 11.28125 
Q 10.40625 8.6875 15.234375 7.390625 
Q 20.0625 6.109375 24.8125 6.109375 
Q 31.15625 6.109375 34.5625 8.28125 
Q 37.984375 10.453125 37.984375 14.40625 
Q 37.984375 18.0625 35.515625 20.015625 
Q 33.0625 21.96875 24.703125 23.78125 
L 21.578125 24.515625 
Q 13.234375 26.265625 9.515625 29.90625 
Q 5.8125 33.546875 5.8125 39.890625 
Q 5.8125 47.609375 11.28125 51.796875 
Q 16.75 56 26.8125 56 
Q 31.78125 56 36.171875 55.265625 
Q 40.578125 54.546875 44.28125 53.078125 
z
" id="DejaVuSans-115"/>
      <path d="M 54.890625 54.6875 
L 35.109375 28.078125 
L 55.90625 0 
L 45.3125 0 
L 29.390625 21.484375 
L 13.484375 0 
L 2.875 0 
L 24.125 28.609375 
L 4.6875 54.6875 
L 15.28125 54.6875 
L 29.78125 35.203125 
L 44.28125 54.6875 
z
" id="DejaVuSans-120"/>
     </defs>
     <g transform="translate(191.950773 356.876562)scale(0.1 -0.1)">
      <use xlink:href="#DejaVuSans-115"/>
      <use x="52.099609" xlink:href="#DejaVuSans-101"/>
      <use x="111.873047" xlink:href="#DejaVuSans-120"/>
     </g>
    </g>
   </g>
   <g id="matplotlib.axis_2">
    <g id="ytick_1">
     <g id="line2d_3">
      <defs>
       <path d="M 0 0 
L -3.5 0 
" id="m1232a84034" style="stroke:#000000;stroke-width:0.8;"/>
      </defs>
      <g>
       <use style="stroke:#000000;stroke-width:0.8;" x="40.88125" xlink:href="#m1232a84034" y="293.513942"/>
      </g>
     </g>
     <g id="text_4">
      <!-- 0 -->
      <defs>
       <path d="M 31.78125 66.40625 
Q 24.171875 66.40625 20.328125 58.90625 
Q 16.5 51.421875 16.5 36.375 
Q 16.5 21.390625 20.328125 13.890625 
Q 24.171875 6.390625 31.78125 6.390625 
Q 39.453125 6.390625 43.28125 13.890625 
Q 47.125 21.390625 47.125 36.375 
Q 47.125 51.421875 43.28125 58.90625 
Q 39.453125 66.40625 31.78125 66.40625 
z
M 31.78125 74.21875 
Q 44.046875 74.21875 50.515625 64.515625 
Q 56.984375 54.828125 56.984375 36.375 
Q 56.984375 17.96875 50.515625 8.265625 
Q 44.046875 -1.421875 31.78125 -1.421875 
Q 19.53125 -1.421875 13.0625 8.265625 
Q 6.59375 17.96875 6.59375 36.375 
Q 6.59375 54.828125 13.0625 64.515625 
Q 19.53125 74.21875 31.78125 74.21875 
z
" id="DejaVuSans-48"/>
      </defs>
      <g transform="translate(27.51875 297.313161)scale(0.1 -0.1)">
       <use xlink:href="#DejaVuSans-48"/>
      </g>
     </g>
    </g>
    <g id="ytick_2">
     <g id="line2d_4">
      <g>
       <use style="stroke:#000000;stroke-width:0.8;" x="40.88125" xlink:href="#m1232a84034" y="246.689067"/>
      </g>
     </g>
     <g id="text_5">
      <!-- 10 -->
      <defs>
       <path d="M 12.40625 8.296875 
L 28.515625 8.296875 
L 28.515625 63.921875 
L 10.984375 60.40625 
L 10.984375 69.390625 
L 28.421875 72.90625 
L 38.28125 72.90625 
L 38.28125 8.296875 
L 54.390625 8.296875 
L 54.390625 0 
L 12.40625 0 
z
" id="DejaVuSans-49"/>
      </defs>
      <g transform="translate(21.15625 250.488286)scale(0.1 -0.1)">
       <use xlink:href="#DejaVuSans-49"/>
       <use x="63.623047" xlink:href="#DejaVuSans-48"/>
      </g>
     </g>
    </g>
    <g id="ytick_3">
     <g id="line2d_5">
      <g>
       <use style="stroke:#000000;stroke-width:0.8;" x="40.88125" xlink:href="#m1232a84034" y="199.864192"/>
      </g>
     </g>
     <g id="text_6">
      <!-- 20 -->
      <defs>
       <path d="M 19.1875 8.296875 
L 53.609375 8.296875 
L 53.609375 0 
L 7.328125 0 
L 7.328125 8.296875 
Q 12.9375 14.109375 22.625 23.890625 
Q 32.328125 33.6875 34.8125 36.53125 
Q 39.546875 41.84375 41.421875 45.53125 
Q 43.3125 49.21875 43.3125 52.78125 
Q 43.3125 58.59375 39.234375 62.25 
Q 35.15625 65.921875 28.609375 65.921875 
Q 23.96875 65.921875 18.8125 64.3125 
Q 13.671875 62.703125 7.8125 59.421875 
L 7.8125 69.390625 
Q 13.765625 71.78125 18.9375 73 
Q 24.125 74.21875 28.421875 74.21875 
Q 39.75 74.21875 46.484375 68.546875 
Q 53.21875 62.890625 53.21875 53.421875 
Q 53.21875 48.921875 51.53125 44.890625 
Q 49.859375 40.875 45.40625 35.40625 
Q 44.1875 33.984375 37.640625 27.21875 
Q 31.109375 20.453125 19.1875 8.296875 
z
" id="DejaVuSans-50"/>
      </defs>
      <g transform="translate(21.15625 203.663411)scale(0.1 -0.1)">
       <use xlink:href="#DejaVuSans-50"/>
       <use x="63.623047" xlink:href="#DejaVuSans-48"/>
      </g>
     </g>
    </g>
    <g id="ytick_4">
     <g id="line2d_6">
      <g>
       <use style="stroke:#000000;stroke-width:0.8;" x="40.88125" xlink:href="#m1232a84034" y="153.039317"/>
      </g>
     </g>
     <g id="text_7">
      <!-- 30 -->
      <defs>
       <path d="M 40.578125 39.3125 
Q 47.65625 37.796875 51.625 33 
Q 55.609375 28.21875 55.609375 21.1875 
Q 55.609375 10.40625 48.1875 4.484375 
Q 40.765625 -1.421875 27.09375 -1.421875 
Q 22.515625 -1.421875 17.65625 -0.515625 
Q 12.796875 0.390625 7.625 2.203125 
L 7.625 11.71875 
Q 11.71875 9.328125 16.59375 8.109375 
Q 21.484375 6.890625 26.8125 6.890625 
Q 36.078125 6.890625 40.9375 10.546875 
Q 45.796875 14.203125 45.796875 21.1875 
Q 45.796875 27.640625 41.28125 31.265625 
Q 36.765625 34.90625 28.71875 34.90625 
L 20.21875 34.90625 
L 20.21875 43.015625 
L 29.109375 43.015625 
Q 36.375 43.015625 40.234375 45.921875 
Q 44.09375 48.828125 44.09375 54.296875 
Q 44.09375 59.90625 40.109375 62.90625 
Q 36.140625 65.921875 28.71875 65.921875 
Q 24.65625 65.921875 20.015625 65.03125 
Q 15.375 64.15625 9.8125 62.3125 
L 9.8125 71.09375 
Q 15.4375 72.65625 20.34375 73.4375 
Q 25.25 74.21875 29.59375 74.21875 
Q 40.828125 74.21875 47.359375 69.109375 
Q 53.90625 64.015625 53.90625 55.328125 
Q 53.90625 49.265625 50.4375 45.09375 
Q 46.96875 40.921875 40.578125 39.3125 
z
" id="DejaVuSans-51"/>
      </defs>
      <g transform="translate(21.15625 156.838536)scale(0.1 -0.1)">
       <use xlink:href="#DejaVuSans-51"/>
       <use x="63.623047" xlink:href="#DejaVuSans-48"/>
      </g>
     </g>
    </g>
    <g id="ytick_5">
     <g id="line2d_7">
      <g>
       <use style="stroke:#000000;stroke-width:0.8;" x="40.88125" xlink:href="#m1232a84034" y="106.214442"/>
      </g>
     </g>
     <g id="text_8">
      <!-- 40 -->
      <defs>
       <path d="M 37.796875 64.3125 
L 12.890625 25.390625 
L 37.796875 25.390625 
z
M 35.203125 72.90625 
L 47.609375 72.90625 
L 47.609375 25.390625 
L 58.015625 25.390625 
L 58.015625 17.1875 
L 47.609375 17.1875 
L 47.609375 0 
L 37.796875 0 
L 37.796875 17.1875 
L 4.890625 17.1875 
L 4.890625 26.703125 
z
" id="DejaVuSans-52"/>
      </defs>
      <g transform="translate(21.15625 110.013661)scale(0.1 -0.1)">
       <use xlink:href="#DejaVuSans-52"/>
       <use x="63.623047" xlink:href="#DejaVuSans-48"/>
      </g>
     </g>
    </g>
    <g id="ytick_6">
     <g id="line2d_8">
      <g>
       <use style="stroke:#000000;stroke-width:0.8;" x="40.88125" xlink:href="#m1232a84034" y="59.389567"/>
      </g>
     </g>
     <g id="text_9">
      <!-- 50 -->
      <defs>
       <path d="M 10.796875 72.90625 
L 49.515625 72.90625 
L 49.515625 64.59375 
L 19.828125 64.59375 
L 19.828125 46.734375 
Q 21.96875 47.46875 24.109375 47.828125 
Q 26.265625 48.1875 28.421875 48.1875 
Q 40.625 48.1875 47.75 41.5 
Q 54.890625 34.8125 54.890625 23.390625 
Q 54.890625 11.625 47.5625 5.09375 
Q 40.234375 -1.421875 26.90625 -1.421875 
Q 22.3125 -1.421875 17.546875 -0.640625 
Q 12.796875 0.140625 7.71875 1.703125 
L 7.71875 11.625 
Q 12.109375 9.234375 16.796875 8.0625 
Q 21.484375 6.890625 26.703125 6.890625 
Q 35.15625 6.890625 40.078125 11.328125 
Q 45.015625 15.765625 45.015625 23.390625 
Q 45.015625 31 40.078125 35.4375 
Q 35.15625 39.890625 26.703125 39.890625 
Q 22.75 39.890625 18.8125 39.015625 
Q 14.890625 38.140625 10.796875 36.28125 
z
" id="DejaVuSans-53"/>
      </defs>
      <g transform="translate(21.15625 63.188786)scale(0.1 -0.1)">
       <use xlink:href="#DejaVuSans-53"/>
       <use x="63.623047" xlink:href="#DejaVuSans-48"/>
      </g>
     </g>
    </g>
    <g id="ytick_7">
     <g id="line2d_9">
      <g>
       <use style="stroke:#000000;stroke-width:0.8;" x="40.88125" xlink:href="#m1232a84034" y="12.564693"/>
      </g>
     </g>
     <g id="text_10">
      <!-- 60 -->
      <defs>
       <path d="M 33.015625 40.375 
Q 26.375 40.375 22.484375 35.828125 
Q 18.609375 31.296875 18.609375 23.390625 
Q 18.609375 15.53125 22.484375 10.953125 
Q 26.375 6.390625 33.015625 6.390625 
Q 39.65625 6.390625 43.53125 10.953125 
Q 47.40625 15.53125 47.40625 23.390625 
Q 47.40625 31.296875 43.53125 35.828125 
Q 39.65625 40.375 33.015625 40.375 
z
M 52.59375 71.296875 
L 52.59375 62.3125 
Q 48.875 64.0625 45.09375 64.984375 
Q 41.3125 65.921875 37.59375 65.921875 
Q 27.828125 65.921875 22.671875 59.328125 
Q 17.53125 52.734375 16.796875 39.40625 
Q 19.671875 43.65625 24.015625 45.921875 
Q 28.375 48.1875 33.59375 48.1875 
Q 44.578125 48.1875 50.953125 41.515625 
Q 57.328125 34.859375 57.328125 23.390625 
Q 57.328125 12.15625 50.6875 5.359375 
Q 44.046875 -1.421875 33.015625 -1.421875 
Q 20.359375 -1.421875 13.671875 8.265625 
Q 6.984375 17.96875 6.984375 36.375 
Q 6.984375 53.65625 15.1875 63.9375 
Q 23.390625 74.21875 37.203125 74.21875 
Q 40.921875 74.21875 44.703125 73.484375 
Q 48.484375 72.75 52.59375 71.296875 
z
" id="DejaVuSans-54"/>
      </defs>
      <g transform="translate(21.15625 16.363911)scale(0.1 -0.1)">
       <use xlink:href="#DejaVuSans-54"/>
       <use x="63.623047" xlink:href="#DejaVuSans-48"/>
      </g>
     </g>
    </g>
    <g id="text_11">
     <!-- total_bill -->
     <defs>
      <path d="M 18.3125 70.21875 
L 18.3125 54.6875 
L 36.8125 54.6875 
L 36.8125 47.703125 
L 18.3125 47.703125 
L 18.3125 18.015625 
Q 18.3125 11.328125 20.140625 9.421875 
Q 21.96875 7.515625 27.59375 7.515625 
L 36.8125 7.515625 
L 36.8125 0 
L 27.59375 0 
Q 17.1875 0 13.234375 3.875 
Q 9.28125 7.765625 9.28125 18.015625 
L 9.28125 47.703125 
L 2.6875 47.703125 
L 2.6875 54.6875 
L 9.28125 54.6875 
L 9.28125 70.21875 
z
" id="DejaVuSans-116"/>
      <path d="M 30.609375 48.390625 
Q 23.390625 48.390625 19.1875 42.75 
Q 14.984375 37.109375 14.984375 27.296875 
Q 14.984375 17.484375 19.15625 11.84375 
Q 23.34375 6.203125 30.609375 6.203125 
Q 37.796875 6.203125 41.984375 11.859375 
Q 46.1875 17.53125 46.1875 27.296875 
Q 46.1875 37.015625 41.984375 42.703125 
Q 37.796875 48.390625 30.609375 48.390625 
z
M 30.609375 56 
Q 42.328125 56 49.015625 48.375 
Q 55.71875 40.765625 55.71875 27.296875 
Q 55.71875 13.875 49.015625 6.21875 
Q 42.328125 -1.421875 30.609375 -1.421875 
Q 18.84375 -1.421875 12.171875 6.21875 
Q 5.515625 13.875 5.515625 27.296875 
Q 5.515625 40.765625 12.171875 48.375 
Q 18.84375 56 30.609375 56 
z
" id="DejaVuSans-111"/>
      <path d="M 50.984375 -16.609375 
L 50.984375 -23.578125 
L -0.984375 -23.578125 
L -0.984375 -16.609375 
z
" id="DejaVuSans-95"/>
      <path d="M 48.6875 27.296875 
Q 48.6875 37.203125 44.609375 42.84375 
Q 40.53125 48.484375 33.40625 48.484375 
Q 26.265625 48.484375 22.1875 42.84375 
Q 18.109375 37.203125 18.109375 27.296875 
Q 18.109375 17.390625 22.1875 11.75 
Q 26.265625 6.109375 33.40625 6.109375 
Q 40.53125 6.109375 44.609375 11.75 
Q 48.6875 17.390625 48.6875 27.296875 
z
M 18.109375 46.390625 
Q 20.953125 51.265625 25.265625 53.625 
Q 29.59375 56 35.59375 56 
Q 45.5625 56 51.78125 48.09375 
Q 58.015625 40.1875 58.015625 27.296875 
Q 58.015625 14.40625 51.78125 6.484375 
Q 45.5625 -1.421875 35.59375 -1.421875 
Q 29.59375 -1.421875 25.265625 0.953125 
Q 20.953125 3.328125 18.109375 8.203125 
L 18.109375 0 
L 9.078125 0 
L 9.078125 75.984375 
L 18.109375 75.984375 
z
" id="DejaVuSans-98"/>
      <path d="M 9.421875 54.6875 
L 18.40625 54.6875 
L 18.40625 0 
L 9.421875 0 
z
M 9.421875 75.984375 
L 18.40625 75.984375 
L 18.40625 64.59375 
L 9.421875 64.59375 
z
" id="DejaVuSans-105"/>
     </defs>
     <g transform="translate(14.798438 189.174219)rotate(-90)scale(0.1 -0.1)">
      <use xlink:href="#DejaVuSans-116"/>
      <use x="39.208984" xlink:href="#DejaVuSans-111"/>
      <use x="100.390625" xlink:href="#DejaVuSans-116"/>
      <use x="139.599609" xlink:href="#DejaVuSans-97"/>
      <use x="200.878906" xlink:href="#DejaVuSans-108"/>
      <use x="228.662109" xlink:href="#DejaVuSans-95"/>
      <use x="278.662109" xlink:href="#DejaVuSans-98"/>
      <use x="342.138672" xlink:href="#DejaVuSans-105"/>
      <use x="369.921875" xlink:href="#DejaVuSans-108"/>
      <use x="397.705078" xlink:href="#DejaVuSans-108"/>
     </g>
    </g>
   </g>
   <g id="line2d_10">
    <path clip-path="url(#pb21f80dc57)" d="M 88.768044 258.348461 
L 88.768044 140.490251 
" style="fill:none;stroke:#3f3f3f;stroke-linecap:square;stroke-width:1.5;"/>
   </g>
   <g id="line2d_11">
    <path clip-path="url(#pb21f80dc57)" d="M 88.768044 232.50113 
L 88.768044 194.432507 
" style="fill:none;stroke:#3f3f3f;stroke-linecap:square;stroke-width:4.5;"/>
   </g>
   <g id="line2d_12">
    <path clip-path="url(#pb21f80dc57)" d="M 152.617103 259.565908 
L 152.617103 103.639074 
" style="fill:none;stroke:#3f3f3f;stroke-linecap:square;stroke-width:1.5;"/>
   </g>
   <g id="line2d_13">
    <path clip-path="url(#pb21f80dc57)" d="M 152.617103 224.657963 
L 152.617103 173.443257 
" style="fill:none;stroke:#3f3f3f;stroke-linecap:square;stroke-width:4.5;"/>
   </g>
   <g id="line2d_14">
    <path clip-path="url(#pb21f80dc57)" d="M 248.390692 254.415171 
L 248.390692 180.759643 
" style="fill:none;stroke:#3f3f3f;stroke-linecap:square;stroke-width:1.5;"/>
   </g>
   <g id="line2d_15">
    <path clip-path="url(#pb21f80dc57)" d="M 248.390692 237.01973 
L 248.390692 209.861303 
" style="fill:none;stroke:#3f3f3f;stroke-linecap:square;stroke-width:4.5;"/>
   </g>
   <g id="line2d_16">
    <path clip-path="url(#pb21f80dc57)" d="M 312.239751 279.138705 
L 312.239751 125.740415 
" style="fill:none;stroke:#3f3f3f;stroke-linecap:square;stroke-width:1.5;"/>
   </g>
   <g id="line2d_17">
    <path clip-path="url(#pb21f80dc57)" d="M 312.239751 227.584518 
L 312.239751 177.89162 
" style="fill:none;stroke:#3f3f3f;stroke-linecap:square;stroke-width:4.5;"/>
   </g>
   <g id="patch_5">
    <path d="M 40.88125 328.6 
L 40.88125 7.2 
" style="fill:none;stroke:#000000;stroke-linecap:square;stroke-linejoin:miter;stroke-width:0.8;"/>
   </g>
   <g id="patch_6">
    <path d="M 40.88125 328.6 
L 360.126545 328.6 
" style="fill:none;stroke:#000000;stroke-linecap:square;stroke-linejoin:miter;stroke-width:0.8;"/>
   </g>
   <g id="PathCollection_1">
    <defs>
     <path d="M 0 1.5 
C 0.397805 1.5 0.77937 1.341951 1.06066 1.06066 
C 1.341951 0.77937 1.5 0.397805 1.5 0 
C 1.5 -0.397805 1.341951 -0.77937 1.06066 -1.06066 
C 0.77937 -1.341951 0.397805 -1.5 0 -1.5 
C -0.397805 -1.5 -0.77937 -1.341951 -1.06066 -1.06066 
C -1.341951 -0.77937 -1.5 -0.397805 -1.5 0 
C -1.5 0.397805 -1.341951 0.77937 -1.06066 1.06066 
C -0.77937 1.341951 -0.397805 1.5 0 1.5 
z
" id="m5a05db5dc8" style="stroke:#3f3f3f;"/>
    </defs>
    <g clip-path="url(#pb21f80dc57)">
     <use style="fill:#ffffff;stroke:#3f3f3f;" x="88.768044" xlink:href="#m5a05db5dc8" y="215.878299"/>
    </g>
   </g>
   <g id="PathCollection_2">
    <g clip-path="url(#pb21f80dc57)">
     <use style="fill:#ffffff;stroke:#3f3f3f;" x="152.617103" xlink:href="#m5a05db5dc8" y="201.596713"/>
    </g>
   </g>
   <g id="PathCollection_3">
    <g clip-path="url(#pb21f80dc57)">
     <use style="fill:#ffffff;stroke:#3f3f3f;" x="248.390692" xlink:href="#m5a05db5dc8" y="230.67496"/>
    </g>
   </g>
   <g id="PathCollection_4">
    <g clip-path="url(#pb21f80dc57)">
     <use style="fill:#ffffff;stroke:#3f3f3f;" x="312.239751" xlink:href="#m5a05db5dc8" y="213.021982"/>
    </g>
   </g>
  </g>
  <g id="legend_1">
   <g id="text_12">
    <!-- time -->
    <g transform="translate(385.243108 171.159375)scale(0.1 -0.1)">
     <use xlink:href="#DejaVuSans-116"/>
     <use x="39.208984" xlink:href="#DejaVuSans-105"/>
     <use x="66.992188" xlink:href="#DejaVuSans-109"/>
     <use x="164.404297" xlink:href="#DejaVuSans-101"/>
    </g>
   </g>
   <g id="patch_7">
    <path d="M 365.830608 185.8375 
L 385.830608 185.8375 
L 385.830608 178.8375 
L 365.830608 178.8375 
z
" style="fill:#3274a1;stroke:#3f3f3f;stroke-linejoin:miter;stroke-width:0.75;"/>
   </g>
   <g id="text_13">
    <!-- Lunch -->
    <defs>
     <path d="M 9.8125 72.90625 
L 19.671875 72.90625 
L 19.671875 8.296875 
L 55.171875 8.296875 
L 55.171875 0 
L 9.8125 0 
z
" id="DejaVuSans-76"/>
     <path d="M 8.5 21.578125 
L 8.5 54.6875 
L 17.484375 54.6875 
L 17.484375 21.921875 
Q 17.484375 14.15625 20.5 10.265625 
Q 23.53125 6.390625 29.59375 6.390625 
Q 36.859375 6.390625 41.078125 11.03125 
Q 45.3125 15.671875 45.3125 23.6875 
L 45.3125 54.6875 
L 54.296875 54.6875 
L 54.296875 0 
L 45.3125 0 
L 45.3125 8.40625 
Q 42.046875 3.421875 37.71875 1 
Q 33.40625 -1.421875 27.6875 -1.421875 
Q 18.265625 -1.421875 13.375 4.4375 
Q 8.5 10.296875 8.5 21.578125 
z
M 31.109375 56 
z
" id="DejaVuSans-117"/>
     <path d="M 54.890625 33.015625 
L 54.890625 0 
L 45.90625 0 
L 45.90625 32.71875 
Q 45.90625 40.484375 42.875 44.328125 
Q 39.84375 48.1875 33.796875 48.1875 
Q 26.515625 48.1875 22.3125 43.546875 
Q 18.109375 38.921875 18.109375 30.90625 
L 18.109375 0 
L 9.078125 0 
L 9.078125 54.6875 
L 18.109375 54.6875 
L 18.109375 46.1875 
Q 21.34375 51.125 25.703125 53.5625 
Q 30.078125 56 35.796875 56 
Q 45.21875 56 50.046875 50.171875 
Q 54.890625 44.34375 54.890625 33.015625 
z
" id="DejaVuSans-110"/>
     <path d="M 48.78125 52.59375 
L 48.78125 44.1875 
Q 44.96875 46.296875 41.140625 47.34375 
Q 37.3125 48.390625 33.40625 48.390625 
Q 24.65625 48.390625 19.8125 42.84375 
Q 14.984375 37.3125 14.984375 27.296875 
Q 14.984375 17.28125 19.8125 11.734375 
Q 24.65625 6.203125 33.40625 6.203125 
Q 37.3125 6.203125 41.140625 7.25 
Q 44.96875 8.296875 48.78125 10.40625 
L 48.78125 2.09375 
Q 45.015625 0.34375 40.984375 -0.53125 
Q 36.96875 -1.421875 32.421875 -1.421875 
Q 20.0625 -1.421875 12.78125 6.34375 
Q 5.515625 14.109375 5.515625 27.296875 
Q 5.515625 40.671875 12.859375 48.328125 
Q 20.21875 56 33.015625 56 
Q 37.15625 56 41.109375 55.140625 
Q 45.0625 54.296875 48.78125 52.59375 
z
" id="DejaVuSans-99"/>
     <path d="M 54.890625 33.015625 
L 54.890625 0 
L 45.90625 0 
L 45.90625 32.71875 
Q 45.90625 40.484375 42.875 44.328125 
Q 39.84375 48.1875 33.796875 48.1875 
Q 26.515625 48.1875 22.3125 43.546875 
Q 18.109375 38.921875 18.109375 30.90625 
L 18.109375 0 
L 9.078125 0 
L 9.078125 75.984375 
L 18.109375 75.984375 
L 18.109375 46.1875 
Q 21.34375 51.125 25.703125 53.5625 
Q 30.078125 56 35.796875 56 
Q 45.21875 56 50.046875 50.171875 
Q 54.890625 44.34375 54.890625 33.015625 
z
" id="DejaVuSans-104"/>
    </defs>
    <g transform="translate(393.830608 185.8375)scale(0.1 -0.1)">
     <use xlink:href="#DejaVuSans-76"/>
     <use x="53.962891" xlink:href="#DejaVuSans-117"/>
     <use x="117.341797" xlink:href="#DejaVuSans-110"/>
     <use x="180.720703" xlink:href="#DejaVuSans-99"/>
     <use x="235.701172" xlink:href="#DejaVuSans-104"/>
    </g>
   </g>
   <g id="patch_8">
    <path d="M 365.830608 200.515625 
L 385.830608 200.515625 
L 385.830608 193.515625 
L 365.830608 193.515625 
z
" style="fill:#e1812c;stroke:#3f3f3f;stroke-linejoin:miter;stroke-width:0.75;"/>
   </g>
   <g id="text_14">
    <!-- Dinner -->
    <defs>
     <path d="M 19.671875 64.796875 
L 19.671875 8.109375 
L 31.59375 8.109375 
Q 46.6875 8.109375 53.6875 14.9375 
Q 60.6875 21.78125 60.6875 36.53125 
Q 60.6875 51.171875 53.6875 57.984375 
Q 46.6875 64.796875 31.59375 64.796875 
z
M 9.8125 72.90625 
L 30.078125 72.90625 
Q 51.265625 72.90625 61.171875 64.09375 
Q 71.09375 55.28125 71.09375 36.53125 
Q 71.09375 17.671875 61.125 8.828125 
Q 51.171875 0 30.078125 0 
L 9.8125 0 
z
" id="DejaVuSans-68"/>
     <path d="M 41.109375 46.296875 
Q 39.59375 47.171875 37.8125 47.578125 
Q 36.03125 48 33.890625 48 
Q 26.265625 48 22.1875 43.046875 
Q 18.109375 38.09375 18.109375 28.8125 
L 18.109375 0 
L 9.078125 0 
L 9.078125 54.6875 
L 18.109375 54.6875 
L 18.109375 46.1875 
Q 20.953125 51.171875 25.484375 53.578125 
Q 30.03125 56 36.53125 56 
Q 37.453125 56 38.578125 55.875 
Q 39.703125 55.765625 41.0625 55.515625 
z
" id="DejaVuSans-114"/>
    </defs>
    <g transform="translate(393.830608 200.515625)scale(0.1 -0.1)">
     <use xlink:href="#DejaVuSans-68"/>
     <use x="77.001953" xlink:href="#DejaVuSans-105"/>
     <use x="104.785156" xlink:href="#DejaVuSans-110"/>
     <use x="168.164062" xlink:href="#DejaVuSans-110"/>
     <use x="231.542969" xlink:href="#DejaVuSans-101"/>
     <use x="293.066406" xlink:href="#DejaVuSans-114"/>
    </g>
   </g>
  </g>
 </g>
 <defs>
  <clipPath id="pb21f80dc57">
   <rect height="321.4" width="319.245295" x="40.88125" y="7.2"/>
  </clipPath>
 </defs>
</svg>
