<?xml version="1.0" encoding="utf-8" standalone="no"?>
<!DOCTYPE svg PUBLIC "-//W3C//DTD SVG 1.1//EN"
  "http://www.w3.org/Graphics/SVG/1.1/DTD/svg11.dtd">
<!-- Created with matplotlib (https://matplotlib.org/) -->
<svg height="366.434375pt" version="1.1" viewBox="0 0 437.215113 366.434375" width="437.215113pt" xmlns="http://www.w3.org/2000/svg" xmlns:xlink="http://www.w3.org/1999/xlink">
 <defs>
  <style type="text/css">
*{stroke-linecap:butt;stroke-linejoin:round;}
  </style>
 </defs>
 <g id="figure_1">
  <g id="patch_1">
   <path d="M 0 366.434375 
L 437.215113 366.434375 
L 437.215113 0 
L 0 0 
z
" style="fill:none;"/>
  </g>
  <g id="axes_1">
   <g id="patch_2">
    <path d="M 34.240625 328.6 
L 361.093863 328.6 
L 361.093863 7.2 
L 34.240625 7.2 
z
" style="fill:#ffffff;"/>
   </g>
   <g id="PathCollection_1">
    <defs>
     <path d="M 0 3 
C 0.795609 3 1.55874 2.683901 2.12132 2.12132 
C 2.683901 1.55874 3 0.795609 3 0 
C 3 -0.795609 2.683901 -1.55874 2.12132 -2.12132 
C 1.55874 -2.683901 0.795609 -3 0 -3 
C -0.795609 -3 -1.55874 -2.683901 -2.12132 -2.12132 
C -2.683901 -1.55874 -3 -0.795609 -3 0 
C -3 0.795609 -2.683901 1.55874 -2.12132 2.12132 
C -1.55874 2.683901 -0.795609 3 0 3 
z
" id="C0_0_8dbd7cf030"/>
    </defs>
    <g clip-path="url(#pffa6aa115f)">
     <use style="fill:#ff7f0e;stroke:#ffffff;stroke-width:0.48;" x="149.41724" xlink:href="#C0_0_8dbd7cf030" y="313.459669"/>
    </g>
    <g clip-path="url(#pffa6aa115f)">
     <use style="fill:#ff7f0e;stroke:#ffffff;stroke-width:0.48;" x="204.189463" xlink:href="#C0_0_8dbd7cf030" y="175.337355"/>
    </g>
    <g clip-path="url(#pffa6aa115f)">
     <use style="fill:#ff7f0e;stroke:#ffffff;stroke-width:0.48;" x="281.08678" xlink:href="#C0_0_8dbd7cf030" y="101.495041"/>
    </g>
    <g clip-path="url(#pffa6aa115f)">
     <use style="fill:#ff7f0e;stroke:#ffffff;stroke-width:0.48;" x="133.850398" xlink:href="#C0_0_8dbd7cf030" y="206.680496"/>
    </g>
    <g clip-path="url(#pffa6aa115f)">
     <use style="fill:#ff7f0e;stroke:#ffffff;stroke-width:0.48;" x="101.419477" xlink:href="#C0_0_8dbd7cf030" y="278.397851"/>
    </g>
    <g clip-path="url(#pffa6aa115f)">
     <use style="fill:#ff7f0e;stroke:#ffffff;stroke-width:0.48;" x="149.273103" xlink:href="#C0_0_8dbd7cf030" y="181.180992"/>
    </g>
    <g clip-path="url(#pffa6aa115f)">
     <use style="fill:#ff7f0e;stroke:#ffffff;stroke-width:0.48;" x="173.199916" xlink:href="#C0_0_8dbd7cf030" y="221.023967"/>
    </g>
    <g clip-path="url(#pffa6aa115f)">
     <use style="fill:#ff7f0e;stroke:#ffffff;stroke-width:0.48;" x="140.624857" xlink:href="#C0_0_8dbd7cf030" y="248.64843"/>
    </g>
    <g clip-path="url(#pffa6aa115f)">
     <use style="fill:#ff7f0e;stroke:#ffffff;stroke-width:0.48;" x="168.587518" xlink:href="#C0_0_8dbd7cf030" y="207.742975"/>
    </g>
    <g clip-path="url(#pffa6aa115f)">
     <use style="fill:#ff7f0e;stroke:#ffffff;stroke-width:0.48;" x="135.507978" xlink:href="#C0_0_8dbd7cf030" y="207.742975"/>
    </g>
    <g clip-path="url(#pffa6aa115f)">
     <use style="fill:#ff7f0e;stroke:#ffffff;stroke-width:0.48;" x="176.082664" xlink:href="#C0_0_8dbd7cf030" y="236.961157"/>
    </g>
    <g clip-path="url(#pffa6aa115f)">
     <use style="fill:#ff7f0e;stroke:#ffffff;stroke-width:0.48;" x="148.984828" xlink:href="#C0_0_8dbd7cf030" y="204.024298"/>
    </g>
    <g clip-path="url(#pffa6aa115f)">
     <use style="fill:#ff7f0e;stroke:#ffffff;stroke-width:0.48;" x="101.131202" xlink:href="#C0_0_8dbd7cf030" y="228.992562"/>
    </g>
    <g clip-path="url(#pffa6aa115f)">
     <use style="fill:#ff7f0e;stroke:#ffffff;stroke-width:0.48;" x="277.843688" xlink:href="#C0_0_8dbd7cf030" y="90.870248"/>
    </g>
    <g clip-path="url(#pffa6aa115f)">
     <use style="fill:#ff7f0e;stroke:#ffffff;stroke-width:0.48;" x="217.305968" xlink:href="#C0_0_8dbd7cf030" y="287.428926"/>
    </g>
    <g clip-path="url(#pffa6aa115f)">
     <use style="fill:#ff7f0e;stroke:#ffffff;stroke-width:0.48;" x="145.525529" xlink:href="#C0_0_8dbd7cf030" y="235.898678"/>
    </g>
    <g clip-path="url(#pffa6aa115f)">
     <use style="fill:#ff7f0e;stroke:#ffffff;stroke-width:0.48;" x="49.09759" xlink:href="#C0_0_8dbd7cf030" y="313.990909"/>
    </g>
    <g clip-path="url(#pffa6aa115f)">
     <use style="fill:#ff7f0e;stroke:#ffffff;stroke-width:0.48;" x="149.99379" xlink:href="#C0_0_8dbd7cf030" y="207.742975"/>
    </g>
    <g clip-path="url(#pffa6aa115f)">
     <use style="fill:#ff7f0e;stroke:#ffffff;stroke-width:0.48;" x="220.549061" xlink:href="#C0_0_8dbd7cf030" y="200.30562"/>
    </g>
    <g clip-path="url(#pffa6aa115f)">
     <use style="fill:#ff7f0e;stroke:#ffffff;stroke-width:0.48;" x="209.162204" xlink:href="#C0_0_8dbd7cf030" y="101.495041"/>
    </g>
    <g clip-path="url(#pffa6aa115f)">
     <use style="fill:#ff7f0e;stroke:#ffffff;stroke-width:0.48;" x="133.129711" xlink:href="#C0_0_8dbd7cf030" y="250.242149"/>
    </g>
    <g clip-path="url(#pffa6aa115f)">
     <use style="fill:#1f77b4;stroke:#ffffff;stroke-width:0.48;" x="99.54569" xlink:href="#C0_0_8dbd7cf030" y="269.898017"/>
    </g>
    <g clip-path="url(#pffa6aa115f)">
     <use style="fill:#1f77b4;stroke:#ffffff;stroke-width:0.48;" x="277.987825" xlink:href="#C0_0_8dbd7cf030" y="92.463967"/>
    </g>
    <g clip-path="url(#pffa6aa115f)">
     <use style="fill:#ff7f0e;stroke:#ffffff;stroke-width:0.48;" x="68.412006" xlink:href="#C0_0_8dbd7cf030" y="313.990909"/>
    </g>
    <g clip-path="url(#pffa6aa115f)">
     <use style="fill:#ff7f0e;stroke:#ffffff;stroke-width:0.48;" x="144.588636" xlink:href="#C0_0_8dbd7cf030" y="138.681818"/>
    </g>
    <g clip-path="url(#pffa6aa115f)">
     <use style="fill:#ff7f0e;stroke:#ffffff;stroke-width:0.48;" x="190.928819" xlink:href="#C0_0_8dbd7cf030" y="194.461983"/>
    </g>
    <g clip-path="url(#pffa6aa115f)">
     <use style="fill:#ff7f0e;stroke:#ffffff;stroke-width:0.48;" x="108.770485" xlink:href="#C0_0_8dbd7cf030" y="234.304959"/>
    </g>
    <g clip-path="url(#pffa6aa115f)">
     <use style="fill:#ff7f0e;stroke:#ffffff;stroke-width:0.48;" x="137.814177" xlink:href="#C0_0_8dbd7cf030" y="207.742975"/>
    </g>
    <g clip-path="url(#pffa6aa115f)">
     <use style="fill:#ff7f0e;stroke:#ffffff;stroke-width:0.48;" x="346.236897" xlink:href="#C0_0_8dbd7cf030" y="234.304959"/>
    </g>
    <g clip-path="url(#pffa6aa115f)">
     <use style="fill:#ff7f0e;stroke:#ffffff;stroke-width:0.48;" x="188.550552" xlink:href="#C0_0_8dbd7cf030" y="182.243471"/>
    </g>
    <g clip-path="url(#pffa6aa115f)">
     <use style="fill:#ff7f0e;stroke:#ffffff;stroke-width:0.48;" x="177.740245" xlink:href="#C0_0_8dbd7cf030" y="150.369091"/>
    </g>
    <g clip-path="url(#pffa6aa115f)">
     <use style="fill:#ff7f0e;stroke:#ffffff;stroke-width:0.48;" x="130.102825" xlink:href="#C0_0_8dbd7cf030" y="154.619008"/>
    </g>
    <g clip-path="url(#pffa6aa115f)">
     <use style="fill:#ff7f0e;stroke:#ffffff;stroke-width:0.48;" x="79.222313" xlink:href="#C0_0_8dbd7cf030" y="313.990909"/>
    </g>
    <g clip-path="url(#pffa6aa115f)">
     <use style="fill:#ff7f0e;stroke:#ffffff;stroke-width:0.48;" x="212.261158" xlink:href="#C0_0_8dbd7cf030" y="154.619008"/>
    </g>
    <g clip-path="url(#pffa6aa115f)">
     <use style="fill:#ff7f0e;stroke:#ffffff;stroke-width:0.48;" x="151.723439" xlink:href="#C0_0_8dbd7cf030" y="181.180992"/>
    </g>
    <g clip-path="url(#pffa6aa115f)">
     <use style="fill:#1f77b4;stroke:#ffffff;stroke-width:0.48;" x="103.725675" xlink:href="#C0_0_8dbd7cf030" y="287.428926"/>
    </g>
    <g clip-path="url(#pffa6aa115f)">
     <use style="fill:#1f77b4;stroke:#ffffff;stroke-width:0.48;" x="116.553907" xlink:href="#C0_0_8dbd7cf030" y="271.491736"/>
    </g>
    <g clip-path="url(#pffa6aa115f)">
     <use style="fill:#1f77b4;stroke:#ffffff;stroke-width:0.48;" x="200.513958" xlink:href="#C0_0_8dbd7cf030" y="211.992893"/>
    </g>
    <g clip-path="url(#pffa6aa115f)">
     <use style="fill:#1f77b4;stroke:#ffffff;stroke-width:0.48;" x="123.688709" xlink:href="#C0_0_8dbd7cf030" y="277.866612"/>
    </g>
    <g clip-path="url(#pffa6aa115f)">
     <use style="fill:#1f77b4;stroke:#ffffff;stroke-width:0.48;" x="116.91425" xlink:href="#C0_0_8dbd7cf030" y="233.242479"/>
    </g>
    <g clip-path="url(#pffa6aa115f)">
     <use style="fill:#1f77b4;stroke:#ffffff;stroke-width:0.48;" x="241.737262" xlink:href="#C0_0_8dbd7cf030" y="143.994215"/>
    </g>
    <g clip-path="url(#pffa6aa115f)">
     <use style="fill:#1f77b4;stroke:#ffffff;stroke-width:0.48;" x="131.616268" xlink:href="#C0_0_8dbd7cf030" y="260.866942"/>
    </g>
    <g clip-path="url(#pffa6aa115f)">
     <use style="fill:#1f77b4;stroke:#ffffff;stroke-width:0.48;" x="108.986692" xlink:href="#C0_0_8dbd7cf030" y="260.866942"/>
    </g>
    <g clip-path="url(#pffa6aa115f)">
     <use style="fill:#1f77b4;stroke:#ffffff;stroke-width:0.48;" x="173.055778" xlink:href="#C0_0_8dbd7cf030" y="216.77405"/>
    </g>
    <g clip-path="url(#pffa6aa115f)">
     <use style="fill:#1f77b4;stroke:#ffffff;stroke-width:0.48;" x="107.473249" xlink:href="#C0_0_8dbd7cf030" y="287.428926"/>
    </g>
    <g clip-path="url(#pffa6aa115f)">
     <use style="fill:#1f77b4;stroke:#ffffff;stroke-width:0.48;" x="115.328738" xlink:href="#C0_0_8dbd7cf030" y="260.866942"/>
    </g>
    <g clip-path="url(#pffa6aa115f)">
     <use style="fill:#1f77b4;stroke:#ffffff;stroke-width:0.48;" x="158.569967" xlink:href="#C0_0_8dbd7cf030" y="194.461983"/>
    </g>
    <g clip-path="url(#pffa6aa115f)">
     <use style="fill:#1f77b4;stroke:#ffffff;stroke-width:0.48;" x="88.302971" xlink:href="#C0_0_8dbd7cf030" y="300.709917"/>
    </g>
    <g clip-path="url(#pffa6aa115f)">
     <use style="fill:#1f77b4;stroke:#ffffff;stroke-width:0.48;" x="101.419477" xlink:href="#C0_0_8dbd7cf030" y="260.866942"/>
    </g>
    <g clip-path="url(#pffa6aa115f)">
     <use style="fill:#1f77b4;stroke:#ffffff;stroke-width:0.48;" x="128.949725" xlink:href="#C0_0_8dbd7cf030" y="260.866942"/>
    </g>
    <g clip-path="url(#pffa6aa115f)">
     <use style="fill:#1f77b4;stroke:#ffffff;stroke-width:0.48;" x="121.814923" xlink:href="#C0_0_8dbd7cf030" y="221.023967"/>
    </g>
    <g clip-path="url(#pffa6aa115f)">
     <use style="fill:#1f77b4;stroke:#ffffff;stroke-width:0.48;" x="152.876538" xlink:href="#C0_0_8dbd7cf030" y="181.180992"/>
    </g>
    <g clip-path="url(#pffa6aa115f)">
     <use style="fill:#1f77b4;stroke:#ffffff;stroke-width:0.48;" x="221.918366" xlink:href="#C0_0_8dbd7cf030" y="101.495041"/>
    </g>
    <g clip-path="url(#pffa6aa115f)">
     <use style="fill:#1f77b4;stroke:#ffffff;stroke-width:0.48;" x="145.381392" xlink:href="#C0_0_8dbd7cf030" y="244.929752"/>
    </g>
    <g clip-path="url(#pffa6aa115f)">
     <use style="fill:#1f77b4;stroke:#ffffff;stroke-width:0.48;" x="87.149871" xlink:href="#C0_0_8dbd7cf030" y="287.428926"/>
    </g>
    <g clip-path="url(#pffa6aa115f)">
     <use style="fill:#1f77b4;stroke:#ffffff;stroke-width:0.48;" x="161.308578" xlink:href="#C0_0_8dbd7cf030" y="294.866281"/>
    </g>
    <g clip-path="url(#pffa6aa115f)">
     <use style="fill:#1f77b4;stroke:#ffffff;stroke-width:0.48;" x="112.518059" xlink:href="#C0_0_8dbd7cf030" y="280.52281"/>
    </g>
    <g clip-path="url(#pffa6aa115f)">
     <use style="fill:#ff7f0e;stroke:#ffffff;stroke-width:0.48;" x="242.097606" xlink:href="#C0_0_8dbd7cf030" y="94.057686"/>
    </g>
    <g clip-path="url(#pffa6aa115f)">
     <use style="fill:#ff7f0e;stroke:#ffffff;stroke-width:0.48;" x="207.14428" xlink:href="#C0_0_8dbd7cf030" y="167.9"/>
    </g>
    <g clip-path="url(#pffa6aa115f)">
     <use style="fill:#ff7f0e;stroke:#ffffff;stroke-width:0.48;" x="123.472503" xlink:href="#C0_0_8dbd7cf030" y="228.461322"/>
    </g>
    <g clip-path="url(#pffa6aa115f)">
     <use style="fill:#ff7f0e;stroke:#ffffff;stroke-width:0.48;" x="143.79588" xlink:href="#C0_0_8dbd7cf030" y="260.866942"/>
    </g>
    <g clip-path="url(#pffa6aa115f)">
     <use style="fill:#ff7f0e;stroke:#ffffff;stroke-width:0.48;" x="153.164813" xlink:href="#C0_0_8dbd7cf030" y="207.742975"/>
    </g>
    <g clip-path="url(#pffa6aa115f)">
     <use style="fill:#ff7f0e;stroke:#ffffff;stroke-width:0.48;" x="103.293263" xlink:href="#C0_0_8dbd7cf030" y="281.585289"/>
    </g>
    <g clip-path="url(#pffa6aa115f)">
     <use style="fill:#ff7f0e;stroke:#ffffff;stroke-width:0.48;" x="103.581538" xlink:href="#C0_0_8dbd7cf030" y="260.866942"/>
    </g>
    <g clip-path="url(#pffa6aa115f)">
     <use style="fill:#ff7f0e;stroke:#ffffff;stroke-width:0.48;" x="96.15846" xlink:href="#C0_0_8dbd7cf030" y="154.619008"/>
    </g>
    <g clip-path="url(#pffa6aa115f)">
     <use style="fill:#ff7f0e;stroke:#ffffff;stroke-width:0.48;" x="177.596107" xlink:href="#C0_0_8dbd7cf030" y="181.180992"/>
    </g>
    <g clip-path="url(#pffa6aa115f)">
     <use style="fill:#ff7f0e;stroke:#ffffff;stroke-width:0.48;" x="157.777211" xlink:href="#C0_0_8dbd7cf030" y="181.180992"/>
    </g>
    <g clip-path="url(#pffa6aa115f)">
     <use style="fill:#1f77b4;stroke:#ffffff;stroke-width:0.48;" x="169.740617" xlink:href="#C0_0_8dbd7cf030" y="144.525455"/>
    </g>
    <g clip-path="url(#pffa6aa115f)">
     <use style="fill:#1f77b4;stroke:#ffffff;stroke-width:0.48;" x="337.660721" xlink:href="#C0_0_8dbd7cf030" y="101.495041"/>
    </g>
    <g clip-path="url(#pffa6aa115f)">
     <use style="fill:#1f77b4;stroke:#ffffff;stroke-width:0.48;" x="120.661823" xlink:href="#C0_0_8dbd7cf030" y="260.866942"/>
    </g>
    <g clip-path="url(#pffa6aa115f)">
     <use style="fill:#1f77b4;stroke:#ffffff;stroke-width:0.48;" x="118.788037" xlink:href="#C0_0_8dbd7cf030" y="260.335702"/>
    </g>
    <g clip-path="url(#pffa6aa115f)">
     <use style="fill:#1f77b4;stroke:#ffffff;stroke-width:0.48;" x="120.661823" xlink:href="#C0_0_8dbd7cf030" y="260.866942"/>
    </g>
    <g clip-path="url(#pffa6aa115f)">
     <use style="fill:#1f77b4;stroke:#ffffff;stroke-width:0.48;" x="145.165186" xlink:href="#C0_0_8dbd7cf030" y="234.304959"/>
    </g>
    <g clip-path="url(#pffa6aa115f)">
     <use style="fill:#1f77b4;stroke:#ffffff;stroke-width:0.48;" x="145.669667" xlink:href="#C0_0_8dbd7cf030" y="195.524463"/>
    </g>
    <g clip-path="url(#pffa6aa115f)">
     <use style="fill:#ff7f0e;stroke:#ffffff;stroke-width:0.48;" x="118.932174" xlink:href="#C0_0_8dbd7cf030" y="248.64843"/>
    </g>
    <g clip-path="url(#pffa6aa115f)">
     <use style="fill:#ff7f0e;stroke:#ffffff;stroke-width:0.48;" x="122.607678" xlink:href="#C0_0_8dbd7cf030" y="234.304959"/>
    </g>
    <g clip-path="url(#pffa6aa115f)">
     <use style="fill:#ff7f0e;stroke:#ffffff;stroke-width:0.48;" x="229.990062" xlink:href="#C0_0_8dbd7cf030" y="21.809091"/>
    </g>
    <g clip-path="url(#pffa6aa115f)">
     <use style="fill:#ff7f0e;stroke:#ffffff;stroke-width:0.48;" x="119.941136" xlink:href="#C0_0_8dbd7cf030" y="308.678512"/>
    </g>
    <g clip-path="url(#pffa6aa115f)">
     <use style="fill:#ff7f0e;stroke:#ffffff;stroke-width:0.48;" x="244.187599" xlink:href="#C0_0_8dbd7cf030" y="202.961818"/>
    </g>
    <g clip-path="url(#pffa6aa115f)">
     <use style="fill:#1f77b4;stroke:#ffffff;stroke-width:0.48;" x="123.688709" xlink:href="#C0_0_8dbd7cf030" y="182.243471"/>
    </g>
    <g clip-path="url(#pffa6aa115f)">
     <use style="fill:#1f77b4;stroke:#ffffff;stroke-width:0.48;" x="142.1383" xlink:href="#C0_0_8dbd7cf030" y="207.742975"/>
    </g>
    <g clip-path="url(#pffa6aa115f)">
     <use style="fill:#1f77b4;stroke:#ffffff;stroke-width:0.48;" x="144.228293" xlink:href="#C0_0_8dbd7cf030" y="234.304959"/>
    </g>
    <g clip-path="url(#pffa6aa115f)">
     <use style="fill:#1f77b4;stroke:#ffffff;stroke-width:0.48;" x="99.689827" xlink:href="#C0_0_8dbd7cf030" y="260.866942"/>
    </g>
    <g clip-path="url(#pffa6aa115f)">
     <use style="fill:#ff7f0e;stroke:#ffffff;stroke-width:0.48;" x="186.38849" xlink:href="#C0_0_8dbd7cf030" y="214.117851"/>
    </g>
    <g clip-path="url(#pffa6aa115f)">
     <use style="fill:#ff7f0e;stroke:#ffffff;stroke-width:0.48;" x="285.194697" xlink:href="#C0_0_8dbd7cf030" y="119.02595"/>
    </g>
    <g clip-path="url(#pffa6aa115f)">
     <use style="fill:#ff7f0e;stroke:#ffffff;stroke-width:0.48;" x="222.855259" xlink:href="#C0_0_8dbd7cf030" y="260.866942"/>
    </g>
    <g clip-path="url(#pffa6aa115f)">
     <use style="fill:#ff7f0e;stroke:#ffffff;stroke-width:0.48;" x="162.31754" xlink:href="#C0_0_8dbd7cf030" y="207.742975"/>
    </g>
   </g>
   <g id="PathCollection_2"/>
   <g id="PathCollection_3"/>
   <g id="matplotlib.axis_1">
    <g id="xtick_1">
     <g id="line2d_1">
      <defs>
       <path d="M 0 0 
L 0 3.5 
" id="mbccff376ea" style="stroke:#000000;stroke-width:0.8;"/>
      </defs>
      <g>
       <use style="stroke:#000000;stroke-width:0.8;" x="99.041209" xlink:href="#mbccff376ea" y="328.6"/>
      </g>
     </g>
     <g id="text_1">
      <!-- 10 -->
      <defs>
       <path d="M 12.40625 8.296875 
L 28.515625 8.296875 
L 28.515625 63.921875 
L 10.984375 60.40625 
L 10.984375 69.390625 
L 28.421875 72.90625 
L 38.28125 72.90625 
L 38.28125 8.296875 
L 54.390625 8.296875 
L 54.390625 0 
L 12.40625 0 
z
" id="DejaVuSans-49"/>
       <path d="M 31.78125 66.40625 
Q 24.171875 66.40625 20.328125 58.90625 
Q 16.5 51.421875 16.5 36.375 
Q 16.5 21.390625 20.328125 13.890625 
Q 24.171875 6.390625 31.78125 6.390625 
Q 39.453125 6.390625 43.28125 13.890625 
Q 47.125 21.390625 47.125 36.375 
Q 47.125 51.421875 43.28125 58.90625 
Q 39.453125 66.40625 31.78125 66.40625 
z
M 31.78125 74.21875 
Q 44.046875 74.21875 50.515625 64.515625 
Q 56.984375 54.828125 56.984375 36.375 
Q 56.984375 17.96875 50.515625 8.265625 
Q 44.046875 -1.421875 31.78125 -1.421875 
Q 19.53125 -1.421875 13.0625 8.265625 
Q 6.59375 17.96875 6.59375 36.375 
Q 6.59375 54.828125 13.0625 64.515625 
Q 19.53125 74.21875 31.78125 74.21875 
z
" id="DejaVuSans-48"/>
      </defs>
      <g transform="translate(92.678709 343.198437)scale(0.1 -0.1)">
       <use xlink:href="#DejaVuSans-49"/>
       <use x="63.623047" xlink:href="#DejaVuSans-48"/>
      </g>
     </g>
    </g>
    <g id="xtick_2">
     <g id="line2d_2">
      <g>
       <use style="stroke:#000000;stroke-width:0.8;" x="171.109923" xlink:href="#mbccff376ea" y="328.6"/>
      </g>
     </g>
     <g id="text_2">
      <!-- 20 -->
      <defs>
       <path d="M 19.1875 8.296875 
L 53.609375 8.296875 
L 53.609375 0 
L 7.328125 0 
L 7.328125 8.296875 
Q 12.9375 14.109375 22.625 23.890625 
Q 32.328125 33.6875 34.8125 36.53125 
Q 39.546875 41.84375 41.421875 45.53125 
Q 43.3125 49.21875 43.3125 52.78125 
Q 43.3125 58.59375 39.234375 62.25 
Q 35.15625 65.921875 28.609375 65.921875 
Q 23.96875 65.921875 18.8125 64.3125 
Q 13.671875 62.703125 7.8125 59.421875 
L 7.8125 69.390625 
Q 13.765625 71.78125 18.9375 73 
Q 24.125 74.21875 28.421875 74.21875 
Q 39.75 74.21875 46.484375 68.546875 
Q 53.21875 62.890625 53.21875 53.421875 
Q 53.21875 48.921875 51.53125 44.890625 
Q 49.859375 40.875 45.40625 35.40625 
Q 44.1875 33.984375 37.640625 27.21875 
Q 31.109375 20.453125 19.1875 8.296875 
z
" id="DejaVuSans-50"/>
      </defs>
      <g transform="translate(164.747423 343.198437)scale(0.1 -0.1)">
       <use xlink:href="#DejaVuSans-50"/>
       <use x="63.623047" xlink:href="#DejaVuSans-48"/>
      </g>
     </g>
    </g>
    <g id="xtick_3">
     <g id="line2d_3">
      <g>
       <use style="stroke:#000000;stroke-width:0.8;" x="243.178637" xlink:href="#mbccff376ea" y="328.6"/>
      </g>
     </g>
     <g id="text_3">
      <!-- 30 -->
      <defs>
       <path d="M 40.578125 39.3125 
Q 47.65625 37.796875 51.625 33 
Q 55.609375 28.21875 55.609375 21.1875 
Q 55.609375 10.40625 48.1875 4.484375 
Q 40.765625 -1.421875 27.09375 -1.421875 
Q 22.515625 -1.421875 17.65625 -0.515625 
Q 12.796875 0.390625 7.625 2.203125 
L 7.625 11.71875 
Q 11.71875 9.328125 16.59375 8.109375 
Q 21.484375 6.890625 26.8125 6.890625 
Q 36.078125 6.890625 40.9375 10.546875 
Q 45.796875 14.203125 45.796875 21.1875 
Q 45.796875 27.640625 41.28125 31.265625 
Q 36.765625 34.90625 28.71875 34.90625 
L 20.21875 34.90625 
L 20.21875 43.015625 
L 29.109375 43.015625 
Q 36.375 43.015625 40.234375 45.921875 
Q 44.09375 48.828125 44.09375 54.296875 
Q 44.09375 59.90625 40.109375 62.90625 
Q 36.140625 65.921875 28.71875 65.921875 
Q 24.65625 65.921875 20.015625 65.03125 
Q 15.375 64.15625 9.8125 62.3125 
L 9.8125 71.09375 
Q 15.4375 72.65625 20.34375 73.4375 
Q 25.25 74.21875 29.59375 74.21875 
Q 40.828125 74.21875 47.359375 69.109375 
Q 53.90625 64.015625 53.90625 55.328125 
Q 53.90625 49.265625 50.4375 45.09375 
Q 46.96875 40.921875 40.578125 39.3125 
z
" id="DejaVuSans-51"/>
      </defs>
      <g transform="translate(236.816137 343.198437)scale(0.1 -0.1)">
       <use xlink:href="#DejaVuSans-51"/>
       <use x="63.623047" xlink:href="#DejaVuSans-48"/>
      </g>
     </g>
    </g>
    <g id="xtick_4">
     <g id="line2d_4">
      <g>
       <use style="stroke:#000000;stroke-width:0.8;" x="315.247351" xlink:href="#mbccff376ea" y="328.6"/>
      </g>
     </g>
     <g id="text_4">
      <!-- 40 -->
      <defs>
       <path d="M 37.796875 64.3125 
L 12.890625 25.390625 
L 37.796875 25.390625 
z
M 35.203125 72.90625 
L 47.609375 72.90625 
L 47.609375 25.390625 
L 58.015625 25.390625 
L 58.015625 17.1875 
L 47.609375 17.1875 
L 47.609375 0 
L 37.796875 0 
L 37.796875 17.1875 
L 4.890625 17.1875 
L 4.890625 26.703125 
z
" id="DejaVuSans-52"/>
      </defs>
      <g transform="translate(308.884851 343.198437)scale(0.1 -0.1)">
       <use xlink:href="#DejaVuSans-52"/>
       <use x="63.623047" xlink:href="#DejaVuSans-48"/>
      </g>
     </g>
    </g>
    <g id="text_5">
     <!-- total_bill -->
     <defs>
      <path d="M 18.3125 70.21875 
L 18.3125 54.6875 
L 36.8125 54.6875 
L 36.8125 47.703125 
L 18.3125 47.703125 
L 18.3125 18.015625 
Q 18.3125 11.328125 20.140625 9.421875 
Q 21.96875 7.515625 27.59375 7.515625 
L 36.8125 7.515625 
L 36.8125 0 
L 27.59375 0 
Q 17.1875 0 13.234375 3.875 
Q 9.28125 7.765625 9.28125 18.015625 
L 9.28125 47.703125 
L 2.6875 47.703125 
L 2.6875 54.6875 
L 9.28125 54.6875 
L 9.28125 70.21875 
z
" id="DejaVuSans-116"/>
      <path d="M 30.609375 48.390625 
Q 23.390625 48.390625 19.1875 42.75 
Q 14.984375 37.109375 14.984375 27.296875 
Q 14.984375 17.484375 19.15625 11.84375 
Q 23.34375 6.203125 30.609375 6.203125 
Q 37.796875 6.203125 41.984375 11.859375 
Q 46.1875 17.53125 46.1875 27.296875 
Q 46.1875 37.015625 41.984375 42.703125 
Q 37.796875 48.390625 30.609375 48.390625 
z
M 30.609375 56 
Q 42.328125 56 49.015625 48.375 
Q 55.71875 40.765625 55.71875 27.296875 
Q 55.71875 13.875 49.015625 6.21875 
Q 42.328125 -1.421875 30.609375 -1.421875 
Q 18.84375 -1.421875 12.171875 6.21875 
Q 5.515625 13.875 5.515625 27.296875 
Q 5.515625 40.765625 12.171875 48.375 
Q 18.84375 56 30.609375 56 
z
" id="DejaVuSans-111"/>
      <path d="M 34.28125 27.484375 
Q 23.390625 27.484375 19.1875 25 
Q 14.984375 22.515625 14.984375 16.5 
Q 14.984375 11.71875 18.140625 8.90625 
Q 21.296875 6.109375 26.703125 6.109375 
Q 34.1875 6.109375 38.703125 11.40625 
Q 43.21875 16.703125 43.21875 25.484375 
L 43.21875 27.484375 
z
M 52.203125 31.203125 
L 52.203125 0 
L 43.21875 0 
L 43.21875 8.296875 
Q 40.140625 3.328125 35.546875 0.953125 
Q 30.953125 -1.421875 24.3125 -1.421875 
Q 15.921875 -1.421875 10.953125 3.296875 
Q 6 8.015625 6 15.921875 
Q 6 25.140625 12.171875 29.828125 
Q 18.359375 34.515625 30.609375 34.515625 
L 43.21875 34.515625 
L 43.21875 35.40625 
Q 43.21875 41.609375 39.140625 45 
Q 35.0625 48.390625 27.6875 48.390625 
Q 23 48.390625 18.546875 47.265625 
Q 14.109375 46.140625 10.015625 43.890625 
L 10.015625 52.203125 
Q 14.9375 54.109375 19.578125 55.046875 
Q 24.21875 56 28.609375 56 
Q 40.484375 56 46.34375 49.84375 
Q 52.203125 43.703125 52.203125 31.203125 
z
" id="DejaVuSans-97"/>
      <path d="M 9.421875 75.984375 
L 18.40625 75.984375 
L 18.40625 0 
L 9.421875 0 
z
" id="DejaVuSans-108"/>
      <path d="M 50.984375 -16.609375 
L 50.984375 -23.578125 
L -0.984375 -23.578125 
L -0.984375 -16.609375 
z
" id="DejaVuSans-95"/>
      <path d="M 48.6875 27.296875 
Q 48.6875 37.203125 44.609375 42.84375 
Q 40.53125 48.484375 33.40625 48.484375 
Q 26.265625 48.484375 22.1875 42.84375 
Q 18.109375 37.203125 18.109375 27.296875 
Q 18.109375 17.390625 22.1875 11.75 
Q 26.265625 6.109375 33.40625 6.109375 
Q 40.53125 6.109375 44.609375 11.75 
Q 48.6875 17.390625 48.6875 27.296875 
z
M 18.109375 46.390625 
Q 20.953125 51.265625 25.265625 53.625 
Q 29.59375 56 35.59375 56 
Q 45.5625 56 51.78125 48.09375 
Q 58.015625 40.1875 58.015625 27.296875 
Q 58.015625 14.40625 51.78125 6.484375 
Q 45.5625 -1.421875 35.59375 -1.421875 
Q 29.59375 -1.421875 25.265625 0.953125 
Q 20.953125 3.328125 18.109375 8.203125 
L 18.109375 0 
L 9.078125 0 
L 9.078125 75.984375 
L 18.109375 75.984375 
z
" id="DejaVuSans-98"/>
      <path d="M 9.421875 54.6875 
L 18.40625 54.6875 
L 18.40625 0 
L 9.421875 0 
z
M 9.421875 75.984375 
L 18.40625 75.984375 
L 18.40625 64.59375 
L 9.421875 64.59375 
z
" id="DejaVuSans-105"/>
     </defs>
     <g transform="translate(176.393025 356.876562)scale(0.1 -0.1)">
      <use xlink:href="#DejaVuSans-116"/>
      <use x="39.208984" xlink:href="#DejaVuSans-111"/>
      <use x="100.390625" xlink:href="#DejaVuSans-116"/>
      <use x="139.599609" xlink:href="#DejaVuSans-97"/>
      <use x="200.878906" xlink:href="#DejaVuSans-108"/>
      <use x="228.662109" xlink:href="#DejaVuSans-95"/>
      <use x="278.662109" xlink:href="#DejaVuSans-98"/>
      <use x="342.138672" xlink:href="#DejaVuSans-105"/>
      <use x="369.921875" xlink:href="#DejaVuSans-108"/>
      <use x="397.705078" xlink:href="#DejaVuSans-108"/>
     </g>
    </g>
   </g>
   <g id="matplotlib.axis_2">
    <g id="ytick_1">
     <g id="line2d_5">
      <defs>
       <path d="M 0 0 
L -3.5 0 
" id="mc6f02079d4" style="stroke:#000000;stroke-width:0.8;"/>
      </defs>
      <g>
       <use style="stroke:#000000;stroke-width:0.8;" x="34.240625" xlink:href="#mc6f02079d4" y="313.990909"/>
      </g>
     </g>
     <g id="text_6">
      <!-- 1 -->
      <g transform="translate(20.878125 317.790128)scale(0.1 -0.1)">
       <use xlink:href="#DejaVuSans-49"/>
      </g>
     </g>
    </g>
    <g id="ytick_2">
     <g id="line2d_6">
      <g>
       <use style="stroke:#000000;stroke-width:0.8;" x="34.240625" xlink:href="#mc6f02079d4" y="260.866942"/>
      </g>
     </g>
     <g id="text_7">
      <!-- 2 -->
      <g transform="translate(20.878125 264.666161)scale(0.1 -0.1)">
       <use xlink:href="#DejaVuSans-50"/>
      </g>
     </g>
    </g>
    <g id="ytick_3">
     <g id="line2d_7">
      <g>
       <use style="stroke:#000000;stroke-width:0.8;" x="34.240625" xlink:href="#mc6f02079d4" y="207.742975"/>
      </g>
     </g>
     <g id="text_8">
      <!-- 3 -->
      <g transform="translate(20.878125 211.542194)scale(0.1 -0.1)">
       <use xlink:href="#DejaVuSans-51"/>
      </g>
     </g>
    </g>
    <g id="ytick_4">
     <g id="line2d_8">
      <g>
       <use style="stroke:#000000;stroke-width:0.8;" x="34.240625" xlink:href="#mc6f02079d4" y="154.619008"/>
      </g>
     </g>
     <g id="text_9">
      <!-- 4 -->
      <g transform="translate(20.878125 158.418227)scale(0.1 -0.1)">
       <use xlink:href="#DejaVuSans-52"/>
      </g>
     </g>
    </g>
    <g id="ytick_5">
     <g id="line2d_9">
      <g>
       <use style="stroke:#000000;stroke-width:0.8;" x="34.240625" xlink:href="#mc6f02079d4" y="101.495041"/>
      </g>
     </g>
     <g id="text_10">
      <!-- 5 -->
      <defs>
       <path d="M 10.796875 72.90625 
L 49.515625 72.90625 
L 49.515625 64.59375 
L 19.828125 64.59375 
L 19.828125 46.734375 
Q 21.96875 47.46875 24.109375 47.828125 
Q 26.265625 48.1875 28.421875 48.1875 
Q 40.625 48.1875 47.75 41.5 
Q 54.890625 34.8125 54.890625 23.390625 
Q 54.890625 11.625 47.5625 5.09375 
Q 40.234375 -1.421875 26.90625 -1.421875 
Q 22.3125 -1.421875 17.546875 -0.640625 
Q 12.796875 0.140625 7.71875 1.703125 
L 7.71875 11.625 
Q 12.109375 9.234375 16.796875 8.0625 
Q 21.484375 6.890625 26.703125 6.890625 
Q 35.15625 6.890625 40.078125 11.328125 
Q 45.015625 15.765625 45.015625 23.390625 
Q 45.015625 31 40.078125 35.4375 
Q 35.15625 39.890625 26.703125 39.890625 
Q 22.75 39.890625 18.8125 39.015625 
Q 14.890625 38.140625 10.796875 36.28125 
z
" id="DejaVuSans-53"/>
      </defs>
      <g transform="translate(20.878125 105.29426)scale(0.1 -0.1)">
       <use xlink:href="#DejaVuSans-53"/>
      </g>
     </g>
    </g>
    <g id="ytick_6">
     <g id="line2d_10">
      <g>
       <use style="stroke:#000000;stroke-width:0.8;" x="34.240625" xlink:href="#mc6f02079d4" y="48.371074"/>
      </g>
     </g>
     <g id="text_11">
      <!-- 6 -->
      <defs>
       <path d="M 33.015625 40.375 
Q 26.375 40.375 22.484375 35.828125 
Q 18.609375 31.296875 18.609375 23.390625 
Q 18.609375 15.53125 22.484375 10.953125 
Q 26.375 6.390625 33.015625 6.390625 
Q 39.65625 6.390625 43.53125 10.953125 
Q 47.40625 15.53125 47.40625 23.390625 
Q 47.40625 31.296875 43.53125 35.828125 
Q 39.65625 40.375 33.015625 40.375 
z
M 52.59375 71.296875 
L 52.59375 62.3125 
Q 48.875 64.0625 45.09375 64.984375 
Q 41.3125 65.921875 37.59375 65.921875 
Q 27.828125 65.921875 22.671875 59.328125 
Q 17.53125 52.734375 16.796875 39.40625 
Q 19.671875 43.65625 24.015625 45.921875 
Q 28.375 48.1875 33.59375 48.1875 
Q 44.578125 48.1875 50.953125 41.515625 
Q 57.328125 34.859375 57.328125 23.390625 
Q 57.328125 12.15625 50.6875 5.359375 
Q 44.046875 -1.421875 33.015625 -1.421875 
Q 20.359375 -1.421875 13.671875 8.265625 
Q 6.984375 17.96875 6.984375 36.375 
Q 6.984375 53.65625 15.1875 63.9375 
Q 23.390625 74.21875 37.203125 74.21875 
Q 40.921875 74.21875 44.703125 73.484375 
Q 48.484375 72.75 52.59375 71.296875 
z
" id="DejaVuSans-54"/>
      </defs>
      <g transform="translate(20.878125 52.170293)scale(0.1 -0.1)">
       <use xlink:href="#DejaVuSans-54"/>
      </g>
     </g>
    </g>
    <g id="text_12">
     <!-- tip -->
     <defs>
      <path d="M 18.109375 8.203125 
L 18.109375 -20.796875 
L 9.078125 -20.796875 
L 9.078125 54.6875 
L 18.109375 54.6875 
L 18.109375 46.390625 
Q 20.953125 51.265625 25.265625 53.625 
Q 29.59375 56 35.59375 56 
Q 45.5625 56 51.78125 48.09375 
Q 58.015625 40.1875 58.015625 27.296875 
Q 58.015625 14.40625 51.78125 6.484375 
Q 45.5625 -1.421875 35.59375 -1.421875 
Q 29.59375 -1.421875 25.265625 0.953125 
Q 20.953125 3.328125 18.109375 8.203125 
z
M 48.6875 27.296875 
Q 48.6875 37.203125 44.609375 42.84375 
Q 40.53125 48.484375 33.40625 48.484375 
Q 26.265625 48.484375 22.1875 42.84375 
Q 18.109375 37.203125 18.109375 27.296875 
Q 18.109375 17.390625 22.1875 11.75 
Q 26.265625 6.109375 33.40625 6.109375 
Q 40.53125 6.109375 44.609375 11.75 
Q 48.6875 17.390625 48.6875 27.296875 
z
" id="DejaVuSans-112"/>
     </defs>
     <g transform="translate(14.798438 174.423437)rotate(-90)scale(0.1 -0.1)">
      <use xlink:href="#DejaVuSans-116"/>
      <use x="39.208984" xlink:href="#DejaVuSans-105"/>
      <use x="66.992188" xlink:href="#DejaVuSans-112"/>
     </g>
    </g>
   </g>
   <g id="patch_3">
    <path d="M 34.240625 328.6 
L 34.240625 7.2 
" style="fill:none;stroke:#000000;stroke-linecap:square;stroke-linejoin:miter;stroke-width:0.8;"/>
   </g>
   <g id="patch_4">
    <path d="M 34.240625 328.6 
L 361.093863 328.6 
" style="fill:none;stroke:#000000;stroke-linecap:square;stroke-linejoin:miter;stroke-width:0.8;"/>
   </g>
  </g>
  <g id="legend_1">
   <g id="text_13">
    <!-- time -->
    <defs>
     <path d="M 52 44.1875 
Q 55.375 50.25 60.0625 53.125 
Q 64.75 56 71.09375 56 
Q 79.640625 56 84.28125 50.015625 
Q 88.921875 44.046875 88.921875 33.015625 
L 88.921875 0 
L 79.890625 0 
L 79.890625 32.71875 
Q 79.890625 40.578125 77.09375 44.375 
Q 74.3125 48.1875 68.609375 48.1875 
Q 61.625 48.1875 57.5625 43.546875 
Q 53.515625 38.921875 53.515625 30.90625 
L 53.515625 0 
L 44.484375 0 
L 44.484375 32.71875 
Q 44.484375 40.625 41.703125 44.40625 
Q 38.921875 48.1875 33.109375 48.1875 
Q 26.21875 48.1875 22.15625 43.53125 
Q 18.109375 38.875 18.109375 30.90625 
L 18.109375 0 
L 9.078125 0 
L 9.078125 54.6875 
L 18.109375 54.6875 
L 18.109375 46.1875 
Q 21.1875 51.21875 25.484375 53.609375 
Q 29.78125 56 35.6875 56 
Q 41.65625 56 45.828125 52.96875 
Q 50 49.953125 52 44.1875 
z
" id="DejaVuSans-109"/>
     <path d="M 56.203125 29.59375 
L 56.203125 25.203125 
L 14.890625 25.203125 
Q 15.484375 15.921875 20.484375 11.0625 
Q 25.484375 6.203125 34.421875 6.203125 
Q 39.59375 6.203125 44.453125 7.46875 
Q 49.3125 8.734375 54.109375 11.28125 
L 54.109375 2.78125 
Q 49.265625 0.734375 44.1875 -0.34375 
Q 39.109375 -1.421875 33.890625 -1.421875 
Q 20.796875 -1.421875 13.15625 6.1875 
Q 5.515625 13.8125 5.515625 26.8125 
Q 5.515625 40.234375 12.765625 48.109375 
Q 20.015625 56 32.328125 56 
Q 43.359375 56 49.78125 48.890625 
Q 56.203125 41.796875 56.203125 29.59375 
z
M 47.21875 32.234375 
Q 47.125 39.59375 43.09375 43.984375 
Q 39.0625 48.390625 32.421875 48.390625 
Q 24.90625 48.390625 20.390625 44.140625 
Q 15.875 39.890625 15.1875 32.171875 
z
" id="DejaVuSans-101"/>
    </defs>
    <g transform="translate(386.210425 171.298437)scale(0.1 -0.1)">
     <use xlink:href="#DejaVuSans-116"/>
     <use x="39.208984" xlink:href="#DejaVuSans-105"/>
     <use x="66.992188" xlink:href="#DejaVuSans-109"/>
     <use x="164.404297" xlink:href="#DejaVuSans-101"/>
    </g>
   </g>
   <g id="PathCollection_4">
    <defs>
     <path d="M 0 3 
C 0.795609 3 1.55874 2.683901 2.12132 2.12132 
C 2.683901 1.55874 3 0.795609 3 0 
C 3 -0.795609 2.683901 -1.55874 2.12132 -2.12132 
C 1.55874 -2.683901 0.795609 -3 0 -3 
C -0.795609 -3 -1.55874 -2.683901 -2.12132 -2.12132 
C -2.683901 -1.55874 -3 -0.795609 -3 0 
C -3 0.795609 -2.683901 1.55874 -2.12132 2.12132 
C -1.55874 2.683901 -0.795609 3 0 3 
z
" id="mbbbb42c0bd" style="stroke:#1f77b4;"/>
    </defs>
    <g>
     <use style="fill:#1f77b4;stroke:#1f77b4;" x="376.797925" xlink:href="#mbbbb42c0bd" y="183.351562"/>
    </g>
   </g>
   <g id="text_14">
    <!-- Lunch -->
    <defs>
     <path d="M 9.8125 72.90625 
L 19.671875 72.90625 
L 19.671875 8.296875 
L 55.171875 8.296875 
L 55.171875 0 
L 9.8125 0 
z
" id="DejaVuSans-76"/>
     <path d="M 8.5 21.578125 
L 8.5 54.6875 
L 17.484375 54.6875 
L 17.484375 21.921875 
Q 17.484375 14.15625 20.5 10.265625 
Q 23.53125 6.390625 29.59375 6.390625 
Q 36.859375 6.390625 41.078125 11.03125 
Q 45.3125 15.671875 45.3125 23.6875 
L 45.3125 54.6875 
L 54.296875 54.6875 
L 54.296875 0 
L 45.3125 0 
L 45.3125 8.40625 
Q 42.046875 3.421875 37.71875 1 
Q 33.40625 -1.421875 27.6875 -1.421875 
Q 18.265625 -1.421875 13.375 4.4375 
Q 8.5 10.296875 8.5 21.578125 
z
M 31.109375 56 
z
" id="DejaVuSans-117"/>
     <path d="M 54.890625 33.015625 
L 54.890625 0 
L 45.90625 0 
L 45.90625 32.71875 
Q 45.90625 40.484375 42.875 44.328125 
Q 39.84375 48.1875 33.796875 48.1875 
Q 26.515625 48.1875 22.3125 43.546875 
Q 18.109375 38.921875 18.109375 30.90625 
L 18.109375 0 
L 9.078125 0 
L 9.078125 54.6875 
L 18.109375 54.6875 
L 18.109375 46.1875 
Q 21.34375 51.125 25.703125 53.5625 
Q 30.078125 56 35.796875 56 
Q 45.21875 56 50.046875 50.171875 
Q 54.890625 44.34375 54.890625 33.015625 
z
" id="DejaVuSans-110"/>
     <path d="M 48.78125 52.59375 
L 48.78125 44.1875 
Q 44.96875 46.296875 41.140625 47.34375 
Q 37.3125 48.390625 33.40625 48.390625 
Q 24.65625 48.390625 19.8125 42.84375 
Q 14.984375 37.3125 14.984375 27.296875 
Q 14.984375 17.28125 19.8125 11.734375 
Q 24.65625 6.203125 33.40625 6.203125 
Q 37.3125 6.203125 41.140625 7.25 
Q 44.96875 8.296875 48.78125 10.40625 
L 48.78125 2.09375 
Q 45.015625 0.34375 40.984375 -0.53125 
Q 36.96875 -1.421875 32.421875 -1.421875 
Q 20.0625 -1.421875 12.78125 6.34375 
Q 5.515625 14.109375 5.515625 27.296875 
Q 5.515625 40.671875 12.859375 48.328125 
Q 20.21875 56 33.015625 56 
Q 37.15625 56 41.109375 55.140625 
Q 45.0625 54.296875 48.78125 52.59375 
z
" id="DejaVuSans-99"/>
     <path d="M 54.890625 33.015625 
L 54.890625 0 
L 45.90625 0 
L 45.90625 32.71875 
Q 45.90625 40.484375 42.875 44.328125 
Q 39.84375 48.1875 33.796875 48.1875 
Q 26.515625 48.1875 22.3125 43.546875 
Q 18.109375 38.921875 18.109375 30.90625 
L 18.109375 0 
L 9.078125 0 
L 9.078125 75.984375 
L 18.109375 75.984375 
L 18.109375 46.1875 
Q 21.34375 51.125 25.703125 53.5625 
Q 30.078125 56 35.796875 56 
Q 45.21875 56 50.046875 50.171875 
Q 54.890625 44.34375 54.890625 33.015625 
z
" id="DejaVuSans-104"/>
    </defs>
    <g transform="translate(394.797925 185.976562)scale(0.1 -0.1)">
     <use xlink:href="#DejaVuSans-76"/>
     <use x="53.962891" xlink:href="#DejaVuSans-117"/>
     <use x="117.341797" xlink:href="#DejaVuSans-110"/>
     <use x="180.720703" xlink:href="#DejaVuSans-99"/>
     <use x="235.701172" xlink:href="#DejaVuSans-104"/>
    </g>
   </g>
   <g id="PathCollection_5">
    <defs>
     <path d="M 0 3 
C 0.795609 3 1.55874 2.683901 2.12132 2.12132 
C 2.683901 1.55874 3 0.795609 3 0 
C 3 -0.795609 2.683901 -1.55874 2.12132 -2.12132 
C 1.55874 -2.683901 0.795609 -3 0 -3 
C -0.795609 -3 -1.55874 -2.683901 -2.12132 -2.12132 
C -2.683901 -1.55874 -3 -0.795609 -3 0 
C -3 0.795609 -2.683901 1.55874 -2.12132 2.12132 
C -1.55874 2.683901 -0.795609 3 0 3 
z
" id="m794aa77b31" style="stroke:#ff7f0e;"/>
    </defs>
    <g>
     <use style="fill:#ff7f0e;stroke:#ff7f0e;" x="376.797925" xlink:href="#m794aa77b31" y="198.029687"/>
    </g>
   </g>
   <g id="text_15">
    <!-- Dinner -->
    <defs>
     <path d="M 19.671875 64.796875 
L 19.671875 8.109375 
L 31.59375 8.109375 
Q 46.6875 8.109375 53.6875 14.9375 
Q 60.6875 21.78125 60.6875 36.53125 
Q 60.6875 51.171875 53.6875 57.984375 
Q 46.6875 64.796875 31.59375 64.796875 
z
M 9.8125 72.90625 
L 30.078125 72.90625 
Q 51.265625 72.90625 61.171875 64.09375 
Q 71.09375 55.28125 71.09375 36.53125 
Q 71.09375 17.671875 61.125 8.828125 
Q 51.171875 0 30.078125 0 
L 9.8125 0 
z
" id="DejaVuSans-68"/>
     <path d="M 41.109375 46.296875 
Q 39.59375 47.171875 37.8125 47.578125 
Q 36.03125 48 33.890625 48 
Q 26.265625 48 22.1875 43.046875 
Q 18.109375 38.09375 18.109375 28.8125 
L 18.109375 0 
L 9.078125 0 
L 9.078125 54.6875 
L 18.109375 54.6875 
L 18.109375 46.1875 
Q 20.953125 51.171875 25.484375 53.578125 
Q 30.03125 56 36.53125 56 
Q 37.453125 56 38.578125 55.875 
Q 39.703125 55.765625 41.0625 55.515625 
z
" id="DejaVuSans-114"/>
    </defs>
    <g transform="translate(394.797925 200.654687)scale(0.1 -0.1)">
     <use xlink:href="#DejaVuSans-68"/>
     <use x="77.001953" xlink:href="#DejaVuSans-105"/>
     <use x="104.785156" xlink:href="#DejaVuSans-110"/>
     <use x="168.164062" xlink:href="#DejaVuSans-110"/>
     <use x="231.542969" xlink:href="#DejaVuSans-101"/>
     <use x="293.066406" xlink:href="#DejaVuSans-114"/>
    </g>
   </g>
  </g>
 </g>
 <defs>
  <clipPath id="pffa6aa115f">
   <rect height="321.4" width="326.853238" x="34.240625" y="7.2"/>
  </clipPath>
 </defs>
</svg>
