<?xml version="1.0" encoding="utf-8" standalone="no"?>
<!DOCTYPE svg PUBLIC "-//W3C//DTD SVG 1.1//EN"
  "http://www.w3.org/Graphics/SVG/1.1/DTD/svg11.dtd">
<!-- Created with matplotlib (https://matplotlib.org/) -->
<svg height="262.474375pt" version="1.1" viewBox="0 0 382.603125 262.474375" width="382.603125pt" xmlns="http://www.w3.org/2000/svg" xmlns:xlink="http://www.w3.org/1999/xlink">
 <defs>
  <style type="text/css">
*{stroke-linecap:butt;stroke-linejoin:round;}
  </style>
 </defs>
 <g id="figure_1">
  <g id="patch_1">
   <path d="M 0 262.474375 
L 382.603125 262.474375 
L 382.603125 0 
L 0 0 
z
" style="fill:none;"/>
  </g>
  <g id="axes_1">
   <g id="patch_2">
    <path d="M 40.603125 224.64 
L 375.403125 224.64 
L 375.403125 7.2 
L 40.603125 7.2 
z
" style="fill:#ffffff;"/>
   </g>
   <g id="PolyCollection_1">
    <path clip-path="url(#p91d963cc60)" d="M 82.470657 123.607273 
L 82.470657 214.756364 
L 82.470657 123.607273 
L 82.470657 123.607273 
z
" style="fill:#1f77b4;fill-opacity:0.2;stroke:#1f77b4;stroke-opacity:0.2;"/>
    <path clip-path="url(#p91d963cc60)" d="M 100.449406 196.526545 
L 100.449406 209.265455 
L 100.449406 196.526545 
L 100.449406 196.526545 
z
" style="fill:#1f77b4;fill-opacity:0.2;stroke:#1f77b4;stroke-opacity:0.2;"/>
    <path clip-path="url(#p91d963cc60)" d="M 102.107021 192.792727 
L 102.107021 200.040727 
L 102.170776 200.260364 
L 102.170776 192.792727 
L 102.170776 192.792727 
L 102.107021 192.792727 
z
" style="fill:#1f77b4;fill-opacity:0.2;stroke:#1f77b4;stroke-opacity:0.2;"/>
    <path clip-path="url(#p91d963cc60)" d="M 119.129453 192.792727 
L 119.129453 192.792727 
L 119.129453 192.792727 
L 119.129453 192.792727 
z
" style="fill:#1f77b4;fill-opacity:0.2;stroke:#1f77b4;stroke-opacity:0.2;"/>
    <path clip-path="url(#p91d963cc60)" d="M 121.807139 160.286545 
L 121.807139 202.017455 
L 121.807139 160.286545 
L 121.807139 160.286545 
z
" style="fill:#1f77b4;fill-opacity:0.2;stroke:#1f77b4;stroke-opacity:0.2;"/>
    <path clip-path="url(#p91d963cc60)" d="M 124.293562 192.792727 
L 124.293562 192.792727 
L 124.293562 192.792727 
L 124.293562 192.792727 
z
" style="fill:#1f77b4;fill-opacity:0.2;stroke:#1f77b4;stroke-opacity:0.2;"/>
    <path clip-path="url(#p91d963cc60)" d="M 136.279394 170.829091 
L 136.279394 203.774545 
L 136.279394 170.829091 
L 136.279394 170.829091 
z
" style="fill:#1f77b4;fill-opacity:0.2;stroke:#1f77b4;stroke-opacity:0.2;"/>
    <path clip-path="url(#p91d963cc60)" d="M 138.128273 170.829091 
L 138.128273 192.133818 
L 138.128273 170.829091 
L 138.128273 170.829091 
z
" style="fill:#1f77b4;fill-opacity:0.2;stroke:#1f77b4;stroke-opacity:0.2;"/>
    <path clip-path="url(#p91d963cc60)" d="M 150.496631 147.108364 
L 150.496631 169.072 
L 150.496631 147.108364 
L 150.496631 147.108364 
z
" style="fill:#1f77b4;fill-opacity:0.2;stroke:#1f77b4;stroke-opacity:0.2;"/>
    <path clip-path="url(#p91d963cc60)" d="M 152.855545 154.136727 
L 152.855545 170.829091 
L 152.855545 154.136727 
L 152.855545 154.136727 
z
" style="fill:#1f77b4;fill-opacity:0.2;stroke:#1f77b4;stroke-opacity:0.2;"/>
    <path clip-path="url(#p91d963cc60)" d="M 165.606431 166.216727 
L 165.606431 176.32 
L 165.606431 166.216727 
L 165.606431 166.216727 
z
" style="fill:#1f77b4;fill-opacity:0.2;stroke:#1f77b4;stroke-opacity:0.2;"/>
    <path clip-path="url(#p91d963cc60)" d="M 168.156608 126.901818 
L 168.156608 182.909091 
L 168.156608 126.901818 
L 168.156608 126.901818 
z
" style="fill:#1f77b4;fill-opacity:0.2;stroke:#1f77b4;stroke-opacity:0.2;"/>
    <path clip-path="url(#p91d963cc60)" d="M 170.19675 159.847273 
L 170.19675 170.829091 
L 170.19675 159.847273 
L 170.19675 159.847273 
z
" style="fill:#1f77b4;fill-opacity:0.2;stroke:#1f77b4;stroke-opacity:0.2;"/>
   </g>
   <g id="matplotlib.axis_1">
    <g id="xtick_1">
     <g id="line2d_1">
      <defs>
       <path d="M 0 0 
L 0 3.5 
" id="m8d5e9ff6bd" style="stroke:#000000;stroke-width:0.8;"/>
      </defs>
      <g>
       <use style="stroke:#000000;stroke-width:0.8;" x="100.003125" xlink:href="#m8d5e9ff6bd" y="224.64"/>
      </g>
     </g>
     <g id="text_1">
      <!-- 10 -->
      <defs>
       <path d="M 12.40625 8.296875 
L 28.515625 8.296875 
L 28.515625 63.921875 
L 10.984375 60.40625 
L 10.984375 69.390625 
L 28.421875 72.90625 
L 38.28125 72.90625 
L 38.28125 8.296875 
L 54.390625 8.296875 
L 54.390625 0 
L 12.40625 0 
z
" id="DejaVuSans-49"/>
       <path d="M 31.78125 66.40625 
Q 24.171875 66.40625 20.328125 58.90625 
Q 16.5 51.421875 16.5 36.375 
Q 16.5 21.390625 20.328125 13.890625 
Q 24.171875 6.390625 31.78125 6.390625 
Q 39.453125 6.390625 43.28125 13.890625 
Q 47.125 21.390625 47.125 36.375 
Q 47.125 51.421875 43.28125 58.90625 
Q 39.453125 66.40625 31.78125 66.40625 
z
M 31.78125 74.21875 
Q 44.046875 74.21875 50.515625 64.515625 
Q 56.984375 54.828125 56.984375 36.375 
Q 56.984375 17.96875 50.515625 8.265625 
Q 44.046875 -1.421875 31.78125 -1.421875 
Q 19.53125 -1.421875 13.0625 8.265625 
Q 6.59375 17.96875 6.59375 36.375 
Q 6.59375 54.828125 13.0625 64.515625 
Q 19.53125 74.21875 31.78125 74.21875 
z
" id="DejaVuSans-48"/>
      </defs>
      <g transform="translate(93.640625 239.238438)scale(0.1 -0.1)">
       <use xlink:href="#DejaVuSans-49"/>
       <use x="63.623047" xlink:href="#DejaVuSans-48"/>
      </g>
     </g>
    </g>
    <g id="xtick_2">
     <g id="line2d_2">
      <g>
       <use style="stroke:#000000;stroke-width:0.8;" x="163.757552" xlink:href="#m8d5e9ff6bd" y="224.64"/>
      </g>
     </g>
     <g id="text_2">
      <!-- 20 -->
      <defs>
       <path d="M 19.1875 8.296875 
L 53.609375 8.296875 
L 53.609375 0 
L 7.328125 0 
L 7.328125 8.296875 
Q 12.9375 14.109375 22.625 23.890625 
Q 32.328125 33.6875 34.8125 36.53125 
Q 39.546875 41.84375 41.421875 45.53125 
Q 43.3125 49.21875 43.3125 52.78125 
Q 43.3125 58.59375 39.234375 62.25 
Q 35.15625 65.921875 28.609375 65.921875 
Q 23.96875 65.921875 18.8125 64.3125 
Q 13.671875 62.703125 7.8125 59.421875 
L 7.8125 69.390625 
Q 13.765625 71.78125 18.9375 73 
Q 24.125 74.21875 28.421875 74.21875 
Q 39.75 74.21875 46.484375 68.546875 
Q 53.21875 62.890625 53.21875 53.421875 
Q 53.21875 48.921875 51.53125 44.890625 
Q 49.859375 40.875 45.40625 35.40625 
Q 44.1875 33.984375 37.640625 27.21875 
Q 31.109375 20.453125 19.1875 8.296875 
z
" id="DejaVuSans-50"/>
      </defs>
      <g transform="translate(157.395052 239.238438)scale(0.1 -0.1)">
       <use xlink:href="#DejaVuSans-50"/>
       <use x="63.623047" xlink:href="#DejaVuSans-48"/>
      </g>
     </g>
    </g>
    <g id="xtick_3">
     <g id="line2d_3">
      <g>
       <use style="stroke:#000000;stroke-width:0.8;" x="227.51198" xlink:href="#m8d5e9ff6bd" y="224.64"/>
      </g>
     </g>
     <g id="text_3">
      <!-- 30 -->
      <defs>
       <path d="M 40.578125 39.3125 
Q 47.65625 37.796875 51.625 33 
Q 55.609375 28.21875 55.609375 21.1875 
Q 55.609375 10.40625 48.1875 4.484375 
Q 40.765625 -1.421875 27.09375 -1.421875 
Q 22.515625 -1.421875 17.65625 -0.515625 
Q 12.796875 0.390625 7.625 2.203125 
L 7.625 11.71875 
Q 11.71875 9.328125 16.59375 8.109375 
Q 21.484375 6.890625 26.8125 6.890625 
Q 36.078125 6.890625 40.9375 10.546875 
Q 45.796875 14.203125 45.796875 21.1875 
Q 45.796875 27.640625 41.28125 31.265625 
Q 36.765625 34.90625 28.71875 34.90625 
L 20.21875 34.90625 
L 20.21875 43.015625 
L 29.109375 43.015625 
Q 36.375 43.015625 40.234375 45.921875 
Q 44.09375 48.828125 44.09375 54.296875 
Q 44.09375 59.90625 40.109375 62.90625 
Q 36.140625 65.921875 28.71875 65.921875 
Q 24.65625 65.921875 20.015625 65.03125 
Q 15.375 64.15625 9.8125 62.3125 
L 9.8125 71.09375 
Q 15.4375 72.65625 20.34375 73.4375 
Q 25.25 74.21875 29.59375 74.21875 
Q 40.828125 74.21875 47.359375 69.109375 
Q 53.90625 64.015625 53.90625 55.328125 
Q 53.90625 49.265625 50.4375 45.09375 
Q 46.96875 40.921875 40.578125 39.3125 
z
" id="DejaVuSans-51"/>
      </defs>
      <g transform="translate(221.14948 239.238438)scale(0.1 -0.1)">
       <use xlink:href="#DejaVuSans-51"/>
       <use x="63.623047" xlink:href="#DejaVuSans-48"/>
      </g>
     </g>
    </g>
    <g id="xtick_4">
     <g id="line2d_4">
      <g>
       <use style="stroke:#000000;stroke-width:0.8;" x="291.266407" xlink:href="#m8d5e9ff6bd" y="224.64"/>
      </g>
     </g>
     <g id="text_4">
      <!-- 40 -->
      <defs>
       <path d="M 37.796875 64.3125 
L 12.890625 25.390625 
L 37.796875 25.390625 
z
M 35.203125 72.90625 
L 47.609375 72.90625 
L 47.609375 25.390625 
L 58.015625 25.390625 
L 58.015625 17.1875 
L 47.609375 17.1875 
L 47.609375 0 
L 37.796875 0 
L 37.796875 17.1875 
L 4.890625 17.1875 
L 4.890625 26.703125 
z
" id="DejaVuSans-52"/>
      </defs>
      <g transform="translate(284.903907 239.238438)scale(0.1 -0.1)">
       <use xlink:href="#DejaVuSans-52"/>
       <use x="63.623047" xlink:href="#DejaVuSans-48"/>
      </g>
     </g>
    </g>
    <g id="xtick_5">
     <g id="line2d_5">
      <g>
       <use style="stroke:#000000;stroke-width:0.8;" x="355.020835" xlink:href="#m8d5e9ff6bd" y="224.64"/>
      </g>
     </g>
     <g id="text_5">
      <!-- 50 -->
      <defs>
       <path d="M 10.796875 72.90625 
L 49.515625 72.90625 
L 49.515625 64.59375 
L 19.828125 64.59375 
L 19.828125 46.734375 
Q 21.96875 47.46875 24.109375 47.828125 
Q 26.265625 48.1875 28.421875 48.1875 
Q 40.625 48.1875 47.75 41.5 
Q 54.890625 34.8125 54.890625 23.390625 
Q 54.890625 11.625 47.5625 5.09375 
Q 40.234375 -1.421875 26.90625 -1.421875 
Q 22.3125 -1.421875 17.546875 -0.640625 
Q 12.796875 0.140625 7.71875 1.703125 
L 7.71875 11.625 
Q 12.109375 9.234375 16.796875 8.0625 
Q 21.484375 6.890625 26.703125 6.890625 
Q 35.15625 6.890625 40.078125 11.328125 
Q 45.015625 15.765625 45.015625 23.390625 
Q 45.015625 31 40.078125 35.4375 
Q 35.15625 39.890625 26.703125 39.890625 
Q 22.75 39.890625 18.8125 39.015625 
Q 14.890625 38.140625 10.796875 36.28125 
z
" id="DejaVuSans-53"/>
      </defs>
      <g transform="translate(348.658335 239.238438)scale(0.1 -0.1)">
       <use xlink:href="#DejaVuSans-53"/>
       <use x="63.623047" xlink:href="#DejaVuSans-48"/>
      </g>
     </g>
    </g>
    <g id="text_6">
     <!-- total_bill -->
     <defs>
      <path d="M 18.3125 70.21875 
L 18.3125 54.6875 
L 36.8125 54.6875 
L 36.8125 47.703125 
L 18.3125 47.703125 
L 18.3125 18.015625 
Q 18.3125 11.328125 20.140625 9.421875 
Q 21.96875 7.515625 27.59375 7.515625 
L 36.8125 7.515625 
L 36.8125 0 
L 27.59375 0 
Q 17.1875 0 13.234375 3.875 
Q 9.28125 7.765625 9.28125 18.015625 
L 9.28125 47.703125 
L 2.6875 47.703125 
L 2.6875 54.6875 
L 9.28125 54.6875 
L 9.28125 70.21875 
z
" id="DejaVuSans-116"/>
      <path d="M 30.609375 48.390625 
Q 23.390625 48.390625 19.1875 42.75 
Q 14.984375 37.109375 14.984375 27.296875 
Q 14.984375 17.484375 19.15625 11.84375 
Q 23.34375 6.203125 30.609375 6.203125 
Q 37.796875 6.203125 41.984375 11.859375 
Q 46.1875 17.53125 46.1875 27.296875 
Q 46.1875 37.015625 41.984375 42.703125 
Q 37.796875 48.390625 30.609375 48.390625 
z
M 30.609375 56 
Q 42.328125 56 49.015625 48.375 
Q 55.71875 40.765625 55.71875 27.296875 
Q 55.71875 13.875 49.015625 6.21875 
Q 42.328125 -1.421875 30.609375 -1.421875 
Q 18.84375 -1.421875 12.171875 6.21875 
Q 5.515625 13.875 5.515625 27.296875 
Q 5.515625 40.765625 12.171875 48.375 
Q 18.84375 56 30.609375 56 
z
" id="DejaVuSans-111"/>
      <path d="M 34.28125 27.484375 
Q 23.390625 27.484375 19.1875 25 
Q 14.984375 22.515625 14.984375 16.5 
Q 14.984375 11.71875 18.140625 8.90625 
Q 21.296875 6.109375 26.703125 6.109375 
Q 34.1875 6.109375 38.703125 11.40625 
Q 43.21875 16.703125 43.21875 25.484375 
L 43.21875 27.484375 
z
M 52.203125 31.203125 
L 52.203125 0 
L 43.21875 0 
L 43.21875 8.296875 
Q 40.140625 3.328125 35.546875 0.953125 
Q 30.953125 -1.421875 24.3125 -1.421875 
Q 15.921875 -1.421875 10.953125 3.296875 
Q 6 8.015625 6 15.921875 
Q 6 25.140625 12.171875 29.828125 
Q 18.359375 34.515625 30.609375 34.515625 
L 43.21875 34.515625 
L 43.21875 35.40625 
Q 43.21875 41.609375 39.140625 45 
Q 35.0625 48.390625 27.6875 48.390625 
Q 23 48.390625 18.546875 47.265625 
Q 14.109375 46.140625 10.015625 43.890625 
L 10.015625 52.203125 
Q 14.9375 54.109375 19.578125 55.046875 
Q 24.21875 56 28.609375 56 
Q 40.484375 56 46.34375 49.84375 
Q 52.203125 43.703125 52.203125 31.203125 
z
" id="DejaVuSans-97"/>
      <path d="M 9.421875 75.984375 
L 18.40625 75.984375 
L 18.40625 0 
L 9.421875 0 
z
" id="DejaVuSans-108"/>
      <path d="M 50.984375 -16.609375 
L 50.984375 -23.578125 
L -0.984375 -23.578125 
L -0.984375 -16.609375 
z
" id="DejaVuSans-95"/>
      <path d="M 48.6875 27.296875 
Q 48.6875 37.203125 44.609375 42.84375 
Q 40.53125 48.484375 33.40625 48.484375 
Q 26.265625 48.484375 22.1875 42.84375 
Q 18.109375 37.203125 18.109375 27.296875 
Q 18.109375 17.390625 22.1875 11.75 
Q 26.265625 6.109375 33.40625 6.109375 
Q 40.53125 6.109375 44.609375 11.75 
Q 48.6875 17.390625 48.6875 27.296875 
z
M 18.109375 46.390625 
Q 20.953125 51.265625 25.265625 53.625 
Q 29.59375 56 35.59375 56 
Q 45.5625 56 51.78125 48.09375 
Q 58.015625 40.1875 58.015625 27.296875 
Q 58.015625 14.40625 51.78125 6.484375 
Q 45.5625 -1.421875 35.59375 -1.421875 
Q 29.59375 -1.421875 25.265625 0.953125 
Q 20.953125 3.328125 18.109375 8.203125 
L 18.109375 0 
L 9.078125 0 
L 9.078125 75.984375 
L 18.109375 75.984375 
z
" id="DejaVuSans-98"/>
      <path d="M 9.421875 54.6875 
L 18.40625 54.6875 
L 18.40625 0 
L 9.421875 0 
z
M 9.421875 75.984375 
L 18.40625 75.984375 
L 18.40625 64.59375 
L 9.421875 64.59375 
z
" id="DejaVuSans-105"/>
     </defs>
     <g transform="translate(186.728906 252.916562)scale(0.1 -0.1)">
      <use xlink:href="#DejaVuSans-116"/>
      <use x="39.208984" xlink:href="#DejaVuSans-111"/>
      <use x="100.390625" xlink:href="#DejaVuSans-116"/>
      <use x="139.599609" xlink:href="#DejaVuSans-97"/>
      <use x="200.878906" xlink:href="#DejaVuSans-108"/>
      <use x="228.662109" xlink:href="#DejaVuSans-95"/>
      <use x="278.662109" xlink:href="#DejaVuSans-98"/>
      <use x="342.138672" xlink:href="#DejaVuSans-105"/>
      <use x="369.921875" xlink:href="#DejaVuSans-108"/>
      <use x="397.705078" xlink:href="#DejaVuSans-108"/>
     </g>
    </g>
   </g>
   <g id="matplotlib.axis_2">
    <g id="ytick_1">
     <g id="line2d_6">
      <defs>
       <path d="M 0 0 
L -3.5 0 
" id="m566200e713" style="stroke:#000000;stroke-width:0.8;"/>
      </defs>
      <g>
       <use style="stroke:#000000;stroke-width:0.8;" x="40.603125" xlink:href="#m566200e713" y="192.792727"/>
      </g>
     </g>
     <g id="text_7">
      <!-- 2 -->
      <g transform="translate(27.240625 196.591946)scale(0.1 -0.1)">
       <use xlink:href="#DejaVuSans-50"/>
      </g>
     </g>
    </g>
    <g id="ytick_2">
     <g id="line2d_7">
      <g>
       <use style="stroke:#000000;stroke-width:0.8;" x="40.603125" xlink:href="#m566200e713" y="148.865455"/>
      </g>
     </g>
     <g id="text_8">
      <!-- 4 -->
      <g transform="translate(27.240625 152.664673)scale(0.1 -0.1)">
       <use xlink:href="#DejaVuSans-52"/>
      </g>
     </g>
    </g>
    <g id="ytick_3">
     <g id="line2d_8">
      <g>
       <use style="stroke:#000000;stroke-width:0.8;" x="40.603125" xlink:href="#m566200e713" y="104.938182"/>
      </g>
     </g>
     <g id="text_9">
      <!-- 6 -->
      <defs>
       <path d="M 33.015625 40.375 
Q 26.375 40.375 22.484375 35.828125 
Q 18.609375 31.296875 18.609375 23.390625 
Q 18.609375 15.53125 22.484375 10.953125 
Q 26.375 6.390625 33.015625 6.390625 
Q 39.65625 6.390625 43.53125 10.953125 
Q 47.40625 15.53125 47.40625 23.390625 
Q 47.40625 31.296875 43.53125 35.828125 
Q 39.65625 40.375 33.015625 40.375 
z
M 52.59375 71.296875 
L 52.59375 62.3125 
Q 48.875 64.0625 45.09375 64.984375 
Q 41.3125 65.921875 37.59375 65.921875 
Q 27.828125 65.921875 22.671875 59.328125 
Q 17.53125 52.734375 16.796875 39.40625 
Q 19.671875 43.65625 24.015625 45.921875 
Q 28.375 48.1875 33.59375 48.1875 
Q 44.578125 48.1875 50.953125 41.515625 
Q 57.328125 34.859375 57.328125 23.390625 
Q 57.328125 12.15625 50.6875 5.359375 
Q 44.046875 -1.421875 33.015625 -1.421875 
Q 20.359375 -1.421875 13.671875 8.265625 
Q 6.984375 17.96875 6.984375 36.375 
Q 6.984375 53.65625 15.1875 63.9375 
Q 23.390625 74.21875 37.203125 74.21875 
Q 40.921875 74.21875 44.703125 73.484375 
Q 48.484375 72.75 52.59375 71.296875 
z
" id="DejaVuSans-54"/>
      </defs>
      <g transform="translate(27.240625 108.737401)scale(0.1 -0.1)">
       <use xlink:href="#DejaVuSans-54"/>
      </g>
     </g>
    </g>
    <g id="ytick_4">
     <g id="line2d_9">
      <g>
       <use style="stroke:#000000;stroke-width:0.8;" x="40.603125" xlink:href="#m566200e713" y="61.010909"/>
      </g>
     </g>
     <g id="text_10">
      <!-- 8 -->
      <defs>
       <path d="M 31.78125 34.625 
Q 24.75 34.625 20.71875 30.859375 
Q 16.703125 27.09375 16.703125 20.515625 
Q 16.703125 13.921875 20.71875 10.15625 
Q 24.75 6.390625 31.78125 6.390625 
Q 38.8125 6.390625 42.859375 10.171875 
Q 46.921875 13.96875 46.921875 20.515625 
Q 46.921875 27.09375 42.890625 30.859375 
Q 38.875 34.625 31.78125 34.625 
z
M 21.921875 38.8125 
Q 15.578125 40.375 12.03125 44.71875 
Q 8.5 49.078125 8.5 55.328125 
Q 8.5 64.0625 14.71875 69.140625 
Q 20.953125 74.21875 31.78125 74.21875 
Q 42.671875 74.21875 48.875 69.140625 
Q 55.078125 64.0625 55.078125 55.328125 
Q 55.078125 49.078125 51.53125 44.71875 
Q 48 40.375 41.703125 38.8125 
Q 48.828125 37.15625 52.796875 32.3125 
Q 56.78125 27.484375 56.78125 20.515625 
Q 56.78125 9.90625 50.3125 4.234375 
Q 43.84375 -1.421875 31.78125 -1.421875 
Q 19.734375 -1.421875 13.25 4.234375 
Q 6.78125 9.90625 6.78125 20.515625 
Q 6.78125 27.484375 10.78125 32.3125 
Q 14.796875 37.15625 21.921875 38.8125 
z
M 18.3125 54.390625 
Q 18.3125 48.734375 21.84375 45.5625 
Q 25.390625 42.390625 31.78125 42.390625 
Q 38.140625 42.390625 41.71875 45.5625 
Q 45.3125 48.734375 45.3125 54.390625 
Q 45.3125 60.0625 41.71875 63.234375 
Q 38.140625 66.40625 31.78125 66.40625 
Q 25.390625 66.40625 21.84375 63.234375 
Q 18.3125 60.0625 18.3125 54.390625 
z
" id="DejaVuSans-56"/>
      </defs>
      <g transform="translate(27.240625 64.810128)scale(0.1 -0.1)">
       <use xlink:href="#DejaVuSans-56"/>
      </g>
     </g>
    </g>
    <g id="ytick_5">
     <g id="line2d_10">
      <g>
       <use style="stroke:#000000;stroke-width:0.8;" x="40.603125" xlink:href="#m566200e713" y="17.083636"/>
      </g>
     </g>
     <g id="text_11">
      <!-- 10 -->
      <g transform="translate(20.878125 20.882855)scale(0.1 -0.1)">
       <use xlink:href="#DejaVuSans-49"/>
       <use x="63.623047" xlink:href="#DejaVuSans-48"/>
      </g>
     </g>
    </g>
    <g id="text_12">
     <!-- tip -->
     <defs>
      <path d="M 18.109375 8.203125 
L 18.109375 -20.796875 
L 9.078125 -20.796875 
L 9.078125 54.6875 
L 18.109375 54.6875 
L 18.109375 46.390625 
Q 20.953125 51.265625 25.265625 53.625 
Q 29.59375 56 35.59375 56 
Q 45.5625 56 51.78125 48.09375 
Q 58.015625 40.1875 58.015625 27.296875 
Q 58.015625 14.40625 51.78125 6.484375 
Q 45.5625 -1.421875 35.59375 -1.421875 
Q 29.59375 -1.421875 25.265625 0.953125 
Q 20.953125 3.328125 18.109375 8.203125 
z
M 48.6875 27.296875 
Q 48.6875 37.203125 44.609375 42.84375 
Q 40.53125 48.484375 33.40625 48.484375 
Q 26.265625 48.484375 22.1875 42.84375 
Q 18.109375 37.203125 18.109375 27.296875 
Q 18.109375 17.390625 22.1875 11.75 
Q 26.265625 6.109375 33.40625 6.109375 
Q 40.53125 6.109375 44.609375 11.75 
Q 48.6875 17.390625 48.6875 27.296875 
z
" id="DejaVuSans-112"/>
     </defs>
     <g transform="translate(14.798438 122.443438)rotate(-90)scale(0.1 -0.1)">
      <use xlink:href="#DejaVuSans-116"/>
      <use x="39.208984" xlink:href="#DejaVuSans-105"/>
      <use x="66.992188" xlink:href="#DejaVuSans-112"/>
     </g>
    </g>
   </g>
   <g id="line2d_11">
    <path clip-path="url(#p91d963cc60)" d="M 55.821307 214.756364 
L 72.907493 214.756364 
L 82.470657 169.181818 
L 84.128273 192.792727 
L 84.447045 205.092364 
L 85.594624 205.092364 
L 89.483644 203.774545 
L 90.503715 209.265455 
L 90.56747 204.213818 
L 90.949996 194.549818 
L 92.16133 192.792727 
L 97.134176 204.872727 
L 97.452948 148.865455 
L 97.962983 207.728 
L 98.600528 198.722909 
L 99.620598 202.456727 
L 100.449406 202.896 
L 100.576915 192.792727 
L 101.724495 199.162182 
L 101.852003 179.614545 
L 102.170776 196.526545 
L 103.254601 209.265455 
L 103.764636 201.358545 
L 104.019654 192.792727 
L 104.147163 203.774545 
L 104.912216 204.433455 
L 106.506077 193.232 
L 107.462393 203.774545 
L 107.908674 198.064 
L 108.609973 181.810909 
L 108.801236 192.792727 
L 110.140079 203.774545 
L 110.267588 162.263273 
L 110.777623 185.984 
L 111.925203 200.919273 
L 112.881519 193.451636 
L 112.945274 203.774545 
L 113.774081 188.4 
L 114.411626 192.792727 
L 115.495451 197.185455 
L 115.686714 203.774545 
L 115.814223 181.371636 
L 116.19675 181.810909 
L 116.579276 214.756364 
L 116.961803 181.810909 
L 117.153066 192.792727 
L 117.471838 192.573091 
L 117.599347 187.741091 
L 118.491909 212.56 
L 119.129453 192.792727 
L 119.958261 192.792727 
L 120.149524 176.32 
L 120.850823 181.810909 
L 120.914577 176.978909 
L 121.488367 192.792727 
L 121.615876 179.394909 
L 121.807139 187.37503 
L 122.380929 192.792727 
L 124.293562 192.792727 
L 125.122369 169.511273 
L 125.504896 170.829091 
L 126.461212 192.792727 
L 127.162511 181.810909 
L 127.481283 148.865455 
L 128.565108 192.792727 
L 128.820126 192.792727 
L 130.158969 188.4 
L 130.477741 165.777455 
L 130.796513 170.389818 
L 132.135356 193.671273 
L 132.262865 170.829091 
L 134.175498 200.699636 
L 134.303007 170.829091 
L 134.558025 202.237091 
L 134.940551 192.353455 
L 135.259323 170.829091 
L 136.279394 187.301818 
L 136.78943 187.741091 
L 137.044447 167.314909 
L 137.937009 192.792727 
L 138.128273 181.481455 
L 138.255781 192.792727 
L 138.510799 187.521455 
L 139.594624 192.792727 
L 139.977151 181.810909 
L 140.10466 155.234909 
L 140.232169 192.792727 
L 140.295923 142.276364 
L 140.805959 181.810909 
L 140.997222 186.203636 
L 141.124731 182.469818 
L 141.25224 165.777455 
L 141.379748 192.792727 
L 141.953538 148.865455 
L 142.463574 162.043636 
L 143.483644 148.865455 
L 144.184943 169.291636 
L 144.439961 159.847273 
L 144.56747 214.536727 
L 145.077505 170.829091 
L 146.480103 177.198545 
L 146.607611 159.847273 
L 147.563928 180.932364 
L 147.627682 159.847273 
L 147.8827 170.829091 
L 148.392735 178.736 
L 149.60407 164.898909 
L 149.859087 198.283636 
L 150.305368 192.792727 
L 150.496631 158.090182 
L 151.261685 170.829091 
L 151.962983 159.847273 
L 152.536773 154.136727 
L 152.664282 165.338182 
L 152.791791 148.865455 
L 152.855545 162.482909 
L 153.238072 181.810909 
L 153.748107 170.829091 
L 155.08695 206.849455 
L 155.405722 185.984 
L 155.533231 148.865455 
L 155.979512 170.829091 
L 157.892145 203.774545 
L 160.187304 170.829091 
L 160.506077 159.627636 
L 161.526147 170.829091 
L 162.291201 192.792727 
L 162.546218 144.692364 
L 162.609973 166.875636 
L 164.267588 167.534545 
L 165.223904 192.573091 
L 165.606431 171.268364 
L 166.626502 170.829091 
L 166.881519 147.547636 
L 167.136537 148.865455 
L 167.90159 163.141818 
L 168.156608 154.905455 
L 168.602889 187.521455 
L 169.495451 159.847273 
L 169.62296 147.108364 
L 170.19675 165.338182 
L 171.153066 170.829091 
L 173.320716 159.847273 
L 173.830752 150.622545 
L 174.595805 142.276364 
L 177.273491 173.464727 
L 177.97479 126.901818 
L 179.186124 160.286545 
L 179.632405 159.847273 
L 180.779985 192.792727 
L 181.29002 165.338182 
L 181.353774 170.829091 
L 181.736301 188.839273 
L 183.521425 148.865455 
L 183.967706 93.956364 
L 184.987777 112.625455 
L 187.219182 164.020364 
L 188.940551 180.712727 
L 189.323078 192.792727 
L 189.64185 157.650909 
L 189.769359 172.586182 
L 190.980693 192.133818 
L 192.574554 160.286545 
L 192.765817 192.792727 
L 193.020835 157.431273 
L 193.785888 108.232727 
L 195.634766 154.356364 
L 196.973609 142.496 
L 197.41989 126.901818 
L 197.483644 133.271273 
L 199.205014 141.397818 
L 200.16133 148.865455 
L 201.30891 123.387636 
L 204.62414 203.774545 
L 205.77172 161.824 
L 207.620598 168.193455 
L 208.704424 126.901818 
L 209.533231 192.792727 
L 209.66074 148.865455 
L 210.170776 148.865455 
L 215.717411 170.829091 
L 215.84492 93.956364 
L 217.566289 180.493091 
L 218.267588 191.694545 
L 220.945274 170.829091 
L 221.3278 106.695273 
L 226.236891 144.472727 
L 226.555663 123.826909 
L 227.065699 125.364364 
L 227.894506 192.792727 
L 228.404542 168.852364 
L 230.062157 113.723636 
L 230.444683 192.792727 
L 235.608792 126.901818 
L 238.413987 137.883636 
L 239.306549 166.875636 
L 242.813042 104.938182 
L 244.598166 126.901818 
L 245.554483 211.022545 
L 246.000764 168.413091 
L 254.926384 89.563636 
L 257.03028 158.749091 
L 257.157789 155.893818 
L 258.177859 122.509091 
L 258.305368 123.168 
L 261.046809 126.901818 
L 264.680811 134.149818 
L 278.579276 170.829091 
L 278.961803 148.865455 
L 283.169595 170.829091 
L 287.56865 70.235636 
L 292.350232 132.832 
L 294.772901 170.829091 
L 298.853184 126.901818 
L 311.094034 126.901818 
L 318.680811 181.810909 
L 325.375026 159.847273 
L 343.353774 126.901818 
L 343.991319 88.904727 
L 344.373845 39.047273 
L 360.184943 17.083636 
L 360.184943 17.083636 
" style="fill:none;stroke:#1f77b4;stroke-linecap:square;stroke-width:1.5;"/>
   </g>
   <g id="patch_3">
    <path d="M 40.603125 224.64 
L 40.603125 7.2 
" style="fill:none;stroke:#000000;stroke-linecap:square;stroke-linejoin:miter;stroke-width:0.8;"/>
   </g>
   <g id="patch_4">
    <path d="M 375.403125 224.64 
L 375.403125 7.2 
" style="fill:none;stroke:#000000;stroke-linecap:square;stroke-linejoin:miter;stroke-width:0.8;"/>
   </g>
   <g id="patch_5">
    <path d="M 40.603125 224.64 
L 375.403125 224.64 
" style="fill:none;stroke:#000000;stroke-linecap:square;stroke-linejoin:miter;stroke-width:0.8;"/>
   </g>
   <g id="patch_6">
    <path d="M 40.603125 7.2 
L 375.403125 7.2 
" style="fill:none;stroke:#000000;stroke-linecap:square;stroke-linejoin:miter;stroke-width:0.8;"/>
   </g>
  </g>
 </g>
 <defs>
  <clipPath id="p91d963cc60">
   <rect height="217.44" width="334.8" x="40.603125" y="7.2"/>
  </clipPath>
 </defs>
</svg>
